<?xml version="1.0" encoding="utf-8"?>
<!-- Generator: Adobe Illustrator 23.0.3, SVG Export Plug-In . SVG Version: 6.00 Build 0)  -->
<svg version="1.1" id="레이어_1" xmlns="http://www.w3.org/2000/svg" xmlns:xlink="http://www.w3.org/1999/xlink" x="0px"
	 y="0px" viewBox="0 0 438.4 355.8" style="enable-background:new 0 0 438.4 355.8;" xml:space="preserve">
<style type="text/css">
	.st0{fill:#38D430;}
	.st1{fill:#453C7B;}
</style>
<path class="st0" d="M0.3,282.9v-4.2c0-1.9,0.5-3,1.9-4L6,272c0.8-0.6,1.2-1.3,1.2-2.3c0-1.4-0.6-2.1-1.9-2.1s-1.9,0.8-1.9,2.2H0.3
	c0-3.5,2-5.1,5-5.1s5,1.5,5,5c0,2.2-0.8,3.6-2.3,4.7l-3.6,2.5c-0.7,0.5-1,1-1,1.9v1.2h6.9v2.9L0.3,282.9L0.3,282.9z"/>
<path class="st0" d="M22.1,269.3v9.3c0,2.7-1.8,4.5-5,4.5c-3.2,0-5-1.8-5-4.5v-9.3c0-2.8,1.8-4.5,5-4.5
	C20.3,264.8,22.1,266.5,22.1,269.3z M19,278.4v-8.8c0-1.2-0.7-1.9-1.9-1.9c-1.2,0-1.9,0.7-1.9,1.9v8.8c0,1.2,0.7,1.9,1.9,1.9
	C18.2,280.2,19,279.6,19,278.4z"/>
<path class="st0" d="M28.5,282.9h-3.1v-15h-1.8V265h4.9L28.5,282.9L28.5,282.9z"/>
<path class="st0" d="M36.5,276.8c-3,0-4.7-1.7-4.7-4.5v-3c0-2.9,1.8-4.5,5-4.5c3.2,0,5,1.7,5,4.5v9.2c0,3-1.9,4.6-5,4.6
	c-3,0-4.8-1.6-4.9-4.5h3.1c0.1,1.2,0.6,1.6,1.8,1.6c1.2,0,1.9-0.7,1.9-2v-2.3C38.3,276.5,37.4,276.8,36.5,276.8z M36.9,274
	c1.1,0,1.9-0.7,1.9-1.8v-2.7c0-1.2-0.7-1.9-1.9-1.9c-1.2,0-1.9,0.7-1.9,1.9v2.4C35,273.2,35.7,274,36.9,274z"/>
<path class="st0" d="M52.7,265.4h2.9c0,1-0.1,2-0.3,3c1.3,1.7,3.3,3,5.4,3.9l-1.6,2.3c-1.8-0.8-3.5-2-4.9-3.4
	c-0.9,1.6-2.1,2.9-3.5,3.8l-2.2-1.8C51.1,271.5,52.7,268.9,52.7,265.4z M66.5,282.2v2.2H50.3v-5.5h12.9v-1.1H50.3v-2.2h15.8v5.5
	H53.2v1.2H66.5z M66.1,265.4v9.4h-2.9v-9.4H66.1z"/>
<path class="st0" d="M78.3,280.9v2.6h-9v-2.6h1.3v-11.2h2.6v11.2h0.8l0.8-11.2h2.7c-0.3,3.7-0.6,7.5-0.8,11.2H78.3z M78.1,265.7v2.7
	h-8.7v-2.7H78.1z M85.9,265.4v19h-2.8v-9.1h-1.5v8.9h-2.7v-18.7h2.7v7.2h1.5v-7.2H85.9z"/>
<path class="st0" d="M99.9,265.7v10.4H89.8v-10.4h2.8v2.9h4.6v-2.9H99.9z M105.8,277.8v6.7h-2.9v-4.1H90v-2.6L105.8,277.8
	L105.8,277.8z M92.6,273.7h4.6v-2.8h-4.6C92.6,270.9,92.6,273.7,92.6,273.7z M108.2,269.7v2.8h-2.5v4.4h-2.9v-11.5h2.9v4.3
	L108.2,269.7L108.2,269.7z"/>
<path class="st0" d="M121.6,273.9v2.3h-11.5v-6.4h7.2V268h-7.2v-2.3h10.1v6.4h-7.2v1.8L121.6,273.9L121.6,273.9z M126.1,277.6v6.6
	h-15.6v-6.6H126.1z M113.4,281.9h9.8V280h-9.8V281.9z M128.6,269.6v2.8h-2.5v4.5h-2.9v-11.5h2.9v4.2H128.6z"/>
<path class="st0" d="M142.8,281v2.7h-13.1V281h4.9v-2.5h2.9v2.5H142.8z M141.9,266.5v2.4H130v-2.4h4.4v-1.8h3v1.8H141.9z
	 M141.3,273.7c0,2.5-2.1,4.2-5.1,4.2h-0.3c-3,0-5.1-1.7-5.1-4.2c0-2.5,2.1-4.2,5.1-4.2h0.3C139.2,269.5,141.3,271.2,141.3,273.7z
	 M138.4,273.7c0-1.1-0.9-2-2.3-2h-0.3c-1.3,0-2.3,0.8-2.3,2c0,1.2,0.9,2,2.3,2h0.3C137.5,275.7,138.4,274.9,138.4,273.7z
	 M146.9,265.4v19H144v-19H146.9z"/>
<path class="st0" d="M153.8,268.8h-3.4v-3.1h3.4V268.8z M153.7,284.3h-3.2v-13.8h3.2V284.3z"/>
<path class="st0" d="M167,274.4v9.9h-3.2v-9.2c0-1.1-0.6-1.9-1.8-1.9c-1.3,0-2,1-2,2.4v8.7h-3.2v-13.8h2.9l0.2,1.2
	c0.6-0.9,1.8-1.4,3.1-1.4C165.5,270.3,167,272,167,274.4z"/>
<path class="st0" d="M170.1,268.2v-2.5h10.2v2.5h-3.8c0,0.7-0.1,1.5-0.3,2.1c1.2,1.8,3.2,3.5,5.2,4.7c-0.6,0.7-1.2,1.4-1.8,2.1
	c-1.6-1-3.2-2.4-4.5-3.8c-0.9,1.8-2.1,3.2-3.6,4.3l-2.2-1.8c2.5-1.6,4-4.2,4.4-7.5L170.1,268.2L170.1,268.2z M170.8,284.2v-6h2.9
	v3.4H187v2.7H170.8z M183.7,269.8v-4.4h2.9v14.2h-2.9v-7.2H180v-2.5L183.7,269.8L183.7,269.8z"/>
<path class="st0" d="M191.1,275.6l-1.4-2.4c3.3-0.6,6.1-2.3,7.6-4.9h-6.6v-2.7H207v2.7h-6.4c-0.2,0.4-0.4,0.8-0.6,1.2
	c2,1.6,5,2.8,7.9,3.2l-1.3,2.5c-2.9-0.5-6.1-1.8-8.2-3.5C196.5,273.7,193.9,275.1,191.1,275.6z M207.9,277.1v2.7h-7.5v4.8h-3.1v-4.8
	h-7.5v-2.7H207.9z"/>
<path class="st0" d="M217,273.4h1.5l-2.3,9.1h-1.5L217,273.4z"/>
<path class="st1" d="M225,284.1v-4.4c0-2,0.5-3.1,2-4.1l3.9-2.8c0.8-0.6,1.2-1.4,1.2-2.3c0-1.4-0.6-2.2-1.9-2.2s-1.9,0.8-1.9,2.3
	H225c0-3.7,2-5.2,5.1-5.2s5.2,1.6,5.2,5.2c0,2.2-0.8,3.8-2.4,4.8l-3.7,2.5c-0.7,0.5-1.1,1-1.1,2v1.3h7.1v2.9L225,284.1L225,284.1z"
	/>
<path class="st1" d="M247.2,270.1v9.6c0,2.8-1.8,4.6-5.1,4.6c-3.3,0-5.2-1.8-5.2-4.6v-9.6c0-2.9,1.8-4.7,5.2-4.7
	C245.4,265.4,247.2,267.2,247.2,270.1z M244,279.5v-9.1c0-1.2-0.8-2-1.9-2c-1.2,0-1.9,0.7-1.9,2v9.1c0,1.3,0.7,2,1.9,2
	C243.3,281.4,244,280.7,244,279.5z"/>
<path class="st1" d="M253.7,284.1h-3.2v-15.5h-1.8v-3h5L253.7,284.1L253.7,284.1z"/>
<path class="st1" d="M261.7,277.9c-3.1,0-4.8-1.8-4.8-4.7v-3.1c0-3,1.8-4.7,5.2-4.7c3.3,0,5.1,1.7,5.1,4.7v9.5c0,3.1-2,4.8-5.1,4.8
	c-3.1,0-4.9-1.6-5-4.6h3.2c0.1,1.2,0.6,1.7,1.9,1.7c1.2,0,1.9-0.7,1.9-2V277C263.5,277.5,262.6,277.9,261.7,277.9z M262.1,274.9
	c1.2,0,1.9-0.7,1.9-1.8v-2.8c0-1.2-0.7-2-1.9-2c-1.3,0-1.9,0.7-1.9,2v2.5C260.1,274.2,260.8,274.9,262.1,274.9z"/>
<path class="st1" d="M273,284.8h-3.7v-3.5h3.7V284.8z"/>
<path class="st1" d="M281.6,275.4h-3v-9.7h9.3v3h-6.1v3.6c0.6-0.5,1.5-0.8,2.4-0.8c2.7,0,4.1,1.5,4.1,4v4c0,3-1.6,4.9-5,4.9
	c-3.4,0-5.3-1.8-5.3-5.2h3.2c0,1.7,0.8,2.3,2,2.3c1.2,0,1.8-0.6,1.8-2V276c0-1.1-0.5-1.6-1.5-1.6
	C282.8,274.4,282.1,274.8,281.6,275.4z"/>
<path class="st1" d="M293.9,284.8h-3.7v-3.5h3.7V284.8z"/>
<path class="st1" d="M309.8,277.4v2.6c0,2.7-1.8,4.3-5.4,4.3s-5.4-1.6-5.4-4.3v-1.4h3.2v1.1c0,1.2,0.8,1.7,2.1,1.7
	c1.4,0,2.1-0.5,2.1-1.7v-2.1c0-1.1-0.7-1.7-1.9-1.7h-2v-3h2c1.1,0,1.7-0.6,1.7-1.6V270c0-1-0.7-1.6-1.9-1.6c-1.2,0-1.9,0.6-1.9,1.6
	v0.7h-3.2v-1.1c0-2.7,2.1-4.1,5.1-4.1s5.1,1.4,5.1,4.1v2c0,1.4-0.7,2.4-1.8,2.9C309.1,274.8,309.8,276,309.8,277.4z"/>
<path class="st1" d="M316.2,284.1H313v-15.5h-1.8v-3h5V284.1z"/>
<path class="st1" d="M323.5,284.8h-3.7v-3.5h3.7V284.8z"/>
<path class="st1" d="M325.2,272.8h18.2v2.6h-18.2V272.8z M342.5,271.9h-2.9v-3.5h-13.4v-2.7h16.3V271.9z M342.5,276.9v7.4h-16.3
	v-7.4H342.5z M329.1,281.8h10.5v-2.4h-10.5V281.8z"/>
<path class="st1" d="M355,273.4l2.7,0.9c-0.8,2.8-3.2,3.8-5.6,2.7l-2.2-1c-1.1-0.5-2-0.1-2.5,1.1l-2.7-0.9c0.9-2.9,3.2-4,5.9-2.8
	l2.2,1C353.7,274.9,354.6,274.6,355,273.4z"/>
<path class="st1" d="M364.3,268.4c-1.3,0-1.9,0.7-1.9,2v2.4c0.7-0.5,1.8-0.9,2.8-0.9c2.8,0,4.2,1.5,4.2,4.1v3.8
	c0,2.8-1.8,4.6-5.1,4.6c-3.3,0-5.2-1.8-5.2-4.6v-9.6c0-3.1,1.8-4.7,5.2-4.7c3.2,0,4.9,1.7,4.9,4.6H366
	C366,269,365.4,268.4,364.3,268.4z M366.2,279.5v-3c0-1.2-0.5-1.7-1.6-1.7c-1.4,0-2.3,0.8-2.3,1.9v2.8c0,1.3,0.6,2,1.9,2
	C365.6,281.4,366.2,280.7,366.2,279.5z"/>
<path class="st1" d="M375,284.8h-3.7v-3.5h3.7V284.8z"/>
<path class="st1" d="M380.3,284.1v-4.4c0-2,0.5-3.1,2-4.1l3.9-2.8c0.8-0.6,1.2-1.4,1.2-2.3c0-1.4-0.6-2.2-1.9-2.2s-1.9,0.8-1.9,2.3
	h-3.2c0-3.7,2-5.2,5.1-5.2s5.2,1.6,5.2,5.2c0,2.2-0.8,3.8-2.4,4.8l-3.7,2.5c-0.7,0.5-1,1-1,2v1.3h7.1v2.9L380.3,284.1L380.3,284.1z"
	/>
<path class="st1" d="M396.2,284.8h-3.7v-3.5h3.7V284.8z"/>
<path class="st0" d="M7.4,303.4c-0.1,0.5-0.2,1.1-0.3,1.6c1.2,1.7,3,3.2,5,4.3l-1.7,2.1c-1.6-0.9-3.2-2.2-4.3-3.6
	c-0.9,1.7-2.3,3-3.9,4c-0.7-0.6-1.4-1.2-2.1-1.9c2.5-1.5,4.1-3.7,4.5-6.6H0.8v-2.5h10.3v2.5H7.4z M12.4,319.8H5.8
	c-3,0-4.8-1.4-4.8-3.7c0-2.2,1.8-3.8,4.8-3.8h6.6c3.1,0,4.8,1.6,4.8,3.8C17.2,318.4,15.5,319.8,12.4,319.8z M5.8,317.3H12
	c1.4,0,2.3-0.4,2.3-1.3c0-1-0.9-1.3-2.3-1.3H6.3C4.9,314.7,4,315,4,316C4,316.8,4.7,317.3,5.8,317.3z M19.3,304.7v2.8h-2.5v4.3h-2.9
	v-11.2h2.9v4.1L19.3,304.7L19.3,304.7z"/>
<path class="st0" d="M21,311.9l-1.8-2.3c4.3-1.5,7.3-4.9,8-9.2l3,0.5c-0.1,1-0.5,2-0.9,2.9c2,2.4,4.9,4.1,8.2,5l-1.6,2.4
	c-3.1-0.8-6-2.6-8-4.8C26.2,308.9,23.7,310.9,21,311.9z M37.5,316.1v2.7H19.3v-2.7h7.5v-5.2h3.1v5.2H37.5z"/>
<path class="st0" d="M44.3,308.6h1.5l-2.3,9.1H42L44.3,308.6z"/>
<path class="st1" d="M51.2,303.4v-2.5h10.2v2.5h-3.8c0,0.7-0.2,1.5-0.3,2.1c1.2,1.8,3.2,3.5,5.2,4.7c-0.6,0.7-1.2,1.4-1.8,2.1
	c-1.6-1-3.2-2.4-4.5-3.8c-0.9,1.8-2.1,3.2-3.6,4.3l-2.2-1.8c2.5-1.6,4-4.2,4.3-7.5L51.2,303.4L51.2,303.4z M51.8,319.4v-6h2.9v3.4
	H68v2.7H51.8z M64.7,304.9v-4.4h2.9v14.2h-2.9v-7.2H61v-2.5L64.7,304.9L64.7,304.9z"/>
<path class="st1" d="M71.1,310.8l-1.4-2.4c3.3-0.6,6.2-2.3,7.6-4.9h-6.6v-2.7h16.3v2.7h-6.4c-0.2,0.4-0.3,0.8-0.6,1.2
	c2,1.6,5,2.8,7.9,3.2l-1.3,2.5c-2.9-0.5-6.1-1.8-8.2-3.5C76.5,308.9,73.8,310.2,71.1,310.8z M87.9,312.3v2.7h-7.5v4.8h-3.1V315h-7.5
	v-2.7H87.9z"/>
<path class="st1" d="M100.5,301.5v2.4H89.1v-2.4h4.2v-1.7h2.9v1.7H100.5z M99.7,308.9c0,2.5-2.1,4.2-5,4.2c-2.9,0-4.9-1.8-4.9-4.2
	c0-2.5,2.1-4.2,4.9-4.2C97.6,304.6,99.7,306.4,99.7,308.9z M106.1,316.8v2.7h-16v-5.7H93v3H106.1z M96.9,308.9c0-1.1-0.8-2-2.2-2
	c-1.4,0-2.2,0.9-2.2,2c0,1.1,0.8,1.9,2.2,1.9C96.1,310.8,96.9,309.9,96.9,308.9z M108.1,306v2.8h-2.5v6.1h-2.9v-14.3h2.9v5.4
	L108.1,306L108.1,306z"/>
<path class="st1" d="M108.2,312v-2.4h7.6v-1.5h-1.9c-3.2,0-5-1.3-5-3.7c0-2.2,1.8-3.8,5-3.8h6.8c3.2,0,4.9,1.5,4.9,3.8
	c0,2.4-1.7,3.7-4.9,3.7h-2v1.5h7.7v2.4H108.2z M109.1,315.8v-2.4h16.3v6.3h-2.9v-3.9H109.1z M120.7,303h-6.8c-1.3,0-2,0.5-2,1.4
	c0,0.8,0.6,1.4,2,1.4h6.8c1.4,0,2-0.6,2-1.4C122.6,303.5,122,303,120.7,303z"/>
<path class="st1" d="M137.9,300.9v17.8h-9.8v-17.8H137.9z M130.9,316.1h4.1v-12.5h-4.1V316.1z M144.1,310.5v9h-2.9v-19h2.9v7.1h2.5
	v2.8H144.1z"/>
<path class="st1" d="M146.6,307.8h18.2v2.2h-18.2V307.8z M151.5,300.6h8.3c2.6,0,4.3,1.1,4.3,3.2c0,2.1-1.7,3.2-4.3,3.2h-8.3
	c-2.6,0-4.1-1.1-4.1-3.2C147.4,301.7,148.9,300.6,151.5,300.6z M164.1,317.3v2.2h-16.5v-5.4h13.4v-1h-13.4v-2.2h16.3v5.3h-13.4v1
	L164.1,317.3L164.1,317.3z M151.5,304.7h8.3c0.8,0,1.3-0.4,1.3-1c0-0.6-0.6-0.9-1.3-0.9h-8.3c-0.8,0-1.2,0.3-1.2,0.9
	C150.3,304.3,150.8,304.7,151.5,304.7z"/>
<path class="st1" d="M170.6,300.9h9.2v1.5c0,4.8-3.8,8.1-9,8.7l-1.1-2.4c3.8-0.4,6.6-2.2,7.2-5.2h-6.2L170.6,300.9L170.6,300.9z
	 M182.3,319.8h-6.4c-3.1,0-5-1.6-5-4c0-2.4,2-4,5-4h6.4c3.1,0,5,1.6,5,4C187.3,318.2,185.3,319.8,182.3,319.8z M175.9,317.3h6.4
	c1.2,0,2-0.6,2-1.5s-0.8-1.5-2-1.5h-6.4c-1.2,0-2,0.6-2,1.5C173.9,316.7,174.6,317.3,175.9,317.3z M187,300.6v10.7h-2.9v-2h-4v-2.5
	h4v-1.7h-3.8v-2.4h3.8v-2.1H187z"/>
<path class="st1" d="M189.9,300.9h9.3v4.5c0,5.7-3,10.6-8.2,13.4l-2-2.1c4.6-2.3,7.3-6.4,7.3-11v-2.1h-6.4V300.9z M206.2,300.6v19
	h-2.9v-19H206.2z"/>
<path class="st1" d="M209,303.4v-2.5h10.2v2.5h-3.8c0,0.7-0.1,1.5-0.3,2.1c1.2,1.8,3.2,3.5,5.2,4.7c-0.6,0.7-1.2,1.4-1.8,2.1
	c-1.6-1-3.2-2.4-4.5-3.8c-0.9,1.8-2.1,3.2-3.6,4.3l-2.2-1.8c2.5-1.6,4-4.2,4.4-7.5L209,303.4L209,303.4z M209.6,319.4v-6h2.9v3.4
	h13.3v2.7H209.6z M222.5,304.9v-4.4h2.9v14.2h-2.9v-7.2h-3.7v-2.5L222.5,304.9L222.5,304.9z"/>
<path class="st1" d="M231.7,305.6c0-2.9,2.2-5,5.4-5s5.4,2.1,5.4,5s-2.2,5-5.4,5C234,310.7,231.7,308.5,231.7,305.6z M238.3,317.1
	h3.9l0.8-2.3h2.9l-0.8,2.3h3.3v2.4h-16.1v-2.4h3v-2.3h2.9L238.3,317.1L238.3,317.1z M248.3,311.7v2.4h-15.7v-2.4H248.3z
	 M234.6,305.6c0,1.5,1,2.6,2.5,2.6c1.5,0,2.5-1.1,2.5-2.6c0-1.5-1-2.6-2.5-2.6C235.6,303,234.6,304.2,234.6,305.6z M250.7,304.2v2.8
	h-2.5v4h-2.9v-10.4h2.9v3.6L250.7,304.2L250.7,304.2z"/>
<path class="st1" d="M267.5,308.7v2.4h-12.7v-2.4h3v-3.5h2.9v3.5H267.5z M265.9,307.5H263v-4.2h-7.5v-2.4h10.5V307.5z M267,319.8
	h-6.4c-3,0-4.9-1.2-4.9-3.6c0-2.2,1.9-3.7,4.9-3.7h6.4c3,0,4.9,1.5,4.9,3.7C271.9,318.5,270,319.8,267,319.8z M260.5,317.4h6.4
	c1.1,0,1.9-0.5,1.9-1.2c0-0.8-0.8-1.3-1.9-1.3h-6.4c-1.1,0-1.9,0.5-1.9,1.3C258.7,316.9,259.4,317.4,260.5,317.4z M273.9,304.8v2.8
	h-2.5v4.2h-2.9v-11.2h2.9v4.2L273.9,304.8L273.9,304.8z"/>
<path class="st1" d="M281.2,303.4c-0.1,0.5-0.1,1.1-0.3,1.6c1.2,1.7,3,3.2,5,4.3l-1.7,2.1c-1.6-0.9-3.2-2.2-4.4-3.6
	c-0.9,1.7-2.3,3-3.9,4c-0.7-0.6-1.4-1.2-2.1-1.9c2.5-1.5,4.1-3.7,4.5-6.6h-3.7v-2.5H285v2.5H281.2z M286.3,319.8h-6.6
	c-3,0-4.8-1.4-4.8-3.7c0-2.2,1.8-3.8,4.8-3.8h6.6c3,0,4.8,1.6,4.8,3.8C291.1,318.4,289.3,319.8,286.3,319.8z M279.7,317.3h6.1
	c1.4,0,2.3-0.4,2.3-1.3c0-1-0.9-1.3-2.3-1.3h-5.6c-1.5,0-2.3,0.3-2.3,1.3C277.9,316.8,278.5,317.3,279.7,317.3z M293.2,304.7v2.8
	h-2.5v4.3h-2.9v-11.2h2.9v4.1L293.2,304.7L293.2,304.7z"/>
<path class="st1" d="M307.6,315.2c2,1.2,4.9,1.8,7.5,2l-0.8,2.3c-2.8-0.2-6-1.1-8.3-2.5c-2,1.6-4.7,2.4-7.2,2.6l-1-2.3
	c2.9-0.1,5.5-1,7.2-2.7h-6.4v-2.4h6.4v-1.7h3v1.7h6.4v2.4h-6.2C307.9,314.7,307.8,315,307.6,315.2z M307.8,300.9v8.8h-9.9v-8.8
	H307.8z M300.7,307.2h4.3v-3.9h-4.3V307.2z M314.3,300.6v10.2h-2.9v-10.2H314.3z"/>
<path class="st1" d="M321.1,303.4v-2.5h10.2v2.5h-3.8c0,0.7-0.1,1.5-0.3,2.1c1.2,1.8,3.2,3.5,5.2,4.7c-0.6,0.7-1.2,1.4-1.8,2.1
	c-1.6-1-3.2-2.4-4.5-3.8c-0.9,1.8-2.1,3.2-3.6,4.3l-2.2-1.8c2.5-1.6,4-4.2,4.4-7.5L321.1,303.4L321.1,303.4z M321.7,319.4v-6h2.9
	v3.4h13.3v2.7H321.7z M334.6,304.9v-4.4h2.9v14.2h-2.9v-7.2h-3.7v-2.5L334.6,304.9L334.6,304.9z"/>
<path class="st1" d="M341,310.8l-1.4-2.4c3.3-0.6,6.1-2.3,7.6-4.9h-6.6v-2.7h16.3v2.7h-6.4c-0.2,0.4-0.4,0.8-0.6,1.2
	c2,1.6,5,2.8,7.9,3.2l-1.3,2.5c-2.9-0.5-6.1-1.8-8.2-3.5C346.4,308.9,343.7,310.2,341,310.8z M357.8,312.3v2.7h-7.5v4.8h-3.1V315
	h-7.5v-2.7H357.8z"/>
<path class="st1" d="M361.2,319l-2.7-1.3c2.8-5,3.7-10.9,3.7-16.9h2.9c0,2.1-0.1,4.2-0.4,6.4c1,3.6,3,7.3,5.6,9.8l-2.2,1.9
	c-1.8-1.8-3.3-4.1-4.4-6.6C363.2,314.6,362.4,316.9,361.2,319z M376,300.6v19h-2.9v-19H376z"/>
<path class="st1" d="M382.3,305.3c0-2.8,2.2-4.7,5.2-4.7c3,0,5.2,2,5.2,4.7c0,2.7-2.2,4.7-5.2,4.7C384.5,310,382.3,308,382.3,305.3z
	 M399.6,317.4v2.2h-16.2V314h12.9v-1.1h-12.9v-2.2h15.8v5.5h-12.9v1.2H399.6z M385.1,305.3c0,1.3,1,2.2,2.3,2.2s2.4-0.9,2.4-2.2
	s-1-2.2-2.4-2.2S385.1,303.9,385.1,305.3z M399.2,300.6v9.4h-2.9v-9.4H399.2z"/>
<path class="st1" d="M401.4,270c0-2.8,2.2-4.7,5.2-4.7c3,0,5.2,2,5.2,4.7c0,2.7-2.2,4.7-5.2,4.7C403.6,274.6,401.4,272.7,401.4,270z
	 M418.7,282v2.2h-16.2v-5.5h12.9v-1.1h-12.9v-2.2h15.8v5.5h-12.9v1.2H418.7z M404.3,270c0,1.3,1,2.2,2.3,2.2c1.3,0,2.3-0.9,2.3-2.2
	s-1-2.2-2.3-2.2C405.2,267.7,404.3,268.6,404.3,270z M418.3,265.3v9.4h-2.9v-9.4H418.3z"/>
<path class="st1" d="M413.9,308.8v2.3h-5.9v2.8H405v-2.8h-3.7v-2.3H413.9z M408.5,307.9h-2.3c-2.8,0-4.4-1.4-4.4-3.7
	c0-2.2,1.6-3.7,4.4-3.7h2.3c2.8,0,4.4,1.5,4.4,3.7C413,306.5,411.3,307.9,408.5,307.9z M418.8,316.9v2.6h-16.2v-5.2h2.9v2.6H418.8z
	 M406.2,305.6h2.3c1,0,1.6-0.5,1.6-1.4s-0.7-1.3-1.6-1.3h-2.3c-1,0-1.6,0.5-1.6,1.3S405.3,305.6,406.2,305.6z M415.5,314.2h-4.4
	v-2.2h4.4v-11.4h2.9v14.7h-2.9V314.2z"/>
<path class="st0" d="M1.5,346l-1.4-2.4c3.3-0.6,6.2-2.3,7.6-4.9H1v-2.7h16.3v2.7H11c-0.2,0.4-0.4,0.8-0.6,1.2c2,1.6,5,2.8,7.9,3.2
	l-1.3,2.5c-2.9-0.5-6.1-1.8-8.2-3.5C6.9,344,4.2,345.4,1.5,346z M18.3,347.5v2.7h-7.5v4.8H7.6v-4.8H0.1v-2.7H18.3z"/>
<path class="st0" d="M27,339.8c-0.1,0.3-0.2,0.7-0.3,1c1.2,1.7,3.2,3.4,5.2,4.4c-0.5,0.8-1.1,1.5-1.7,2.2c-1.8-1-3.5-2.4-4.8-3.9
	c-1,1.7-2.5,3.1-4.1,4.1l-2.2-2c2.4-1.3,4.1-3.4,4.8-5.8h-3.9v-2.6h4V335H27v2.1h4.1v2.6L27,339.8L27,339.8z M32.3,351.4v2.7h-13
	v-2.7H24v-4.2H27v4.2H32.3z M36.5,335.8v19h-2.9v-19H36.5z"/>
<path class="st0" d="M44.1,343.8h1.5l-2.3,9.1h-1.5L44.1,343.8z"/>
<path class="st1" d="M59.5,336.6v2.4h-9.2v-2.4h3.1V335h2.9v1.5H59.5z M59.2,343.4c0,2.3-1.8,3.8-4.2,3.8c-2.4,0-4.2-1.5-4.2-3.8
	c0-2.3,1.8-3.8,4.2-3.8C57.4,339.5,59.2,341,59.2,343.4z M63,354.9h-7.2c-2.9,0-4.6-1.2-4.6-3.5c0-2.1,1.7-3.5,4.6-3.5H63
	c2.8,0,4.6,1.4,4.6,3.5C67.5,353.7,65.8,354.9,63,354.9z M56.5,343.4c0-0.9-0.6-1.6-1.6-1.6c-1,0-1.6,0.7-1.6,1.6
	c0,0.9,0.6,1.5,1.6,1.5C55.9,344.9,56.5,344.2,56.5,343.4z M55.7,352.5h6.7c1.3,0,2.1-0.2,2.1-1.1c0-0.9-0.8-1.1-2.1-1.1h-6.2
	c-1.4,0-2.1,0.3-2.1,1.1C54.1,352.1,54.7,352.5,55.7,352.5z M67.2,335.8v11.5h-2.8v-4.6h-1.7v4.6h-2.7v-11.4h2.7v4.2h1.7v-4.3
	L67.2,335.8L67.2,335.8z"/>
<path class="st1" d="M76.5,338.5c-0.1,0.5-0.2,1.1-0.3,1.6c1.2,1.7,3,3.2,5,4.3l-1.7,2.1c-1.6-0.9-3.2-2.2-4.3-3.6
	c-0.9,1.6-2.2,3-3.8,4l-2.1-1.8c2.5-1.5,4-3.7,4.4-6.6H70v-2.5h10.2v2.5L76.5,338.5L76.5,338.5z M82,354.9h-6.8
	c-3,0-4.8-1.4-4.8-3.7c0-2.2,1.8-3.8,4.8-3.8H82c3.1,0,4.8,1.6,4.8,3.8C86.8,353.6,85,354.9,82,354.9z M75.2,352.5h6.3
	c1.4,0,2.3-0.4,2.3-1.3c0-1-0.9-1.3-2.3-1.3h-5.8c-1.4,0-2.3,0.3-2.3,1.3C73.3,352,74,352.5,75.2,352.5z M86.5,335.8v11.1h-2.9v-4.6
	h-3.7v-2.5h3.7v-4H86.5z"/>
<path class="st1" d="M88.8,341.7v-0.8c0-3,2.2-5.1,5.4-5.1s5.4,2.1,5.4,5.1v0.8c0,2.9-2.2,5.1-5.4,5.1S88.8,344.6,88.8,341.7z
	 M105.7,352v2.7h-16v-6.2h2.9v3.6H105.7z M91.7,340.9v0.8c0,1.5,1,2.7,2.5,2.7c1.5,0,2.5-1.2,2.5-2.7v-0.8c0-1.5-1-2.7-2.5-2.7
	C92.6,338.2,91.7,339.4,91.7,340.9z M107.8,341v2.8h-2.5v6.1h-2.9v-14.1h2.9v5.2L107.8,341L107.8,341z"/>
<path class="st1" d="M108.5,338.5v-2.5h10.2v2.5h-3.8c0,0.7-0.2,1.5-0.3,2.1c1.2,1.8,3.2,3.5,5.2,4.7c-0.6,0.7-1.2,1.4-1.8,2.1
	c-1.6-1-3.2-2.4-4.5-3.8c-0.9,1.8-2.1,3.2-3.6,4.3l-2.2-1.8c2.5-1.6,4-4.2,4.3-7.5L108.5,338.5L108.5,338.5z M109.1,354.6v-6h2.9
	v3.4h13.3v2.7H109.1z M122,340.1v-4.4h2.9v14.2H122v-7.2h-3.7v-2.5L122,340.1L122,340.1z"/>
<path class="st1" d="M145.2,347.7v2.7h-7.5v4.5h-3.1v-4.5H127v-2.7H145.2z M144.3,336.1v10.1h-16.3v-10.1h2.9v2.4h10.5v-2.4H144.3z
	 M130.9,343.5h10.5v-2.4h-10.5V343.5z"/>
<path class="st1" d="M146.2,355.8l-0.7-1.5c1.1-0.5,1.3-1.2,1.3-2.8v-1.1h3.2v1.3C150,354.2,148.8,355.5,146.2,355.8z"/>
<g>
	<path class="st1" d="M155.9,338.5v-2.5h10.2v2.5h-3.8c0,0.7-0.1,1.5-0.3,2.1c1.2,1.8,3.2,3.5,5.2,4.7c-0.6,0.7-1.2,1.4-1.8,2.1
		c-1.6-1-3.2-2.4-4.5-3.8c-0.9,1.8-2.1,3.2-3.6,4.3l-2.2-1.8c2.5-1.6,4-4.2,4.4-7.5L155.9,338.5L155.9,338.5z M156.5,354.6v-6h2.9
		v3.4h13.3v2.7H156.5z M169.4,340.1v-4.4h2.9v14.2h-2.9v-7.2h-3.7v-2.5L169.4,340.1L169.4,340.1z"/>
	<path class="st1" d="M175.8,346l-1.4-2.4c3.3-0.6,6.1-2.3,7.6-4.9h-6.6v-2.7h16.3v2.7h-6.4c-0.2,0.4-0.4,0.8-0.6,1.2
		c2,1.6,5,2.8,7.9,3.2l-1.3,2.5c-2.9-0.5-6.1-1.8-8.2-3.5C181.2,344,178.5,345.4,175.8,346z M192.6,347.5v2.7h-7.5v4.8H182v-4.8
		h-7.5v-2.7H192.6z"/>
	<path class="st1" d="M196,354.2l-2.7-1.3c2.8-5,3.7-10.9,3.7-16.9h2.9c0,2.1-0.1,4.2-0.4,6.4c1,3.6,3,7.3,5.6,9.8L203,354
		c-1.8-1.8-3.3-4.1-4.4-6.6C198,349.8,197.2,352.1,196,354.2z M210.8,335.8v19h-2.9v-19H210.8z"/>
</g>
<g>
	<path class="st1" d="M267.4,338.5v-2.5h10.2v2.5h-3.8c0,0.7-0.1,1.5-0.3,2.1c1.2,1.8,3.2,3.5,5.2,4.7c-0.6,0.7-1.2,1.4-1.8,2.1
		c-1.6-1-3.2-2.4-4.5-3.8c-0.9,1.8-2.1,3.2-3.6,4.3l-2.2-1.8c2.5-1.6,4-4.2,4.4-7.5L267.4,338.5L267.4,338.5z M268,354.6v-6h2.9v3.4
		h13.3v2.7H268z M280.9,340.1v-4.4h2.9v14.2h-2.9v-7.2h-3.7v-2.5L280.9,340.1L280.9,340.1z"/>
	<path class="st1" d="M287.3,346l-1.4-2.4c3.3-0.6,6.1-2.3,7.6-4.9h-6.6v-2.7h16.3v2.7h-6.4c-0.2,0.4-0.4,0.8-0.6,1.2
		c2,1.6,5,2.8,7.9,3.2l-1.3,2.5c-2.9-0.5-6.1-1.8-8.2-3.5C292.7,344,290,345.4,287.3,346z M304.1,347.5v2.7h-7.5v4.8h-3.1v-4.8h-7.5
		v-2.7H304.1z"/>
	<path class="st1" d="M307.5,354.2l-2.7-1.3c2.8-5,3.7-10.9,3.7-16.9h2.9c0,2.1-0.1,4.2-0.4,6.4c1,3.6,3,7.3,5.6,9.8l-2.2,1.9
		c-1.8-1.8-3.3-4.1-4.4-6.6C309.5,349.8,308.6,352.1,307.5,354.2z M322.3,335.8v19h-2.9v-19H322.3z"/>
</g>
<path class="st0" d="M218.1,346l-1.4-2.4c3.3-0.6,6.1-2.3,7.6-4.9h-6.6v-2.7h16.3v2.7h-6.4c-0.2,0.4-0.4,0.8-0.6,1.2
	c2,1.6,5,2.8,7.9,3.2l-1.3,2.5c-2.9-0.5-6.1-1.8-8.2-3.5C223.5,344,220.8,345.4,218.1,346z M234.9,347.5v2.7h-7.5v4.8h-3.1v-4.8
	h-7.5v-2.7H234.9z"/>
<path class="st0" d="M248.7,344.9v2.6h-12.7v-2.6h3v-4h2.9v4H248.7z M247.1,343.4h-2.9v-4.9h-7.5v-2.5h10.5L247.1,343.4L247.1,343.4
	z M253.1,352v2.6h-16v-5.9h2.9v3.2L253.1,352L253.1,352z M255.1,341v2.8h-2.5v6.2h-2.9v-14.2h2.9v5.2H255.1z"/>
<path class="st0" d="M260.6,343.8h1.5l-2.3,9.1h-1.5L260.6,343.8z"/>
<path class="st1" d="M327.5,354.2l-2.7-1.3c2.8-5,3.7-10.9,3.7-16.9h2.9c0,2.1-0.1,4.2-0.4,6.4c1,3.6,3,7.3,5.6,9.8l-2.2,1.9
	c-1.8-1.8-3.3-4.1-4.4-6.6C329.5,349.8,328.6,352.1,327.5,354.2z M341.9,345.7v9H339v-19h2.9v7.1h2.5v2.8H341.9z"/>
<path class="st1" d="M357.5,351.4v2.7h-13.1v-2.7h4.9v-2.5h2.9v2.5H357.5z M356.6,336.9v2.4h-11.9v-2.4h4.4V335h3v1.8H356.6z
	 M355.9,344.1c0,2.5-2.1,4.2-5.1,4.2h-0.3c-3,0-5.1-1.7-5.1-4.2c0-2.5,2.1-4.2,5.1-4.2h0.3C353.9,339.9,355.9,341.6,355.9,344.1z
	 M353.1,344.1c0-1.1-0.9-2-2.3-2h-0.3c-1.3,0-2.3,0.8-2.3,2c0,1.2,0.9,2,2.3,2h0.3C352.1,346.1,353.1,345.3,353.1,344.1z
	 M361.5,335.8v19h-2.9v-19H361.5z"/>
<path class="st1" d="M375.2,336.7v2.4h-11.5v-2.4h4.2V335h2.9v1.6H375.2z M369.6,347.9h-0.4c-2.7,0-4.8-1.6-4.8-4.1
	c0-2.5,2.1-4.1,4.8-4.1h0.4c2.7,0,4.8,1.6,4.8,4.1C374.3,346.2,372.3,347.9,369.6,347.9z M380.7,348.7v6.2h-2.9v-3.6h-13.1v-2.6
	H380.7z M369.2,345.5h0.4c1.1,0,2-0.8,2-1.8c0-1-0.8-1.8-2-1.8h-0.4c-1.2,0-2,0.8-2,1.8C367.2,344.8,368,345.5,369.2,345.5z
	 M380.7,335.8v12.1h-2.9v-1.8H375v-2.4h2.8V342H375v-2.4h2.8v-3.8H380.7z"/>
<path class="st1" d="M387,335.8h2.9c0,1.4-0.1,2.8-0.5,4.1c1.3,2,3.3,3.9,5.4,5l-1.7,2.2c-1.7-1-3.4-2.5-4.7-4.1
	c-0.9,1.9-2.1,3.4-3.7,4.5l-2.2-1.9C385.3,343.5,387,340.1,387,335.8z M400.4,352v2.7h-16.2v-6.2h2.9v3.6H400.4z M400,335.8v14.1
	h-2.9v-14.1H400z"/>
<path class="st1" d="M405,335.8h2.8c0,1.4-0.1,2.8-0.3,4.1c1,2,2.5,3.9,4.4,5.2l-1.9,1.9c-1.2-0.9-2.4-2.1-3.4-3.5
	c-0.6,1.6-1.4,3-2.6,4.2l-2.3-1.4C404.2,343.7,405,339.9,405,335.8z M419.5,352v2.7h-16.1v-6.2h2.9v3.6H419.5z M414.9,335.8V349
	h-2.7v-7.3h-2.8V339h2.8v-3.2L414.9,335.8L414.9,335.8z M416.4,349.3v-13.5h2.8v13.5H416.4z"/>
<path class="st1" d="M432.1,353.9H422v-17.8h9.2v2.7h-6.3v4.5h6.1v2.7h-6.1v5.3h7.2V353.9z M435.5,345.9h-3.6v-2.8h3.6v-7.4h2.9v19
	h-2.9V345.9z"/>
<g>
	<g>
		<path class="st0" d="M31.7,221.6c5.8,0,11.5,0.5,17.2,1.5c12.2,2.1,24,1.7,34.9-1.4v-12.5c-8.7,2.8-17.9,3.7-27.4,2.4
			c-9.6-1.2-18.3-1.4-25.8-0.5l-0.9,0.1v-4.8h51.7v-26.9H11.1v11.7h51.8v4.2H11.3v28.2C18.1,222.2,24.9,221.6,31.7,221.6z M63,175.6
			h18.5V133H63V175.6z M40.1,175.3h20c-4.3-5.9-8.6-12.4-12.9-19.2c-4.7-7.4-7-14.2-7-20.1v-2.8h-19v2.8c0,5.9-2.4,12.6-7.1,20.1
			c-4.3,6.9-8.6,13.3-12.9,19.2h20l4.9-6.6c1.7-2.3,3-4.3,4-6.1l0.7-1.3l0.7,1.3c1,1.8,2.3,3.8,3.9,6.1
			C37,170.9,38.5,173.1,40.1,175.3z"/>
	</g>
	<g>
		<path class="st0" d="M156.7,222.3H173V133h-16.3v29.9l-4.3,1.6V133h-16.3v73.3l-0.4,0.2c-0.7,0.4-1.5,0.8-2.4,1
			c-0.9,0.2-1.9,0.3-3,0.4l-0.9,0.1l0.5-56.5h-15.6l-0.5,56.6h-4.2l-0.5-56.6H94.4l0.5,56.6h-4.3v13.7h32.6c2.3,0,4.4-0.1,6.5-0.2
			c1.9-0.2,3.7-0.7,5.2-1.6l1.2-0.7v3.1h16.3v-42.9l4.3-1.6L156.7,222.3L156.7,222.3z M91.1,147.2h41.5v-13.9H91.1V147.2z"/>
	</g>
	<g>
		<path class="st0" d="M233.2,222.5h18.5v-37.3h-70.2v13.7h51.7L233.2,222.5L233.2,222.5z M233.1,181.4h18.5v-16l0.5-0.2
			c2.6-1,5.3-1.4,8-1.2c2.3,0.1,4.2-0.5,5.8-2.1v-14.8c-2.1,1.1-4.3,1.7-6.6,1.7c-2.4,0-4.7,0.4-6.7,1.1l-1.1,0.4V133h-18.5
			L233.1,181.4L233.1,181.4z M180,180.5h47.4v-47.4h-18.5v9.5h-10.4v-9.5H180L180,180.5L180,180.5z M208.9,166.9h-10.4v-10.6h10.4
			V166.9z"/>
	</g>
	<g>
		<path class="st0" d="M291.5,221.9c6.1,0,12.3,0.5,18.4,1.5c12.6,2,23.5,1.1,32.2-2.8l-0.1-32.9h-70.5v36
			C278.2,222.5,284.9,221.9,291.5,221.9z M314.5,210.2c-2.8,0-5.5-0.2-8.3-0.7c-5.5-0.9-10.6-0.9-15.1-0.1l-0.9,0.2V201h33.6
			l-0.1,8.4l-0.7,0.1C320.2,210,317.4,210.2,314.5,210.2z M323.3,183.9h18.5v-18.4l0.5-0.2c2.6-1,5.3-1.4,8-1.2
			c2.3,0.1,4.2-0.5,5.8-2.1v-14.8c-2.1,1.1-4.3,1.7-6.6,1.7c-2.4,0-4.7,0.4-6.7,1.1l-1.1,0.4V133h-18.5v34.4l-0.6,0.2
			c-2,0.6-4.5,1.1-7.3,1.4c-2.8,0.3-5.2,0.5-7.1,0.5h-19.7V165h28.9v-31.7h-47.7v13.8h29.2v4.3h-28.9v31.8h36.9c3,0,5.8-0.1,8.2-0.4
			c2.4-0.3,4.8-0.8,7-1.4l1-0.3L323.3,183.9L323.3,183.9z"/>
	</g>
	<g>
		<path class="st0" d="M418.8,222.4h18.4V133h-18.4v73.3l-0.4,0.2c-0.7,0.4-2.2,0.7-4.4,1.1c-2.1,0.3-4.3,0.5-6.5,0.5h-11.2v-10.7
			l0.6-0.2c4.2-1.3,7.7-3.5,10.5-6.6c2.7-3.1,4.1-7.4,4.1-12.8v-11.3c0-3-0.4-5.6-1.3-7.9c-0.9-2.2-2.1-4.1-3.6-5.6l-1.4-1.4h8.4
			v-13.4h-17.2V128h-18.4v10.2h-18.5v13.4h10L368,153c-1.6,1.5-2.8,3.4-3.7,5.6c-0.9,2.2-1.3,4.9-1.3,7.9v11.3
			c0,5.4,1.4,9.7,4.1,12.7c2.8,3.1,6.3,5.3,10.4,6.6l0.6,0.2V208h-17.4v13.7h46.2c2.7,0,5-0.1,6.8-0.4c1.8-0.3,3.1-0.6,4-0.9
			l1.1-0.4V222.4z M387.4,184.3c-1.5,0-2.9-0.5-4.1-1.5c-1.3-1-1.9-2.9-1.9-5.7v-8.7c0-2.8,0.6-4.6,1.9-5.7c1.2-1,2.6-1.5,4.1-1.5
			c1.4,0,2.7,0.4,3.8,1.3c1.2,0.9,1.7,2.8,1.7,5.8v8.7c0,2.9-0.6,4.8-1.7,5.8C390.1,183.8,388.8,184.3,387.4,184.3z"/>
	</g>
</g>
<g>
	<path class="st1" d="M118.7,69.7h17.7c1.8-3.8,2.9-7.2,3.3-10.1c0.5-3,0.7-8.1,0.7-15V0.1h-74v13.8h55.4v31.4
		c0,5.4-0.2,10.2-0.7,14.2C120.8,63.2,119.9,66.6,118.7,69.7z"/>
	<g>
		<path class="st1" d="M213.9,89.4h16.7V0.1h-16.7v30l-4.3,1.6V0.1h-16.7v72l-0.6,0.2c-3,1-6.2,1.8-9.6,2.3
			c-3.4,0.5-6.1,0.8-8.3,0.8h-5.9V50.1h19.5V0.3h-37.4v13.8h19.6v22.4H151v52.5h22.2c3.4,0,6.8-0.2,10-0.7l0,0
			c3.1-0.4,6.1-1.2,8.6-2.2l1.1-0.4v3.7h16.7V46.5l4.3-1.6L213.9,89.4L213.9,89.4z"/>
	</g>
	<g>
		<path class="st1" d="M296.5,89.4h18.4V0h-18.4v25.1l-0.5,0.2c-2.8,1.1-5.9,1.7-9.2,1.7c-2.9,0.1-5.4,0.6-7.4,1.6v15.2
			c2.2-1.1,4.9-1.7,7.8-1.7c3.2,0,6-0.5,8.2-1.5l1.1-0.5L296.5,89.4L296.5,89.4z M273.4,89.4h19.2c-3.9-6.5-8-14.9-12.2-25
			c-4.5-10.8-6.8-19.4-6.8-25.7V0.1h-19.1v38.6c0,6.3-2.5,14.9-7.3,25.7c-4.5,10.1-8.8,18.4-12.7,25h19.6c1.3-2.3,2.9-5.4,4.7-9
			c1.9-3.8,3.4-7.2,4.5-10.2l0.8-2.1l0.7,2.1c1,3.1,2.4,6.5,4.1,10.2C270.6,84,272.1,87,273.4,89.4z"/>
	</g>
	<path class="st1" d="M374.7,14.1c-1-3-2.5-5.6-4.5-7.6c-2-2.1-4.7-3.7-7.9-4.8C359,0.6,355.1,0,350.6,0c-4,0-7.6,0.7-10.7,2.1
		c-3.1,1.4-5.8,3.3-8,5.7s-3.9,5.2-5,8.5c-1.2,3.2-1.7,6.7-1.7,10.3h19.2c0-3.4,0.6-6,1.7-7.9s2.6-2.9,4.5-2.9
		c2.6,0,4.4,0.8,5.2,2.5c0.8,1.6,1.2,3.9,1.2,6.8c0,1.2-0.2,2.6-0.6,4.2c-0.4,1.6-1.1,3.3-2.2,5.2l-7.5,12.9
		c-1.5,2.8-2.7,5.4-3.5,7.9c-0.8,2.5-1.2,4.7-1.2,6.5v3h18.2v-3c0-1.2,0.2-2.6,0.6-3.9c0.4-1.3,1-2.5,1.7-3.4l7.6-12.9
		c0.7-1.1,1.3-2.2,2-3.6s1.3-2.7,1.9-4.2c0.6-1.5,1.1-3,1.5-4.6c0.4-1.6,0.6-3.3,0.6-5C376.1,20.5,375.7,17.1,374.7,14.1z"/>
	<rect x="342" y="71.1" class="st1" width="18.2" height="18.3"/>
	<rect x="62.3" y="75.7" class="st1" width="82.8" height="13.7"/>
</g>
</svg>
