<?xml version="1.0" encoding="utf-8"?>
<!-- Generator: Adobe Illustrator 23.0.3, SVG Export Plug-In . SVG Version: 6.00 Build 0)  -->
<svg version="1.1" id="레이어_1" xmlns="http://www.w3.org/2000/svg" xmlns:xlink="http://www.w3.org/1999/xlink" x="0px"
	 y="0px" viewBox="0 0 438.42 355.77" style="enable-background:new 0 0 438.42 355.77;" xml:space="preserve">
<style type="text/css">
	.st0{fill:#38D430;}
	.st1{fill:#453C7B;}
</style>
<g>
	<path class="st0" d="M0.31,282.88v-4.21c0-1.93,0.52-2.99,1.93-3.97l3.74-2.68c0.78-0.56,1.15-1.32,1.15-2.26
		c0-1.39-0.59-2.12-1.86-2.12s-1.86,0.75-1.86,2.21h-3.1c0-3.55,1.98-5.08,4.96-5.08s4.99,1.53,4.99,4.99
		c0,2.16-0.75,3.65-2.28,4.68l-3.57,2.47c-0.68,0.47-1.01,1.01-1.01,1.91v1.22h6.87v2.85H0.31z"/>
	<path class="st0" d="M22.06,269.31v9.29c0,2.73-1.76,4.49-4.96,4.49c-3.22,0-4.99-1.76-4.99-4.49v-9.29c0-2.78,1.76-4.54,4.99-4.54
		C20.29,264.77,22.06,266.54,22.06,269.31z M18.95,278.37v-8.84c0-1.2-0.73-1.88-1.86-1.88c-1.18,0-1.86,0.68-1.86,1.88v8.84
		c0,1.22,0.68,1.88,1.86,1.88C18.23,280.25,18.95,279.59,18.95,278.37z"/>
	<path class="st0" d="M28.52,282.88h-3.1v-15h-1.76v-2.87h4.87V282.88z"/>
	<path class="st0" d="M36.54,276.82c-2.99,0-4.66-1.69-4.66-4.52v-2.99c0-2.87,1.76-4.54,4.99-4.54c3.2,0,4.96,1.67,4.96,4.54v9.17
		c0,2.96-1.88,4.61-4.96,4.61c-2.99,0-4.75-1.6-4.87-4.49h3.08c0.07,1.18,0.61,1.65,1.79,1.65c1.2,0,1.86-0.66,1.86-1.98v-2.33
		C38.26,276.49,37.39,276.82,36.54,276.82z M36.87,273.95c1.13,0,1.86-0.66,1.86-1.76v-2.66c0-1.2-0.66-1.88-1.86-1.88
		c-1.22,0-1.86,0.68-1.86,1.88v2.4C35.01,273.24,35.65,273.95,36.87,273.95z"/>
	<path class="st0" d="M52.66,265.38h2.92c0,1.05-0.13,2.04-0.35,2.99c1.32,1.67,3.27,3.03,5.4,3.91l-1.56,2.26
		c-1.76-0.81-3.54-2.04-4.9-3.43c-0.86,1.58-2.07,2.9-3.49,3.82l-2.15-1.82C51.14,271.53,52.66,268.87,52.66,265.38z M66.5,282.16
		v2.2H50.28v-5.51h12.9v-1.14h-12.9v-2.22h15.8V281H53.21v1.16H66.5z M66.08,265.38v9.36h-2.9v-9.36H66.08z"/>
	<path class="st0" d="M78.26,280.91v2.61h-8.99v-2.61h1.32v-11.21h2.64v11.21h0.83l0.79-11.21h2.68c-0.31,3.73-0.55,7.45-0.84,11.21
		H78.26z M78.13,265.69v2.66h-8.68v-2.66H78.13z M85.86,265.38v18.98h-2.75v-9.07h-1.47v8.86h-2.72v-18.68h2.72v7.16h1.47v-7.25
		H85.86z"/>
	<path class="st0" d="M99.93,265.69v10.44H89.78v-10.44h2.79v2.86h4.59v-2.86H99.93z M105.79,277.84v6.72h-2.92v-4.11h-12.9v-2.62
		H105.79z M92.57,273.7h4.59v-2.77h-4.59V273.7z M108.25,269.71v2.77h-2.46v4.42h-2.92v-11.51h2.92v4.33H108.25z"/>
	<path class="st0" d="M121.57,273.88v2.33h-11.47v-6.44h7.25v-1.76h-7.25v-2.33h10.06v6.37h-7.25v1.82H121.57z M126.12,277.62v6.64
		h-15.6v-6.64H126.12z M113.42,281.9h9.78v-1.93h-9.78V281.9z M128.58,269.62v2.77h-2.46v4.48h-2.92v-11.49h2.92v4.24H128.58z"/>
	<path class="st0" d="M142.8,280.98v2.66h-13.1v-2.66h4.9v-2.48h2.9v2.48H142.8z M141.93,266.48v2.4h-11.91v-2.4h4.44v-1.82h3.01
		v1.82H141.93z M141.29,273.73c0,2.55-2.06,4.24-5.14,4.24h-0.31c-3.03,0-5.1-1.69-5.1-4.24c0-2.51,2.07-4.22,5.1-4.22h0.31
		C139.22,269.51,141.29,271.22,141.29,273.73z M138.43,273.73c0-1.14-0.95-1.96-2.29-1.96h-0.31c-1.34,0-2.26,0.81-2.26,1.96
		c0,1.16,0.92,1.96,2.26,1.96h0.31C137.49,275.68,138.43,274.89,138.43,273.73z M146.85,265.38v18.98h-2.9v-18.98H146.85z"/>
	<path class="st0" d="M153.82,268.81h-3.43v-3.11h3.43V268.81z M153.72,284.3h-3.23v-13.81h3.23V284.3z"/>
	<path class="st0" d="M167,274.38v9.92h-3.21v-9.24c0-1.14-0.61-1.87-1.82-1.87c-1.26,0-2.04,0.97-2.04,2.38v8.73h-3.21v-13.81h2.87
		l0.22,1.17c0.61-0.85,1.82-1.39,3.06-1.39C165.49,270.27,167,271.95,167,274.38z"/>
	<path class="st0" d="M170.15,268.17v-2.48h10.19v2.48h-3.82c-0.04,0.73-0.15,1.45-0.33,2.13c1.23,1.82,3.25,3.54,5.25,4.68
		c-0.62,0.68-1.19,1.38-1.82,2.06c-1.58-0.97-3.23-2.35-4.48-3.84c-0.88,1.76-2.13,3.23-3.58,4.28l-2.24-1.78
		c2.48-1.63,4.04-4.22,4.35-7.54H170.15z M170.76,284.25v-6.04h2.92v3.38h13.29v2.66H170.76z M183.66,269.75v-4.37h2.9v14.17h-2.9
		v-7.25h-3.69v-2.55H183.66z"/>
	<path class="st0" d="M191.11,275.59l-1.36-2.37c3.32-0.59,6.15-2.33,7.56-4.88h-6.64v-2.66H207v2.66h-6.39
		c-0.18,0.4-0.35,0.79-0.57,1.19c2,1.6,5.01,2.75,7.89,3.16l-1.27,2.46c-2.92-0.46-6.06-1.76-8.2-3.52
		C196.54,273.66,193.86,275.07,191.11,275.59z M207.92,277.13v2.68h-7.54v4.75h-3.1v-4.75h-7.54v-2.68H207.92z"/>
	<path class="st0" d="M217.01,273.39h1.51l-2.29,9.06h-1.51L217.01,273.39z"/>
	<path class="st1" d="M224.97,284.14v-4.35c0-1.99,0.54-3.09,1.99-4.11l3.87-2.77c0.8-0.58,1.19-1.36,1.19-2.33
		c0-1.43-0.61-2.19-1.92-2.19c-1.31,0-1.92,0.78-1.92,2.29h-3.21c0-3.67,2.04-5.25,5.13-5.25s5.16,1.58,5.16,5.16
		c0,2.24-0.78,3.77-2.36,4.84l-3.7,2.55c-0.71,0.49-1.05,1.05-1.05,1.97v1.26h7.1v2.94H224.97z"/>
	<path class="st1" d="M247.23,270.11v9.61c0,2.82-1.82,4.65-5.13,4.65c-3.33,0-5.16-1.82-5.16-4.65v-9.61
		c0-2.87,1.82-4.69,5.16-4.69C245.4,265.41,247.23,267.24,247.23,270.11z M244.02,279.47v-9.15c0-1.24-0.75-1.95-1.92-1.95
		c-1.22,0-1.92,0.71-1.92,1.95v9.15c0,1.26,0.71,1.95,1.92,1.95C243.26,281.42,244.02,280.74,244.02,279.47z"/>
	<path class="st1" d="M253.67,284.14h-3.21v-15.52h-1.82v-2.97h5.03V284.14z"/>
	<path class="st1" d="M261.72,277.87c-3.09,0-4.82-1.75-4.82-4.67v-3.09c0-2.97,1.82-4.69,5.16-4.69c3.31,0,5.13,1.73,5.13,4.69
		v9.49c0,3.06-1.95,4.77-5.13,4.77c-3.09,0-4.91-1.65-5.03-4.65h3.19c0.07,1.22,0.63,1.7,1.85,1.7c1.24,0,1.92-0.68,1.92-2.04v-2.41
		C263.5,277.53,262.6,277.87,261.72,277.87z M262.06,274.9c1.17,0,1.92-0.68,1.92-1.82v-2.75c0-1.24-0.68-1.95-1.92-1.95
		c-1.26,0-1.92,0.71-1.92,1.95v2.48C260.14,274.17,260.8,274.9,262.06,274.9z"/>
	<path class="st1" d="M273.01,284.82h-3.7v-3.53h3.7V284.82z"/>
	<path class="st1" d="M281.6,275.36h-2.99v-9.7h9.27v2.97h-6.06v3.65c0.61-0.49,1.51-0.8,2.43-0.8c2.7,0,4.06,1.48,4.06,3.96v4.04
		c0,3.02-1.65,4.89-5.01,4.89c-3.41,0-5.28-1.82-5.28-5.23h3.24c0,1.68,0.78,2.29,2.04,2.29c1.17,0,1.8-0.56,1.8-1.95v-3.45
		c0-1.12-0.51-1.58-1.53-1.58C282.77,274.44,282.09,274.83,281.6,275.36z"/>
	<path class="st1" d="M293.91,284.82h-3.7v-3.53h3.7V284.82z"/>
	<path class="st1" d="M309.8,277.43v2.63c0,2.72-1.82,4.31-5.38,4.31s-5.37-1.58-5.37-4.31v-1.43h3.23v1.09
		c0,1.24,0.78,1.7,2.14,1.7c1.36,0,2.14-0.46,2.14-1.7v-2.07c0-1.14-0.66-1.7-1.92-1.7h-2.04v-2.99h1.95c1.07,0,1.68-0.56,1.68-1.58
		v-1.39c0-1.02-0.66-1.61-1.87-1.61c-1.19,0-1.85,0.58-1.85,1.61v0.68h-3.21v-1.14c0-2.72,2.09-4.11,5.06-4.11
		c2.97,0,5.11,1.39,5.11,4.11v1.95c0,1.39-0.71,2.38-1.82,2.89C309.1,274.78,309.8,275.95,309.8,277.43z"/>
	<path class="st1" d="M316.25,284.14h-3.21v-15.52h-1.82v-2.97h5.03V284.14z"/>
	<path class="st1" d="M323.5,284.82h-3.7v-3.53h3.7V284.82z"/>
	<path class="st1" d="M325.21,272.76h18.17v2.57h-18.17V272.76z M342.46,271.88h-2.92v-3.54h-13.4v-2.66h16.32V271.88z
		 M342.46,276.87v7.38h-16.32v-7.38H342.46z M329.06,281.77h10.48v-2.42h-10.48V281.77z"/>
	<path class="st1" d="M355.01,273.42l2.7,0.94c-0.81,2.83-3.16,3.84-5.65,2.68l-2.2-1.01c-1.14-0.55-2.04-0.15-2.48,1.1l-2.7-0.92
		c0.94-2.88,3.19-4.04,5.87-2.79l2.18,1.01C353.74,274.91,354.62,274.65,355.01,273.42z"/>
	<path class="st1" d="M364.28,268.38c-1.26,0-1.92,0.66-1.92,1.95v2.36c0.66-0.54,1.8-0.88,2.82-0.88c2.75,0,4.23,1.48,4.23,4.13
		v3.77c0,2.82-1.82,4.65-5.13,4.65c-3.33,0-5.16-1.82-5.16-4.65v-9.61c0-3.09,1.82-4.69,5.16-4.69c3.19,0,4.89,1.68,4.91,4.65h-3.21
		C365.96,268.97,365.4,268.38,364.28,268.38z M366.2,279.47v-2.97c0-1.19-0.51-1.7-1.58-1.7c-1.36,0-2.26,0.75-2.26,1.92v2.75
		c0,1.26,0.58,1.95,1.92,1.95C365.57,281.42,366.2,280.74,366.2,279.47z"/>
	<path class="st1" d="M375.01,284.82h-3.7v-3.53h3.7V284.82z"/>
	<path class="st1" d="M380.27,284.14v-4.35c0-1.99,0.54-3.09,1.99-4.11l3.87-2.77c0.8-0.58,1.19-1.36,1.19-2.33
		c0-1.43-0.61-2.19-1.92-2.19s-1.92,0.78-1.92,2.29h-3.21c0-3.67,2.04-5.25,5.13-5.25c3.09,0,5.16,1.58,5.16,5.16
		c0,2.24-0.78,3.77-2.36,4.84l-3.7,2.55c-0.71,0.49-1.05,1.05-1.05,1.97v1.26h7.1v2.94H380.27z"/>
	<path class="st1" d="M396.25,284.82h-3.7v-3.53h3.7V284.82z"/>
	<path class="st1" d="M419.46,280.98v2.66h-18.17v-2.66h7.51v-2.66h3.08v2.66H419.46z M418.73,275.05v2.53h-16.52v-11.89h16.33v2.53
		h-13.4v2.11h13.4v2.48h-13.4v2.24H418.73z"/>
	<path class="st0" d="M7.38,303.35c-0.07,0.55-0.15,1.1-0.29,1.63c1.21,1.71,2.97,3.25,4.97,4.28l-1.74,2.11
		c-1.63-0.92-3.16-2.2-4.35-3.6c-0.94,1.67-2.29,3.03-3.89,4.04c-0.7-0.62-1.41-1.21-2.09-1.85c2.53-1.52,4.09-3.67,4.5-6.61H0.84
		v-2.48h10.3v2.48H7.38z M12.44,319.75H5.82c-3.03,0-4.79-1.36-4.79-3.74c0-2.22,1.76-3.78,4.79-3.78h6.61
		c3.05,0,4.81,1.56,4.81,3.78C17.25,318.38,15.49,319.75,12.44,319.75z M5.82,317.29h6.15c1.43,0,2.29-0.35,2.29-1.27
		c0-0.97-0.86-1.32-2.29-1.32H6.33c-1.47,0-2.29,0.33-2.29,1.32C4.04,316.78,4.68,317.29,5.82,317.29z M19.31,304.72v2.77h-2.46
		v4.33h-2.92v-11.25h2.92v4.15H19.31z"/>
	<path class="st0" d="M21.01,311.88l-1.78-2.26c4.33-1.54,7.29-4.92,8.04-9.16l3.03,0.51c-0.15,1.01-0.46,2-0.88,2.94
		c2.02,2.35,4.94,4.13,8.2,4.97l-1.58,2.35c-3.12-0.84-5.95-2.59-8.04-4.79C26.24,308.91,23.71,310.89,21.01,311.88z M37.51,316.14
		v2.68H19.34v-2.68h7.51v-5.23h3.08v5.23H37.51z"/>
	<path class="st0" d="M44.26,308.58h1.51l-2.29,9.06h-1.51L44.26,308.58z"/>
	<path class="st1" d="M51.2,303.35v-2.48H61.4v2.48h-3.82c-0.04,0.73-0.15,1.45-0.33,2.13c1.23,1.82,3.25,3.54,5.25,4.68
		c-0.62,0.68-1.19,1.38-1.82,2.06c-1.58-0.97-3.23-2.35-4.48-3.84c-0.88,1.76-2.13,3.23-3.58,4.28l-2.24-1.78
		c2.48-1.63,4.04-4.22,4.35-7.54H51.2z M51.82,319.44v-6.04h2.92v3.38h13.29v2.66H51.82z M64.71,304.94v-4.37h2.9v14.17h-2.9v-7.25
		h-3.69v-2.55H64.71z"/>
	<path class="st1" d="M71.07,310.78l-1.36-2.37c3.32-0.59,6.15-2.33,7.56-4.88h-6.64v-2.66h16.32v2.66h-6.39
		c-0.18,0.4-0.35,0.79-0.57,1.19c2,1.6,5.01,2.75,7.89,3.16l-1.27,2.46c-2.92-0.46-6.06-1.76-8.2-3.52
		C76.5,308.85,73.81,310.25,71.07,310.78z M87.88,312.32V315h-7.54v4.75h-3.1V315h-7.54v-2.68H87.88z"/>
	<path class="st1" d="M100.51,301.55v2.37H89.05v-2.37h4.17v-1.71h2.92v1.71H100.51z M99.68,308.85c0,2.46-2.07,4.22-4.97,4.22
		c-2.88,0-4.94-1.76-4.94-4.22c0-2.48,2.06-4.24,4.94-4.24C97.61,304.61,99.68,306.36,99.68,308.85z M106.07,316.78v2.66h-16v-5.67
		h2.9v3.01H106.07z M96.89,308.85c0-1.1-0.81-2-2.18-2c-1.38,0-2.15,0.9-2.15,2c0,1.08,0.77,1.93,2.15,1.93
		C96.08,310.78,96.89,309.92,96.89,308.85z M108.14,305.97v2.77h-2.46v6.09h-2.92v-14.26h2.92v5.41H108.14z"/>
	<path class="st1" d="M108.17,311.97v-2.4h7.56v-1.52h-1.87c-3.21,0-4.97-1.32-4.97-3.74c0-2.24,1.76-3.76,4.97-3.76h6.81
		c3.21,0,4.94,1.52,4.94,3.76c0,2.42-1.74,3.74-4.94,3.74h-2.02v1.52h7.69v2.4H108.17z M109.09,315.81v-2.4h16.32v6.33h-2.92v-3.93
		H109.09z M120.65,302.96h-6.77c-1.32,0-2.02,0.55-2.02,1.36c0,0.79,0.62,1.36,2.02,1.36h6.77c1.38,0,1.98-0.57,1.98-1.36
		C122.62,303.51,122.03,302.96,120.65,302.96z"/>
	<path class="st1" d="M137.9,300.87v17.84h-9.78v-17.84H137.9z M130.93,316.08h4.15v-12.55h-4.15V316.08z M144.14,310.5v9.05h-2.92
		v-18.98h2.92v7.14h2.46v2.79H144.14z"/>
	<path class="st1" d="M146.63,307.75h18.17v2.2h-18.17V307.75z M151.48,300.56h8.26c2.59,0,4.33,1.1,4.33,3.16
		c0,2.07-1.74,3.19-4.33,3.19h-8.26c-2.62,0-4.13-1.12-4.13-3.19C147.35,301.66,148.87,300.56,151.48,300.56z M164.07,317.26v2.18
		h-16.52v-5.36h13.4v-0.97h-13.4v-2.18h16.32v5.32h-13.4v1.01H164.07z M151.53,304.7h8.26c0.77,0,1.34-0.35,1.34-0.97
		c0-0.59-0.57-0.92-1.34-0.92h-8.26c-0.77,0-1.25,0.33-1.25,0.92C150.27,304.34,150.76,304.7,151.53,304.7z"/>
	<path class="st1" d="M170.56,300.87h9.18v1.47c0,4.75-3.84,8.09-8.99,8.66l-1.12-2.37c3.82-0.42,6.61-2.24,7.16-5.21h-6.24V300.87z
		 M182.27,319.75h-6.39c-3.05,0-5.01-1.58-5.01-3.95c0-2.4,1.96-3.98,5.01-3.98h6.39c3.05,0,5.01,1.58,5.01,3.98
		C187.28,318.16,185.33,319.75,182.27,319.75z M175.88,317.29h6.39c1.23,0,2.02-0.59,2.02-1.49c0-0.9-0.79-1.52-2.02-1.52h-6.39
		c-1.23,0-2.02,0.62-2.02,1.52C173.86,316.69,174.65,317.29,175.88,317.29z M186.98,300.56v10.68h-2.9v-1.96h-4.04v-2.46h4.04v-1.71
		h-3.82v-2.42h3.82v-2.13H186.98z"/>
	<path class="st1" d="M189.9,300.87h9.29v4.5c0,5.71-3.03,10.61-8.24,13.36l-2-2.11c4.64-2.26,7.32-6.35,7.32-10.96v-2.13h-6.37
		V300.87z M206.21,300.56v18.98h-2.9v-18.98H206.21z"/>
	<path class="st1" d="M209.02,303.35v-2.48h10.19v2.48h-3.82c-0.04,0.73-0.15,1.45-0.33,2.13c1.23,1.82,3.25,3.54,5.25,4.68
		c-0.62,0.68-1.19,1.38-1.82,2.06c-1.58-0.97-3.23-2.35-4.48-3.84c-0.88,1.76-2.13,3.23-3.58,4.28l-2.24-1.78
		c2.48-1.63,4.04-4.22,4.35-7.54H209.02z M209.64,319.44v-6.04h2.92v3.38h13.29v2.66H209.64z M222.54,304.94v-4.37h2.9v14.17h-2.9
		v-7.25h-3.69v-2.55H222.54z"/>
	<path class="st1" d="M231.73,305.62c0-2.9,2.24-5.05,5.36-5.05c3.12,0,5.36,2.15,5.36,5.05c0,2.9-2.24,5.05-5.36,5.05
		C233.97,310.67,231.73,308.52,231.73,305.62z M238.26,317.09h3.95l0.84-2.33h2.94l-0.83,2.33h3.34v2.35h-16.11v-2.35h2.97v-2.33
		h2.9V317.09z M248.28,311.66v2.4h-15.69v-2.4H248.28z M234.61,305.62c0,1.45,0.97,2.59,2.48,2.59c1.49,0,2.48-1.14,2.48-2.59
		c0-1.45-0.99-2.59-2.48-2.59C235.58,303.03,234.61,304.17,234.61,305.62z M250.71,304.19v2.77h-2.46v3.98h-2.92v-10.37h2.92v3.63
		H250.71z"/>
	<path class="st1" d="M267.47,308.69v2.44h-12.74v-2.44h3.03v-3.45h2.88v3.45H267.47z M265.91,307.49h-2.92v-4.17h-7.54v-2.44h10.46
		V307.49z M266.96,319.75h-6.42c-2.99,0-4.9-1.23-4.9-3.63c0-2.24,1.91-3.69,4.9-3.69h6.42c2.99,0,4.9,1.45,4.9,3.69
		C271.86,318.52,269.95,319.75,266.96,319.75z M260.55,317.37h6.42c1.12,0,1.91-0.46,1.91-1.25c0-0.83-0.79-1.3-1.91-1.3h-6.42
		c-1.12,0-1.89,0.46-1.89,1.3C258.66,316.91,259.43,317.37,260.55,317.37z M273.93,304.81v2.77h-2.46v4.18h-2.92v-11.18h2.92v4.24
		H273.93z"/>
	<path class="st1" d="M281.23,303.35c-0.07,0.55-0.15,1.1-0.29,1.63c1.21,1.71,2.97,3.25,4.97,4.28l-1.74,2.11
		c-1.63-0.92-3.16-2.2-4.35-3.6c-0.94,1.67-2.29,3.03-3.89,4.04c-0.7-0.62-1.41-1.21-2.09-1.85c2.53-1.52,4.09-3.67,4.5-6.61h-3.67
		v-2.48h10.3v2.48H281.23z M286.28,319.75h-6.61c-3.03,0-4.79-1.36-4.79-3.74c0-2.22,1.76-3.78,4.79-3.78h6.61
		c3.05,0,4.81,1.56,4.81,3.78C291.09,318.38,289.33,319.75,286.28,319.75z M279.67,317.29h6.15c1.43,0,2.29-0.35,2.29-1.27
		c0-0.97-0.86-1.32-2.29-1.32h-5.65c-1.47,0-2.29,0.33-2.29,1.32C277.89,316.78,278.52,317.29,279.67,317.29z M293.16,304.72v2.77
		h-2.46v4.33h-2.92v-11.25h2.92v4.15H293.16z"/>
	<path class="st1" d="M307.6,315.18c2,1.19,4.86,1.78,7.45,2l-0.84,2.26c-2.77-0.2-6-1.12-8.26-2.55c-2.02,1.6-4.7,2.44-7.21,2.59
		l-1.05-2.26c2.86-0.15,5.49-0.99,7.21-2.73h-6.39v-2.37h6.35v-1.67h2.97v1.67h6.39v2.37h-6.17
		C307.91,314.74,307.76,314.96,307.6,315.18z M307.8,300.87v8.77h-9.91v-8.77H307.8z M300.68,307.22h4.33v-3.93h-4.33V307.22z
		 M314.31,300.56v10.17h-2.9v-10.17H314.31z"/>
	<path class="st1" d="M321.11,303.35v-2.48h10.19v2.48h-3.82c-0.04,0.73-0.15,1.45-0.33,2.13c1.23,1.82,3.25,3.54,5.25,4.68
		c-0.62,0.68-1.19,1.38-1.82,2.06c-1.58-0.97-3.23-2.35-4.48-3.84c-0.88,1.76-2.13,3.23-3.58,4.28l-2.24-1.78
		c2.48-1.63,4.04-4.22,4.35-7.54H321.11z M321.72,319.44v-6.04h2.92v3.38h13.29v2.66H321.72z M334.62,304.94v-4.37h2.9v14.17h-2.9
		v-7.25h-3.69v-2.55H334.62z"/>
	<path class="st1" d="M340.97,310.78l-1.36-2.37c3.32-0.59,6.15-2.33,7.56-4.88h-6.64v-2.66h16.32v2.66h-6.39
		c-0.18,0.4-0.35,0.79-0.57,1.19c2,1.6,5.01,2.75,7.89,3.16l-1.27,2.46c-2.92-0.46-6.06-1.76-8.2-3.52
		C346.4,308.85,343.72,310.25,340.97,310.78z M357.78,312.32V315h-7.54v4.75h-3.1V315h-7.54v-2.68H357.78z"/>
	<path class="st1" d="M361.21,318.98l-2.68-1.27c2.81-5.05,3.69-10.94,3.69-16.94h2.92c0,2.09-0.11,4.24-0.37,6.39
		c0.97,3.56,2.99,7.29,5.6,9.8l-2.2,1.87c-1.78-1.76-3.27-4.13-4.35-6.57C363.21,314.63,362.36,316.91,361.21,318.98z
		 M375.98,300.56v18.98h-2.9v-18.98H375.98z"/>
	<path class="st1" d="M382.27,305.27c0-2.75,2.2-4.7,5.18-4.7c3.01,0,5.23,1.96,5.23,4.7c0,2.72-2.22,4.68-5.23,4.68
		C384.47,309.95,382.27,307.99,382.27,305.27z M399.61,317.35v2.2h-16.21v-5.51h12.9v-1.14h-12.9v-2.22h15.8v5.51h-12.88v1.16
		H399.61z M385.15,305.27c0,1.34,0.97,2.24,2.31,2.24c1.34,0,2.35-0.9,2.35-2.24c0-1.34-1.01-2.24-2.35-2.24
		C386.12,303.03,385.15,303.93,385.15,305.27z M399.19,300.56v9.36h-2.9v-9.36H399.19z"/>
	<path class="st1" d="M413.85,308.76v2.33h-5.93v2.79H405v-2.79h-3.71v-2.33H413.85z M408.51,307.9h-2.26
		c-2.79,0-4.44-1.43-4.44-3.67c0-2.22,1.65-3.67,4.44-3.67h2.26c2.79,0,4.44,1.45,4.44,3.67C412.95,306.48,411.3,307.9,408.51,307.9
		z M418.84,316.85v2.59h-16.21v-5.16h2.92v2.57H418.84z M406.25,305.6h2.26c0.97,0,1.65-0.48,1.65-1.36s-0.68-1.34-1.65-1.34h-2.26
		c-0.99,0-1.65,0.46-1.65,1.34S405.26,305.6,406.25,305.6z M415.52,314.16h-4.35v-2.24h4.35v-11.36h2.9v14.72h-2.9V314.16z"/>
	<path class="st0" d="M1.47,345.97l-1.36-2.37c3.32-0.59,6.15-2.33,7.56-4.88H1.03v-2.66h16.32v2.66h-6.39
		c-0.18,0.4-0.35,0.79-0.57,1.19c2,1.6,5.01,2.75,7.89,3.16l-1.27,2.46c-2.92-0.46-6.06-1.76-8.2-3.52
		C6.9,344.03,4.22,345.44,1.47,345.97z M18.28,347.51v2.68h-7.54v4.75h-3.1v-4.75H0.11v-2.68H18.28z"/>
	<path class="st0" d="M26.99,339.79c-0.07,0.33-0.18,0.66-0.29,0.99c1.25,1.74,3.19,3.36,5.25,4.37c-0.55,0.75-1.12,1.47-1.71,2.22
		c-1.76-0.95-3.54-2.4-4.83-3.93c-1.05,1.69-2.48,3.14-4.09,4.09l-2.18-1.98c2.42-1.3,4.11-3.43,4.83-5.76h-3.91v-2.61h4v-2.15h2.94
		v2.15h4.13v2.61H26.99z M32.33,351.35v2.66H19.34v-2.66h4.7v-4.17h2.92v4.17H32.33z M36.48,335.75v18.98h-2.9v-18.98H36.48z"/>
	<path class="st0" d="M44.07,343.76h1.51l-2.29,9.06h-1.51L44.07,343.76z"/>
	<path class="st1" d="M59.5,336.56v2.37h-9.18v-2.37h3.14v-1.54h2.86v1.54H59.5z M59.19,343.35c0,2.31-1.82,3.78-4.24,3.78
		c-2.44,0-4.24-1.47-4.24-3.78c0-2.33,1.8-3.8,4.24-3.8C57.37,339.55,59.19,341.02,59.19,343.35z M62.97,354.93h-7.25
		c-2.86,0-4.59-1.21-4.59-3.49c0-2.11,1.74-3.52,4.59-3.52h7.25c2.83,0,4.57,1.41,4.57,3.52C67.54,353.72,65.81,354.93,62.97,354.93
		z M56.51,343.35c0-0.9-0.62-1.58-1.56-1.58c-0.95,0-1.56,0.68-1.56,1.58c0,0.88,0.61,1.54,1.56,1.54
		C55.9,344.89,56.51,344.23,56.51,343.35z M55.72,352.54h6.7c1.32,0,2.13-0.24,2.13-1.1c0-0.86-0.81-1.12-2.13-1.12h-6.17
		c-1.36,0-2.13,0.26-2.13,1.12C54.12,352.1,54.71,352.54,55.72,352.54z M67.23,335.75v11.45h-2.77v-4.59h-1.65v4.59h-2.7v-11.36h2.7
		v4.22h1.65v-4.31H67.23z"/>
	<path class="st1" d="M76.49,338.54c-0.07,0.55-0.15,1.1-0.29,1.63c1.19,1.71,2.99,3.25,4.99,4.28l-1.74,2.11
		c-1.63-0.92-3.16-2.18-4.35-3.58c-0.92,1.65-2.22,3.03-3.78,4.02l-2.11-1.82c2.48-1.52,4.02-3.69,4.42-6.64h-3.58v-2.48h10.19v2.48
		H76.49z M81.96,354.93h-6.81c-3.03,0-4.79-1.36-4.79-3.74c0-2.22,1.76-3.78,4.79-3.78h6.81c3.08,0,4.81,1.56,4.81,3.78
		C86.77,353.57,85.04,354.93,81.96,354.93z M75.15,352.47h6.33c1.45,0,2.31-0.35,2.31-1.27c0-0.97-0.86-1.32-2.31-1.32h-5.82
		c-1.45,0-2.31,0.33-2.31,1.32C73.35,351.97,74.01,352.47,75.15,352.47z M86.46,335.75v11.14h-2.9v-4.59h-3.69v-2.51h3.69v-4.04
		H86.46z"/>
	<path class="st1" d="M88.78,341.68v-0.81c0-2.97,2.24-5.12,5.36-5.12c3.12,0,5.36,2.15,5.36,5.12v0.81c0,2.94-2.24,5.12-5.36,5.12
		C91.02,346.8,88.78,344.63,88.78,341.68z M105.69,351.97v2.66h-16v-6.24h2.9v3.58H105.69z M91.65,340.87v0.81
		c0,1.49,0.97,2.66,2.48,2.66c1.49,0,2.48-1.16,2.48-2.66v-0.81c0-1.52-0.99-2.66-2.48-2.66C92.62,338.21,91.65,339.35,91.65,340.87
		z M107.76,340.96v2.77h-2.46v6.09h-2.92v-14.06h2.92v5.21H107.76z"/>
	<path class="st1" d="M108.51,338.54v-2.48h10.19v2.48h-3.82c-0.04,0.73-0.15,1.45-0.33,2.13c1.23,1.82,3.25,3.54,5.25,4.68
		c-0.62,0.68-1.19,1.38-1.82,2.06c-1.58-0.97-3.23-2.35-4.48-3.84c-0.88,1.76-2.13,3.23-3.58,4.28l-2.24-1.78
		c2.48-1.63,4.04-4.22,4.35-7.54H108.51z M109.13,354.62v-6.04h2.92v3.38h13.29v2.66H109.13z M122.02,340.12v-4.37h2.9v14.17h-2.9
		v-7.25h-3.69v-2.55H122.02z"/>
	<path class="st1" d="M145.19,347.73v2.66h-7.54v4.55h-3.1v-4.55h-7.54v-2.66H145.19z M144.26,336.06v10.06h-16.33v-10.06h2.92v2.44
		h10.48v-2.44H144.26z M130.86,343.48h10.48v-2.37h-10.48V343.48z"/>
	<path class="st1" d="M146.18,355.77l-0.73-1.45c1.1-0.48,1.34-1.19,1.34-2.81v-1.1H150v1.32C150,354.16,148.77,355.5,146.18,355.77
		z"/>
	<g>
		<path class="st1" d="M155.93,338.54v-2.48h10.19v2.48h-3.82c-0.04,0.73-0.15,1.45-0.33,2.13c1.23,1.82,3.25,3.54,5.25,4.68
			c-0.62,0.68-1.19,1.38-1.82,2.06c-1.58-0.97-3.23-2.35-4.48-3.84c-0.88,1.76-2.13,3.23-3.58,4.28l-2.24-1.78
			c2.48-1.63,4.04-4.22,4.35-7.54H155.93z M156.54,354.62v-6.04h2.92v3.38h13.29v2.66H156.54z M169.44,340.12v-4.37h2.9v14.17h-2.9
			v-7.25h-3.69v-2.55H169.44z"/>
		<path class="st1" d="M175.8,345.97l-1.36-2.37c3.32-0.59,6.15-2.33,7.56-4.88h-6.64v-2.66h16.32v2.66h-6.39
			c-0.18,0.4-0.35,0.79-0.57,1.19c2,1.6,5.01,2.75,7.89,3.16l-1.27,2.46c-2.92-0.46-6.06-1.76-8.2-3.52
			C181.22,344.03,178.54,345.44,175.8,345.97z M192.6,347.51v2.68h-7.54v4.75h-3.1v-4.75h-7.54v-2.68H192.6z"/>
		<path class="st1" d="M196.04,354.16l-2.68-1.27c2.81-5.05,3.69-10.94,3.69-16.94h2.92c0,2.09-0.11,4.24-0.37,6.39
			c0.97,3.56,2.99,7.29,5.6,9.8l-2.2,1.87c-1.78-1.76-3.27-4.13-4.35-6.57C198.04,349.81,197.18,352.1,196.04,354.16z M210.8,335.75
			v18.98h-2.9v-18.98H210.8z"/>
	</g>
	<g>
		<path class="st1" d="M267.4,338.54v-2.48h10.19v2.48h-3.82c-0.04,0.73-0.15,1.45-0.33,2.13c1.23,1.82,3.25,3.54,5.25,4.68
			c-0.62,0.68-1.19,1.38-1.82,2.06c-1.58-0.97-3.23-2.35-4.48-3.84c-0.88,1.76-2.13,3.23-3.58,4.28l-2.24-1.78
			c2.48-1.63,4.04-4.22,4.35-7.54H267.4z M268.01,354.62v-6.04h2.92v3.38h13.29v2.66H268.01z M280.91,340.12v-4.37h2.9v14.17h-2.9
			v-7.25h-3.69v-2.55H280.91z"/>
		<path class="st1" d="M287.27,345.97l-1.36-2.37c3.32-0.59,6.15-2.33,7.56-4.88h-6.64v-2.66h16.32v2.66h-6.39
			c-0.18,0.4-0.35,0.79-0.57,1.19c2,1.6,5.01,2.75,7.89,3.16l-1.27,2.46c-2.92-0.46-6.06-1.76-8.2-3.52
			C292.69,344.03,290.01,345.44,287.27,345.97z M304.07,347.51v2.68h-7.54v4.75h-3.1v-4.75h-7.54v-2.68H304.07z"/>
		<path class="st1" d="M307.51,354.16l-2.68-1.27c2.81-5.05,3.69-10.94,3.69-16.94h2.92c0,2.09-0.11,4.24-0.37,6.39
			c0.97,3.56,2.99,7.29,5.6,9.8l-2.2,1.87c-1.78-1.76-3.27-4.13-4.35-6.57C309.51,349.81,308.65,352.1,307.51,354.16z
			 M322.27,335.75v18.98h-2.9v-18.98H322.27z"/>
	</g>
	<path class="st0" d="M218.05,345.97l-1.36-2.37c3.32-0.59,6.15-2.33,7.56-4.88h-6.64v-2.66h16.33v2.66h-6.39
		c-0.18,0.4-0.35,0.79-0.57,1.19c2,1.6,5.01,2.75,7.89,3.16l-1.27,2.46c-2.92-0.46-6.06-1.76-8.2-3.52
		C223.48,344.03,220.8,345.44,218.05,345.97z M234.86,347.51v2.68h-7.54v4.75h-3.1v-4.75h-7.54v-2.68H234.86z"/>
	<path class="st0" d="M248.66,344.85v2.57h-12.74v-2.57h3.03v-4h2.88v4H248.66z M247.1,343.44h-2.92v-4.86h-7.54v-2.53h10.46V343.44
		z M253.06,351.99v2.64h-16v-5.87h2.9v3.23H253.06z M255.12,340.98v2.77h-2.46v6.17h-2.92v-14.17h2.92v5.23H255.12z"/>
	<path class="st0" d="M260.65,343.76h1.51l-2.29,9.06h-1.51L260.65,343.76z"/>
	<path class="st1" d="M327.51,354.16l-2.68-1.27c2.81-5.05,3.69-10.94,3.69-16.94h2.92c0,2.09-0.11,4.24-0.37,6.39
		c0.97,3.56,2.99,7.29,5.6,9.8l-2.2,1.87c-1.78-1.76-3.27-4.13-4.35-6.57C329.51,349.81,328.65,352.1,327.51,354.16z M341.88,345.68
		v9.05h-2.92v-18.98h2.92v7.14h2.46v2.79H341.88z"/>
	<path class="st1" d="M357.46,351.35v2.66h-13.1v-2.66h4.9v-2.48h2.9v2.48H357.46z M356.58,336.85v2.39h-11.91v-2.39h4.44v-1.82
		h3.01v1.82H356.58z M355.94,344.1c0,2.55-2.06,4.24-5.14,4.24h-0.31c-3.03,0-5.1-1.69-5.1-4.24c0-2.5,2.07-4.22,5.1-4.22h0.31
		C353.88,339.88,355.94,341.6,355.94,344.1z M353.09,344.1c0-1.14-0.94-1.96-2.29-1.96h-0.31c-1.34,0-2.26,0.81-2.26,1.96
		c0,1.16,0.92,1.96,2.26,1.96h0.31C352.14,346.06,353.09,345.26,353.09,344.1z M361.5,335.75v18.98h-2.9v-18.98H361.5z"/>
	<path class="st1" d="M375.17,336.67v2.37H363.7v-2.37h4.17v-1.65h2.92v1.65H375.17z M369.59,347.86h-0.42
		c-2.68,0-4.75-1.63-4.75-4.11c0-2.46,2.06-4.06,4.75-4.06h0.42c2.68,0,4.75,1.6,4.75,4.06
		C374.34,346.23,372.27,347.86,369.59,347.86z M380.73,348.71v6.22h-2.9v-3.63h-13.1v-2.59H380.73z M369.18,345.55h0.42
		c1.14,0,1.95-0.75,1.95-1.8c0-1.03-0.81-1.8-1.95-1.8h-0.42c-1.19,0-1.96,0.77-1.96,1.8C367.22,344.8,367.99,345.55,369.18,345.55z
		 M380.73,335.75v12.11h-2.9v-1.8h-2.81v-2.4h2.81v-1.69h-2.81v-2.4h2.81v-3.82H380.73z"/>
	<path class="st1" d="M386.96,335.75h2.92c0,1.43-0.15,2.81-0.48,4.13c1.27,1.98,3.34,3.89,5.38,5.03l-1.74,2.18
		c-1.67-0.97-3.41-2.53-4.7-4.13c-0.88,1.85-2.13,3.43-3.67,4.55l-2.18-1.87C385.33,343.55,386.96,340.1,386.96,335.75z
		 M400.38,351.97v2.66h-16.21v-6.24h2.92v3.58H400.38z M399.96,335.75v14.06h-2.9v-14.06H399.96z"/>
	<path class="st1" d="M404.98,335.75h2.79c0,1.41-0.09,2.79-0.29,4.11c0.97,2.04,2.53,3.93,4.35,5.16l-1.85,1.85
		c-1.21-0.86-2.4-2.11-3.36-3.49c-0.59,1.63-1.43,3.05-2.57,4.18l-2.33-1.41C404.23,343.73,404.98,339.9,404.98,335.75z
		 M419.5,351.97v2.66H403.4v-6.24h2.92v3.58H419.5z M414.91,335.84v13.12h-2.7v-7.29h-2.81v-2.64h2.81v-3.19H414.91z M416.4,349.26
		v-13.51h2.79v13.51H416.4z"/>
	<path class="st1" d="M432.14,353.9h-10.13v-17.84h9.25v2.66h-6.33v4.55h6.13v2.66h-6.13v5.34h7.21V353.9z M435.52,345.9h-3.6v-2.79
		h3.6v-7.36h2.9v18.98h-2.9V345.9z"/>
</g>
<g>
	<g>
		<path class="st0" d="M31.68,221.55c5.79,0,11.55,0.5,17.23,1.5c12.21,2.14,23.95,1.69,34.9-1.35v-12.53
			c-8.74,2.84-17.94,3.67-27.37,2.45c-9.63-1.24-18.3-1.41-25.79-0.5l-0.9,0.11v-4.78h51.68v-26.91H11.06v11.66h51.78v4.18H11.26
			v28.21C18.08,222.23,24.91,221.55,31.68,221.55z M62.95,175.65h18.49V133H62.95V175.65z M40.08,175.26h20
			c-4.26-5.92-8.58-12.38-12.87-19.22c-4.68-7.45-7.05-14.21-7.05-20.08v-2.76H21.16v2.76c0,5.87-2.37,12.63-7.05,20.08
			c-4.3,6.85-8.63,13.31-12.87,19.22h20.01l4.91-6.61c1.69-2.27,3.03-4.3,4-6.05l0.7-1.26l0.7,1.26c0.98,1.76,2.28,3.8,3.87,6.07
			C36.96,170.87,38.51,173.06,40.08,175.26z"/>
	</g>
	<g>
		<path class="st0" d="M156.71,222.29h16.32V133h-16.32v29.95l-4.28,1.58V133h-16.32v73.29l-0.36,0.24
			c-0.68,0.45-1.5,0.78-2.42,0.96c-0.86,0.17-1.88,0.29-3.03,0.36l-0.86,0.05l0.5-56.49h-15.62l-0.5,56.63h-4.17l-0.5-56.63H94.44
			l0.5,56.63h-4.26v13.74h32.56c2.27,0,4.45-0.08,6.47-0.24c1.91-0.16,3.66-0.7,5.2-1.62l1.22-0.73v3.09h16.32v-42.93l4.28-1.58
			V222.29z M91.06,147.24h41.46V133.3H91.06V147.24z"/>
	</g>
	<g>
		<path class="st0" d="M233.24,222.49h18.49v-37.31h-70.18v13.74h51.68V222.49z M233.14,181.4h18.49v-16l0.53-0.19
			c2.6-0.96,5.29-1.35,8-1.19c2.29,0.14,4.19-0.53,5.83-2.06v-14.8c-2.12,1.12-4.33,1.68-6.57,1.68c-2.44,0-4.7,0.35-6.72,1.05
			l-1.06,0.37V133h-18.49V181.4z M179.98,180.5h47.41V133.1h-18.49v9.5h-10.42v-9.5h-18.49V180.5z M208.89,166.86h-10.42v-10.61
			h10.42V166.86z"/>
	</g>
	<g>
		<path class="st0" d="M291.54,221.88c6.13,0,12.28,0.49,18.4,1.46c12.65,2.01,23.48,1.08,32.19-2.75l-0.09-32.94h-70.48v35.96
			C278.17,222.46,284.85,221.88,291.54,221.88z M314.49,210.24c-2.75,0-5.53-0.22-8.32-0.66c-5.5-0.87-10.57-0.92-15.09-0.15
			l-0.94,0.16V201h33.6l-0.12,8.41l-0.66,0.11C320.19,210,317.35,210.24,314.49,210.24z M323.34,183.87h18.49V165.5l0.53-0.19
			c2.6-0.96,5.29-1.35,8-1.19c2.29,0.14,4.19-0.53,5.83-2.06v-14.8c-2.12,1.12-4.33,1.68-6.57,1.68c-2.44,0-4.7,0.35-6.72,1.05
			l-1.06,0.37V133h-18.49v34.35l-0.57,0.17c-2.02,0.61-4.48,1.08-7.32,1.41c-2.81,0.33-5.19,0.5-7.07,0.5h-19.71v-4.48h28.91V133.3
			h-47.7v13.84h29.21v4.28h-28.91v31.76h36.92c3.05,0,5.82-0.15,8.22-0.44c2.4-0.29,4.75-0.77,7-1.41l1.02-0.29V183.87z"/>
	</g>
	<g>
		<path class="st0" d="M418.79,222.39h18.4V133h-18.4v73.26l-0.44,0.22c-0.74,0.37-2.18,0.72-4.39,1.07
			c-2.15,0.33-4.32,0.5-6.46,0.5h-11.2v-10.71l0.57-0.17c4.19-1.27,7.72-3.49,10.47-6.6c2.72-3.07,4.1-7.39,4.1-12.83v-11.29
			c0-2.99-0.43-5.64-1.28-7.88c-0.85-2.22-2.06-4.1-3.62-5.6l-1.44-1.38h8.42v-13.35h-17.23v-10.2H377.9v10.2h-18.52v13.35h10.01
			l-1.44,1.38c-1.56,1.49-2.79,3.38-3.67,5.61c-0.88,2.24-1.33,4.89-1.33,7.87v11.29c0,5.38,1.4,9.67,4.15,12.73
			c2.79,3.11,6.3,5.33,10.43,6.6l0.57,0.17v10.8h-17.43v13.74h46.23c2.72,0,5.01-0.15,6.8-0.44c1.79-0.29,3.14-0.59,4.02-0.9
			l1.07-0.38V222.39z M387.39,184.29c-1.5,0-2.87-0.49-4.07-1.47c-1.27-1.03-1.88-2.88-1.88-5.67v-8.71c0-2.79,0.62-4.64,1.88-5.67
			c1.2-0.97,2.57-1.47,4.07-1.47c1.43,0,2.72,0.44,3.82,1.31c1.17,0.93,1.74,2.84,1.74,5.83v8.71c0,2.92-0.57,4.8-1.73,5.77
			C390.12,183.83,388.83,184.29,387.39,184.29z"/>
	</g>
</g>
<g>
	<path class="st1" d="M118.73,69.68h17.69c1.75-3.82,2.87-7.22,3.33-10.12c0.49-3.05,0.73-8.1,0.73-15.02V0.1H66.44v13.84h55.45
		v31.4c0,5.41-0.23,10.2-0.7,14.25C120.77,63.22,119.95,66.61,118.73,69.68z"/>
	<g>
		<path class="st1" d="M213.87,89.39h16.71V0.1h-16.71v29.95l-4.28,1.58V0.1h-16.71v71.96l-0.55,0.18c-3,1-6.23,1.78-9.58,2.31
			c-3.36,0.53-6.15,0.8-8.29,0.8h-5.85V50.08h19.51V0.3H150.7v13.84h19.6v22.4H151v52.55h22.17c3.44,0,6.8-0.23,9.99-0.69l0,0
			c3.15-0.45,6.06-1.2,8.63-2.23l1.1-0.44v3.65h16.71V46.46l4.28-1.58V89.39z"/>
	</g>
	<g>
		<path class="st1" d="M296.45,89.39h18.39V0h-18.39v25.09l-0.51,0.2c-2.78,1.09-5.88,1.67-9.19,1.74
			c-2.89,0.06-5.39,0.59-7.43,1.57v15.16c2.25-1.13,4.86-1.7,7.82-1.65c3.24,0.03,5.98-0.46,8.17-1.46l1.14-0.52V89.39z
			 M273.44,89.39h19.19c-3.88-6.51-7.97-14.9-12.19-24.98c-4.51-10.77-6.8-19.42-6.8-25.71V0.1h-19.09v38.6
			c0,6.29-2.46,14.94-7.3,25.73c-4.52,10.06-8.78,18.45-12.67,24.96h19.59c1.32-2.35,2.9-5.36,4.7-8.96
			c1.89-3.78,3.41-7.22,4.52-10.22l0.79-2.12l0.73,2.14c1.04,3.06,2.43,6.5,4.13,10.22C270.65,83.96,272.13,86.96,273.44,89.39z"/>
	</g>
	<path class="st1" d="M374.7,14.11c-0.96-3-2.46-5.55-4.51-7.62c-2.05-2.08-4.69-3.68-7.92-4.8C359.04,0.56,355.15,0,350.59,0
		c-4.03,0-7.61,0.69-10.74,2.08c-3.14,1.39-5.79,3.28-7.97,5.69c-2.18,2.41-3.85,5.23-5,8.47c-1.16,3.23-1.73,6.67-1.73,10.3h19.21
		c0-3.37,0.56-6.01,1.68-7.92c1.12-1.91,2.64-2.87,4.55-2.87c2.64,0,4.37,0.83,5.2,2.47c0.82,1.65,1.24,3.93,1.24,6.83
		c0,1.19-0.2,2.59-0.59,4.21c-0.4,1.62-1.12,3.35-2.18,5.2l-7.53,12.87c-1.52,2.77-2.69,5.41-3.51,7.92
		c-0.83,2.51-1.24,4.69-1.24,6.53v2.97h18.22v-2.97c0-1.25,0.2-2.56,0.59-3.91c0.4-1.35,0.96-2.49,1.68-3.42l7.62-12.87
		c0.66-1.06,1.34-2.24,2.03-3.56c0.69-1.32,1.34-2.72,1.93-4.21c0.59-1.49,1.09-3.04,1.48-4.65c0.4-1.62,0.59-3.28,0.59-5
		C376.14,20.46,375.66,17.11,374.7,14.11z"/>
	<rect x="341.98" y="71.09" class="st1" width="18.22" height="18.3"/>
	<rect x="62.28" y="75.65" class="st1" width="82.75" height="13.74"/>
</g>
</svg>
