<?xml version="1.0" encoding="utf-8"?>
<!-- Generator: Adobe Illustrator 23.0.3, SVG Export Plug-In . SVG Version: 6.00 Build 0)  -->
<svg version="1.1" id="레이어_1" xmlns="http://www.w3.org/2000/svg" xmlns:xlink="http://www.w3.org/1999/xlink" x="0px"
	 y="0px" viewBox="0 0 1366 201.5" style="enable-background:new 0 0 1366 201.5;" xml:space="preserve">
<style type="text/css">
	.st0{fill:#38D430;}
	.st1{fill:#453C7B;}
</style>
<path class="st0" d="M871.19,73.42v-4.21c0-1.93,0.52-2.99,1.93-3.97l3.74-2.68c0.78-0.56,1.15-1.32,1.15-2.26
	c0-1.39-0.59-2.12-1.86-2.12s-1.86,0.75-1.86,2.21h-3.1c0-3.55,1.98-5.08,4.96-5.08c2.99,0,4.99,1.53,4.99,4.99
	c0,2.16-0.75,3.65-2.28,4.68l-3.57,2.47c-0.68,0.47-1.01,1.01-1.01,1.91v1.22h6.87v2.85H871.19z"/>
<path class="st0" d="M892.94,59.85v9.29c0,2.73-1.76,4.49-4.96,4.49c-3.22,0-4.99-1.76-4.99-4.49v-9.29c0-2.78,1.76-4.54,4.99-4.54
	C891.18,55.31,892.94,57.08,892.94,59.85z M889.84,68.91v-8.84c0-1.2-0.73-1.88-1.86-1.88c-1.18,0-1.86,0.68-1.86,1.88v8.84
	c0,1.22,0.68,1.88,1.86,1.88C889.11,70.79,889.84,70.13,889.84,68.91z"/>
<path class="st0" d="M899.41,73.42h-3.1v-15h-1.76v-2.87h4.87V73.42z"/>
<path class="st0" d="M907.42,67.35c-2.99,0-4.66-1.69-4.66-4.52v-2.99c0-2.87,1.76-4.54,4.99-4.54c3.2,0,4.96,1.67,4.96,4.54v9.17
	c0,2.96-1.88,4.61-4.96,4.61c-2.99,0-4.75-1.6-4.87-4.49h3.08c0.07,1.18,0.61,1.65,1.79,1.65c1.2,0,1.86-0.66,1.86-1.98v-2.33
	C909.14,67.02,908.27,67.35,907.42,67.35z M907.75,64.48c1.13,0,1.86-0.66,1.86-1.76v-2.66c0-1.2-0.66-1.88-1.86-1.88
	c-1.22,0-1.86,0.68-1.86,1.88v2.4C905.9,63.78,906.53,64.48,907.75,64.48z"/>
<path class="st0" d="M923.54,55.92h2.92c0,1.05-0.13,2.04-0.35,2.99c1.32,1.67,3.27,3.03,5.4,3.91l-1.56,2.26
	c-1.76-0.81-3.54-2.04-4.9-3.43c-0.86,1.58-2.07,2.9-3.49,3.82l-2.15-1.82C922.03,62.07,923.54,59.41,923.54,55.92z M937.38,72.7
	v2.2h-16.21v-5.51h12.9v-1.14h-12.9v-2.22h15.8v5.51h-12.88v1.16H937.38z M936.97,55.92v9.36h-2.9v-9.36H936.97z"/>
<path class="st0" d="M949.14,71.45v2.61h-8.99v-2.61h1.32V60.24h2.64v11.21h0.83l0.79-11.21h2.68c-0.31,3.73-0.55,7.45-0.84,11.21
	H949.14z M949.01,56.22v2.66h-8.68v-2.66H949.01z M956.75,55.92V74.9H954v-9.07h-1.47v8.86h-2.72V56h2.72v7.16H954v-7.25H956.75z"/>
<path class="st0" d="M970.81,56.22v10.44h-10.15V56.22h2.79v2.86h4.59v-2.86H970.81z M976.68,68.37v6.72h-2.92v-4.11h-12.9v-2.62
	H976.68z M963.45,64.24h4.59v-2.77h-4.59V64.24z M979.14,60.24v2.77h-2.46v4.42h-2.92V55.92h2.92v4.33H979.14z"/>
<path class="st0" d="M992.46,64.42v2.33h-11.47v-6.44h7.25v-1.76h-7.25v-2.33h10.06v6.37h-7.25v1.82H992.46z M997.01,68.15v6.64
	h-15.6v-6.64H997.01z M984.31,72.44h9.78v-1.93h-9.78V72.44z M999.47,60.16v2.77h-2.46v4.48h-2.92V55.92h2.92v4.24H999.47z"/>
<path class="st0" d="M1013.69,71.52v2.66h-13.1v-2.66h4.9v-2.48h2.9v2.48H1013.69z M1012.81,57.01v2.4h-11.91v-2.4h4.44v-1.82h3.01
	v1.82H1012.81z M1012.17,64.27c0,2.55-2.06,4.24-5.14,4.24h-0.31c-3.03,0-5.1-1.69-5.1-4.24c0-2.51,2.07-4.22,5.1-4.22h0.31
	C1010.11,60.05,1012.17,61.76,1012.17,64.27z M1009.32,64.27c0-1.14-0.95-1.96-2.29-1.96h-0.31c-1.34,0-2.26,0.81-2.26,1.96
	c0,1.16,0.92,1.96,2.26,1.96h0.31C1008.37,66.22,1009.32,65.43,1009.32,64.27z M1017.73,55.92V74.9h-2.9V55.92H1017.73z"/>
<path class="st0" d="M1024.7,59.35h-3.43v-3.11h3.43V59.35z M1024.61,74.84h-3.23V61.03h3.23V74.84z"/>
<path class="st0" d="M1037.89,64.92v9.92h-3.21V65.6c0-1.14-0.61-1.87-1.82-1.87c-1.26,0-2.04,0.97-2.04,2.38v8.73h-3.21V61.03h2.87
	l0.22,1.17c0.61-0.85,1.82-1.39,3.06-1.39C1036.38,60.81,1037.89,62.49,1037.89,64.92z"/>
<path class="st0" d="M1041.03,58.71v-2.48h10.19v2.48h-3.82c-0.04,0.73-0.15,1.45-0.33,2.13c1.23,1.82,3.25,3.54,5.25,4.68
	c-0.62,0.68-1.19,1.38-1.82,2.06c-1.58-0.97-3.23-2.35-4.48-3.84c-0.88,1.76-2.13,3.23-3.58,4.28l-2.24-1.78
	c2.48-1.63,4.04-4.22,4.35-7.54H1041.03z M1041.65,74.79v-6.04h2.92v3.38h13.29v2.66H1041.65z M1054.55,60.29v-4.37h2.9v14.17h-2.9
	v-7.25h-3.69v-2.55H1054.55z"/>
<path class="st0" d="M1062,66.13l-1.36-2.37c3.32-0.59,6.15-2.33,7.56-4.88h-6.64v-2.66h16.32v2.66h-6.39
	c-0.18,0.4-0.35,0.79-0.57,1.19c2,1.6,5.01,2.75,7.89,3.16l-1.27,2.46c-2.92-0.46-6.06-1.76-8.2-3.52
	C1067.43,64.2,1064.75,65.61,1062,66.13z M1078.81,67.67v2.68h-7.54v4.75h-3.1v-4.75h-7.54v-2.68H1078.81z"/>
<path class="st0" d="M1087.89,63.93h1.51l-2.29,9.06h-1.51L1087.89,63.93z"/>
<path class="st1" d="M1095.85,74.68v-4.35c0-1.99,0.54-3.09,1.99-4.11l3.87-2.77c0.8-0.58,1.19-1.36,1.19-2.33
	c0-1.43-0.61-2.19-1.92-2.19c-1.31,0-1.92,0.78-1.92,2.29h-3.21c0-3.67,2.04-5.25,5.13-5.25c3.09,0,5.16,1.58,5.16,5.16
	c0,2.24-0.78,3.77-2.36,4.84l-3.7,2.55c-0.71,0.49-1.05,1.05-1.05,1.97v1.26h7.1v2.94H1095.85z"/>
<path class="st1" d="M1118.11,60.65v9.61c0,2.82-1.82,4.65-5.13,4.65c-3.33,0-5.16-1.82-5.16-4.65v-9.61c0-2.87,1.82-4.69,5.16-4.69
	C1116.29,55.95,1118.11,57.78,1118.11,60.65z M1114.9,70.01v-9.15c0-1.24-0.75-1.95-1.92-1.95c-1.22,0-1.92,0.71-1.92,1.95v9.15
	c0,1.26,0.71,1.95,1.92,1.95C1114.15,71.96,1114.9,71.27,1114.9,70.01z"/>
<path class="st1" d="M1124.56,74.68h-3.21V59.16h-1.82V56.2h5.03V74.68z"/>
<path class="st1" d="M1132.61,68.41c-3.09,0-4.82-1.75-4.82-4.67v-3.09c0-2.97,1.82-4.69,5.16-4.69c3.31,0,5.13,1.73,5.13,4.69v9.49
	c0,3.06-1.95,4.77-5.13,4.77c-3.09,0-4.91-1.65-5.03-4.65h3.19c0.07,1.22,0.63,1.7,1.85,1.7c1.24,0,1.92-0.68,1.92-2.04v-2.41
	C1134.38,68.07,1133.48,68.41,1132.61,68.41z M1132.95,65.44c1.17,0,1.92-0.68,1.92-1.82v-2.75c0-1.24-0.68-1.95-1.92-1.95
	c-1.26,0-1.92,0.71-1.92,1.95v2.48C1131.03,64.71,1131.68,65.44,1132.95,65.44z"/>
<path class="st1" d="M1143.89,75.36h-3.7v-3.53h3.7V75.36z"/>
<path class="st1" d="M1152.49,65.9h-2.99v-9.7h9.27v2.97h-6.06v3.65c0.61-0.49,1.51-0.8,2.43-0.8c2.7,0,4.06,1.48,4.06,3.96v4.04
	c0,3.02-1.65,4.89-5.01,4.89c-3.41,0-5.28-1.82-5.28-5.23h3.24c0,1.68,0.78,2.29,2.04,2.29c1.17,0,1.8-0.56,1.8-1.95v-3.45
	c0-1.12-0.51-1.58-1.53-1.58C1153.66,64.98,1152.98,65.37,1152.49,65.9z"/>
<path class="st1" d="M1164.8,75.36h-3.7v-3.53h3.7V75.36z"/>
<path class="st1" d="M1180.69,67.97v2.63c0,2.72-1.82,4.31-5.38,4.31s-5.37-1.58-5.37-4.31v-1.43h3.23v1.09
	c0,1.24,0.78,1.7,2.14,1.7c1.36,0,2.14-0.46,2.14-1.7v-2.07c0-1.14-0.66-1.7-1.92-1.7h-2.04v-2.99h1.95c1.07,0,1.68-0.56,1.68-1.58
	v-1.39c0-1.02-0.66-1.61-1.87-1.61c-1.19,0-1.85,0.58-1.85,1.61v0.68h-3.21v-1.14c0-2.72,2.09-4.11,5.06-4.11
	c2.97,0,5.11,1.39,5.11,4.11v1.95c0,1.39-0.71,2.38-1.82,2.89C1179.98,65.32,1180.69,66.48,1180.69,67.97z"/>
<path class="st1" d="M1187.14,74.68h-3.21V59.16h-1.82V56.2h5.03V74.68z"/>
<path class="st1" d="M1194.38,75.36h-3.7v-3.53h3.7V75.36z"/>
<path class="st1" d="M1196.1,63.3h18.17v2.57h-18.17V63.3z M1213.35,62.42h-2.92v-3.54h-13.4v-2.66h16.32V62.42z M1213.35,67.41
	v7.38h-16.32v-7.38H1213.35z M1199.94,72.31h10.48v-2.42h-10.48V72.31z"/>
<path class="st1" d="M1225.9,63.96l2.7,0.94c-0.81,2.83-3.16,3.84-5.65,2.68l-2.2-1.01c-1.14-0.55-2.04-0.15-2.48,1.1l-2.7-0.92
	c0.94-2.88,3.19-4.04,5.87-2.79l2.18,1.01C1224.62,65.45,1225.5,65.19,1225.9,63.96z"/>
<path class="st1" d="M1235.17,58.92c-1.26,0-1.92,0.66-1.92,1.95v2.36c0.66-0.54,1.8-0.88,2.82-0.88c2.75,0,4.23,1.48,4.23,4.13
	v3.77c0,2.82-1.82,4.65-5.13,4.65c-3.33,0-5.16-1.82-5.16-4.65v-9.61c0-3.09,1.82-4.69,5.16-4.69c3.19,0,4.89,1.68,4.91,4.65h-3.21
	C1236.84,59.5,1236.28,58.92,1235.17,58.92z M1237.09,70.01v-2.97c0-1.19-0.51-1.7-1.58-1.7c-1.36,0-2.26,0.75-2.26,1.92v2.75
	c0,1.26,0.58,1.95,1.92,1.95C1236.45,71.96,1237.09,71.27,1237.09,70.01z"/>
<path class="st1" d="M1245.89,75.36h-3.7v-3.53h3.7V75.36z"/>
<path class="st1" d="M1251.16,74.68v-4.35c0-1.99,0.54-3.09,1.99-4.11l3.87-2.77c0.8-0.58,1.19-1.36,1.19-2.33
	c0-1.43-0.61-2.19-1.92-2.19s-1.92,0.78-1.92,2.29h-3.21c0-3.67,2.04-5.25,5.13-5.25s5.16,1.58,5.16,5.16
	c0,2.24-0.78,3.77-2.36,4.84l-3.7,2.55c-0.71,0.49-1.05,1.05-1.05,1.97v1.26h7.1v2.94H1251.16z"/>
<path class="st1" d="M1267.14,75.36h-3.7v-3.53h3.7V75.36z"/>
<path class="st1" d="M1290.34,71.52v2.66h-18.17v-2.66h7.51v-2.66h3.08v2.66H1290.34z M1289.61,65.58v2.53h-16.52V56.22h16.33v2.53
	h-13.4v2.11h13.4v2.48h-13.4v2.24H1289.61z"/>
<path class="st0" d="M878.27,93.89c-0.07,0.55-0.15,1.1-0.29,1.63c1.21,1.71,2.97,3.25,4.97,4.28l-1.74,2.11
	c-1.63-0.92-3.16-2.2-4.35-3.6c-0.94,1.67-2.29,3.03-3.89,4.04c-0.7-0.62-1.41-1.21-2.09-1.85c2.53-1.52,4.09-3.67,4.5-6.61h-3.67
	v-2.48h10.3v2.48H878.27z M883.32,110.28h-6.61c-3.03,0-4.79-1.36-4.79-3.74c0-2.22,1.76-3.78,4.79-3.78h6.61
	c3.05,0,4.81,1.56,4.81,3.78C888.13,108.92,886.38,110.28,883.32,110.28z M876.71,107.82h6.15c1.43,0,2.29-0.35,2.29-1.27
	c0-0.97-0.86-1.32-2.29-1.32h-5.65c-1.47,0-2.29,0.33-2.29,1.32C874.93,107.32,875.57,107.82,876.71,107.82z M890.2,95.26v2.77
	h-2.46v4.33h-2.92V91.1h2.92v4.15H890.2z"/>
<path class="st0" d="M891.89,102.42l-1.78-2.26c4.33-1.54,7.29-4.92,8.04-9.16l3.03,0.51c-0.15,1.01-0.46,2-0.88,2.94
	c2.02,2.35,4.94,4.13,8.2,4.97l-1.58,2.35c-3.12-0.84-5.95-2.59-8.04-4.79C897.12,99.45,894.6,101.43,891.89,102.42z M908.4,106.68
	v2.68h-18.17v-2.68h7.51v-5.23h3.08v5.23H908.4z"/>
<path class="st0" d="M915.15,99.12h1.51l-2.29,9.06h-1.51L915.15,99.12z"/>
<path class="st1" d="M922.09,93.89v-2.48h10.19v2.48h-3.82c-0.04,0.73-0.15,1.45-0.33,2.13c1.23,1.82,3.25,3.54,5.25,4.68
	c-0.62,0.68-1.19,1.38-1.82,2.06c-1.58-0.97-3.23-2.35-4.48-3.84c-0.88,1.76-2.13,3.23-3.58,4.28l-2.24-1.78
	c2.48-1.63,4.04-4.22,4.35-7.54H922.09z M922.7,109.98v-6.04h2.92v3.38h13.29v2.66H922.7z M935.6,95.47V91.1h2.9v14.17h-2.9v-7.25
	h-3.69v-2.55H935.6z"/>
<path class="st1" d="M941.95,101.32l-1.36-2.37c3.32-0.59,6.15-2.33,7.56-4.88h-6.64v-2.66h16.32v2.66h-6.39
	c-0.18,0.4-0.35,0.79-0.57,1.19c2,1.6,5.01,2.75,7.89,3.16l-1.27,2.46c-2.92-0.46-6.06-1.76-8.2-3.52
	C947.38,99.39,944.7,100.79,941.95,101.32z M958.76,102.86v2.68h-7.54v4.75h-3.1v-4.75h-7.54v-2.68H958.76z"/>
<path class="st1" d="M971.4,92.09v2.37h-11.47v-2.37h4.17v-1.71h2.92v1.71H971.4z M970.57,99.39c0,2.46-2.07,4.22-4.97,4.22
	c-2.88,0-4.94-1.76-4.94-4.22c0-2.48,2.06-4.24,4.94-4.24C968.5,95.15,970.57,96.9,970.57,99.39z M976.96,107.32v2.66h-16v-5.67h2.9
	v3.01H976.96z M967.77,99.39c0-1.1-0.81-2-2.18-2c-1.38,0-2.15,0.9-2.15,2c0,1.08,0.77,1.93,2.15,1.93
	C966.96,101.32,967.77,100.46,967.77,99.39z M979.02,96.51v2.77h-2.46v6.09h-2.92V91.1h2.92v5.41H979.02z"/>
<path class="st1" d="M979.05,102.51v-2.4h7.56V98.6h-1.87c-3.21,0-4.97-1.32-4.97-3.74c0-2.24,1.76-3.76,4.97-3.76h6.81
	c3.21,0,4.94,1.52,4.94,3.76c0,2.42-1.74,3.74-4.94,3.74h-2.02v1.52h7.69v2.4H979.05z M979.97,106.35v-2.4h16.32v6.33h-2.92v-3.93
	H979.97z M991.53,93.5h-6.77c-1.32,0-2.02,0.55-2.02,1.36c0,0.79,0.62,1.36,2.02,1.36h6.77c1.38,0,1.98-0.57,1.98-1.36
	C993.51,94.05,992.91,93.5,991.53,93.5z"/>
<path class="st1" d="M1008.78,91.41v17.84h-9.78V91.41H1008.78z M1001.82,106.61h4.15V94.07h-4.15V106.61z M1015.02,101.03v9.05
	h-2.92V91.1h2.92v7.14h2.46v2.79H1015.02z"/>
<path class="st1" d="M1017.51,98.29h18.17v2.2h-18.17V98.29z M1022.37,91.1h8.26c2.59,0,4.33,1.1,4.33,3.16s-1.74,3.19-4.33,3.19
	h-8.26c-2.62,0-4.13-1.12-4.13-3.19S1019.75,91.1,1022.37,91.1z M1034.96,107.8v2.18h-16.52v-5.36h13.4v-0.97h-13.4v-2.18h16.32
	v5.32h-13.4v1.01H1034.96z M1022.41,95.23h8.26c0.77,0,1.34-0.35,1.34-0.97c0-0.59-0.57-0.92-1.34-0.92h-8.26
	c-0.77,0-1.25,0.33-1.25,0.92C1021.16,94.88,1021.64,95.23,1022.41,95.23z"/>
<path class="st1" d="M1041.45,91.41h9.18v1.47c0,4.75-3.84,8.09-8.99,8.66l-1.12-2.37c3.82-0.42,6.61-2.24,7.16-5.21h-6.24V91.41z
	 M1053.16,110.28h-6.39c-3.05,0-5.01-1.58-5.01-3.95c0-2.4,1.96-3.98,5.01-3.98h6.39c3.05,0,5.01,1.58,5.01,3.98
	C1058.17,108.7,1056.21,110.28,1053.16,110.28z M1046.77,107.82h6.39c1.23,0,2.02-0.59,2.02-1.49s-0.79-1.52-2.02-1.52h-6.39
	c-1.23,0-2.02,0.62-2.02,1.52S1045.53,107.82,1046.77,107.82z M1057.86,91.1v10.68h-2.9v-1.96h-4.04v-2.46h4.04v-1.71h-3.82v-2.42
	h3.82V91.1H1057.86z"/>
<path class="st1" d="M1060.79,91.41h9.29v4.5c0,5.71-3.03,10.61-8.24,13.36l-2-2.11c4.64-2.26,7.32-6.35,7.32-10.96v-2.13h-6.37
	V91.41z M1077.09,91.1v18.98h-2.9V91.1H1077.09z"/>
<path class="st1" d="M1079.91,93.89v-2.48h10.19v2.48h-3.82c-0.04,0.73-0.15,1.45-0.33,2.13c1.23,1.82,3.25,3.54,5.25,4.68
	c-0.62,0.68-1.19,1.38-1.82,2.06c-1.58-0.97-3.23-2.35-4.48-3.84c-0.88,1.76-2.13,3.23-3.58,4.28l-2.24-1.78
	c2.48-1.63,4.04-4.22,4.35-7.54H1079.91z M1080.52,109.98v-6.04h2.92v3.38h13.29v2.66H1080.52z M1093.42,95.47V91.1h2.9v14.17h-2.9
	v-7.25h-3.69v-2.55H1093.42z"/>
<path class="st1" d="M1102.62,96.16c0-2.9,2.24-5.05,5.36-5.05c3.12,0,5.36,2.15,5.36,5.05c0,2.9-2.24,5.05-5.36,5.05
	C1104.86,101.21,1102.62,99.06,1102.62,96.16z M1109.14,107.63h3.95l0.84-2.33h2.94l-0.83,2.33h3.34v2.35h-16.11v-2.35h2.97v-2.33
	h2.9V107.63z M1119.16,102.2v2.4h-15.69v-2.4H1119.16z M1105.49,96.16c0,1.45,0.97,2.59,2.48,2.59c1.49,0,2.48-1.14,2.48-2.59
	c0-1.45-0.99-2.59-2.48-2.59C1106.46,93.56,1105.49,94.71,1105.49,96.16z M1121.6,94.73v2.77h-2.46v3.98h-2.92V91.1h2.92v3.63
	H1121.6z"/>
<path class="st1" d="M1138.35,99.23v2.44h-12.74v-2.44h3.03v-3.45h2.88v3.45H1138.35z M1136.79,98.02h-2.92v-4.17h-7.54v-2.44h10.46
	V98.02z M1137.85,110.28h-6.42c-2.99,0-4.9-1.23-4.9-3.63c0-2.24,1.91-3.69,4.9-3.69h6.42c2.99,0,4.9,1.45,4.9,3.69
	C1142.75,109.05,1140.84,110.28,1137.85,110.28z M1131.43,107.91h6.42c1.12,0,1.91-0.46,1.91-1.25c0-0.83-0.79-1.3-1.91-1.3h-6.42
	c-1.12,0-1.89,0.46-1.89,1.3C1129.54,107.45,1130.31,107.91,1131.43,107.91z M1144.81,95.34v2.77h-2.46v4.18h-2.92V91.1h2.92v4.24
	H1144.81z"/>
<path class="st1" d="M1152.11,93.89c-0.07,0.55-0.15,1.1-0.29,1.63c1.21,1.71,2.97,3.25,4.97,4.28l-1.74,2.11
	c-1.63-0.92-3.16-2.2-4.35-3.6c-0.94,1.67-2.29,3.03-3.89,4.04c-0.7-0.62-1.41-1.21-2.09-1.85c2.53-1.52,4.09-3.67,4.5-6.61h-3.67
	v-2.48h10.3v2.48H1152.11z M1157.17,110.28h-6.61c-3.03,0-4.79-1.36-4.79-3.74c0-2.22,1.76-3.78,4.79-3.78h6.61
	c3.05,0,4.81,1.56,4.81,3.78C1161.98,108.92,1160.22,110.28,1157.17,110.28z M1150.55,107.82h6.15c1.43,0,2.29-0.35,2.29-1.27
	c0-0.97-0.86-1.32-2.29-1.32h-5.65c-1.47,0-2.29,0.33-2.29,1.32C1148.77,107.32,1149.41,107.82,1150.55,107.82z M1164.04,95.26v2.77
	h-2.46v4.33h-2.92V91.1h2.92v4.15H1164.04z"/>
<path class="st1" d="M1178.49,105.71c2,1.19,4.86,1.78,7.45,2l-0.84,2.26c-2.77-0.2-6-1.12-8.26-2.55c-2.02,1.6-4.7,2.44-7.21,2.59
	l-1.05-2.26c2.86-0.15,5.49-0.99,7.21-2.73h-6.39v-2.37h6.35v-1.67h2.97v1.67h6.39v2.37h-6.17
	C1178.8,105.27,1178.64,105.49,1178.49,105.71z M1178.69,91.41v8.77h-9.91v-8.77H1178.69z M1171.57,97.76h4.33v-3.93h-4.33V97.76z
	 M1185.19,91.1v10.17h-2.9V91.1H1185.19z"/>
<path class="st1" d="M1191.99,93.89v-2.48h10.19v2.48h-3.82c-0.04,0.73-0.15,1.45-0.33,2.13c1.23,1.82,3.25,3.54,5.25,4.68
	c-0.62,0.68-1.19,1.38-1.82,2.06c-1.58-0.97-3.23-2.35-4.48-3.84c-0.88,1.76-2.13,3.23-3.58,4.28l-2.24-1.78
	c2.48-1.63,4.04-4.22,4.35-7.54H1191.99z M1192.61,109.98v-6.04h2.92v3.38h13.29v2.66H1192.61z M1205.5,95.47V91.1h2.9v14.17h-2.9
	v-7.25h-3.69v-2.55H1205.5z"/>
<path class="st1" d="M1211.86,101.32l-1.36-2.37c3.32-0.59,6.15-2.33,7.56-4.88h-6.64v-2.66h16.32v2.66h-6.39
	c-0.18,0.4-0.35,0.79-0.57,1.19c2,1.6,5.01,2.75,7.89,3.16l-1.27,2.46c-2.92-0.46-6.06-1.76-8.2-3.52
	C1217.29,99.39,1214.6,100.79,1211.86,101.32z M1228.67,102.86v2.68h-7.54v4.75h-3.1v-4.75h-7.54v-2.68H1228.67z"/>
<path class="st1" d="M1232.1,109.52l-2.68-1.27c2.81-5.05,3.69-10.94,3.69-16.94h2.92c0,2.09-0.11,4.24-0.37,6.39
	c0.97,3.56,2.99,7.29,5.6,9.8l-2.2,1.87c-1.78-1.76-3.27-4.13-4.35-6.57C1234.1,105.16,1233.24,107.45,1232.1,109.52z M1246.86,91.1
	v18.98h-2.9V91.1H1246.86z"/>
<path class="st1" d="M1253.16,95.81c0-2.75,2.2-4.7,5.18-4.7c3.01,0,5.23,1.96,5.23,4.7c0,2.72-2.22,4.68-5.23,4.68
	C1255.35,100.48,1253.16,98.53,1253.16,95.81z M1270.49,107.89v2.2h-16.21v-5.51h12.9v-1.14h-12.9v-2.22h15.8v5.51h-12.88v1.16
	H1270.49z M1256.04,95.81c0,1.34,0.97,2.24,2.31,2.24c1.34,0,2.35-0.9,2.35-2.24c0-1.34-1.01-2.24-2.35-2.24
	C1257,93.56,1256.04,94.46,1256.04,95.81z M1270.08,91.1v9.36h-2.9V91.1H1270.08z"/>
<path class="st1" d="M1284.74,99.3v2.33h-5.93v2.79h-2.92v-2.79h-3.71V99.3H1284.74z M1279.4,98.44h-2.26
	c-2.79,0-4.44-1.43-4.44-3.67c0-2.22,1.65-3.67,4.44-3.67h2.26c2.79,0,4.44,1.45,4.44,3.67
	C1283.83,97.01,1282.19,98.44,1279.4,98.44z M1289.72,107.38v2.59h-16.21v-5.16h2.92v2.57H1289.72z M1277.13,96.13h2.26
	c0.97,0,1.65-0.48,1.65-1.36c0-0.88-0.68-1.34-1.65-1.34h-2.26c-0.99,0-1.65,0.46-1.65,1.34
	C1275.49,95.65,1276.15,96.13,1277.13,96.13z M1286.41,104.7h-4.35v-2.24h4.35V91.1h2.9v14.72h-2.9V104.7z"/>
<path class="st0" d="M872.36,136.51l-1.36-2.37c3.32-0.59,6.15-2.33,7.56-4.88h-6.64v-2.66h16.32v2.66h-6.39
	c-0.18,0.4-0.35,0.79-0.57,1.19c2,1.6,5.01,2.75,7.89,3.16l-1.27,2.46c-2.92-0.46-6.06-1.76-8.2-3.52
	C877.78,134.57,875.1,135.98,872.36,136.51z M889.17,138.04v2.68h-7.54v4.75h-3.1v-4.75H871v-2.68H889.17z"/>
<path class="st0" d="M897.87,130.33c-0.07,0.33-0.18,0.66-0.29,0.99c1.25,1.74,3.19,3.36,5.25,4.37c-0.55,0.75-1.12,1.47-1.71,2.22
	c-1.76-0.95-3.54-2.4-4.83-3.93c-1.05,1.69-2.48,3.14-4.09,4.09l-2.17-1.98c2.42-1.3,4.11-3.43,4.83-5.76h-3.91v-2.61h4v-2.15h2.94
	v2.15h4.13v2.61H897.87z M903.21,141.89v2.66h-12.99v-2.66h4.7v-4.17h2.92v4.17H903.21z M907.36,126.29v18.98h-2.9v-18.98H907.36z"
	/>
<path class="st0" d="M914.96,134.3h1.51l-2.29,9.06h-1.51L914.96,134.3z"/>
<path class="st1" d="M930.38,127.1v2.37h-9.18v-2.37h3.14v-1.54h2.86v1.54H930.38z M930.08,133.89c0,2.31-1.82,3.78-4.24,3.78
	c-2.44,0-4.24-1.47-4.24-3.78c0-2.33,1.8-3.8,4.24-3.8C928.25,130.09,930.08,131.56,930.08,133.89z M933.86,145.47h-7.25
	c-2.86,0-4.59-1.21-4.59-3.49c0-2.11,1.74-3.52,4.59-3.52h7.25c2.83,0,4.57,1.41,4.57,3.52
	C938.43,144.26,936.69,145.47,933.86,145.47z M927.4,133.89c0-0.9-0.62-1.58-1.56-1.58c-0.95,0-1.56,0.68-1.56,1.58
	c0,0.88,0.61,1.54,1.56,1.54C926.78,135.43,927.4,134.77,927.4,133.89z M926.61,143.07h6.7c1.32,0,2.13-0.24,2.13-1.1
	c0-0.86-0.81-1.12-2.13-1.12h-6.17c-1.36,0-2.13,0.26-2.13,1.12C925,142.64,925.59,143.07,926.61,143.07z M938.12,126.29v11.45
	h-2.77v-4.59h-1.65v4.59H931v-11.36h2.7v4.22h1.65v-4.31H938.12z"/>
<path class="st1" d="M947.37,129.08c-0.07,0.55-0.15,1.1-0.29,1.63c1.19,1.71,2.99,3.25,4.99,4.28l-1.74,2.11
	c-1.63-0.92-3.16-2.18-4.35-3.58c-0.92,1.65-2.22,3.03-3.78,4.02l-2.11-1.82c2.48-1.52,4.02-3.69,4.42-6.64h-3.58v-2.48h10.19v2.48
	H947.37z M952.84,145.47h-6.81c-3.03,0-4.79-1.36-4.79-3.74c0-2.22,1.76-3.78,4.79-3.78h6.81c3.08,0,4.81,1.56,4.81,3.78
	C957.66,144.11,955.92,145.47,952.84,145.47z M946.03,143.01h6.33c1.45,0,2.31-0.35,2.31-1.27c0-0.97-0.86-1.32-2.31-1.32h-5.82
	c-1.45,0-2.31,0.33-2.31,1.32C944.23,142.5,944.89,143.01,946.03,143.01z M957.35,126.29v11.14h-2.9v-4.59h-3.69v-2.51h3.69v-4.04
	H957.35z"/>
<path class="st1" d="M959.66,132.22v-0.81c0-2.97,2.24-5.12,5.36-5.12c3.12,0,5.36,2.15,5.36,5.12v0.81c0,2.94-2.24,5.12-5.36,5.12
	C961.9,137.34,959.66,135.17,959.66,132.22z M976.58,142.5v2.66h-16v-6.24h2.9v3.58H976.58z M962.54,131.41v0.81
	c0,1.49,0.97,2.66,2.48,2.66c1.49,0,2.48-1.16,2.48-2.66v-0.81c0-1.52-0.99-2.66-2.48-2.66
	C963.51,128.75,962.54,129.89,962.54,131.41z M978.64,131.5v2.77h-2.46v6.09h-2.92v-14.06h2.92v5.21H978.64z"/>
<path class="st1" d="M979.4,129.08v-2.48h10.19v2.48h-3.82c-0.04,0.73-0.15,1.45-0.33,2.13c1.23,1.82,3.25,3.54,5.25,4.68
	c-0.62,0.68-1.19,1.38-1.82,2.06c-1.58-0.97-3.23-2.35-4.48-3.84c-0.88,1.76-2.13,3.23-3.58,4.28l-2.24-1.78
	c2.48-1.63,4.04-4.22,4.35-7.54H979.4z M980.01,145.16v-6.04h2.92v3.38h13.29v2.66H980.01z M992.91,130.66v-4.37h2.9v14.17h-2.9
	v-7.25h-3.69v-2.55H992.91z"/>
<path class="st1" d="M1016.07,138.26v2.66h-7.54v4.55h-3.1v-4.55h-7.54v-2.66H1016.07z M1015.15,126.6v10.06h-16.33V126.6h2.92v2.44
	h10.48v-2.44H1015.15z M1001.75,134.02h10.48v-2.37h-10.48V134.02z"/>
<path class="st1" d="M1017.07,146.3l-0.73-1.45c1.1-0.48,1.34-1.19,1.34-2.81v-1.1h3.21v1.32
	C1020.89,144.7,1019.66,146.04,1017.07,146.3z"/>
<g>
	<path class="st1" d="M1026.81,129.08v-2.48h10.19v2.48h-3.82c-0.04,0.73-0.15,1.45-0.33,2.13c1.23,1.82,3.25,3.54,5.25,4.68
		c-0.62,0.68-1.19,1.38-1.82,2.06c-1.58-0.97-3.23-2.35-4.48-3.84c-0.88,1.76-2.13,3.23-3.58,4.28l-2.24-1.78
		c2.48-1.63,4.04-4.22,4.35-7.54H1026.81z M1027.43,145.16v-6.04h2.92v3.38h13.29v2.66H1027.43z M1040.33,130.66v-4.37h2.9v14.17
		h-2.9v-7.25h-3.69v-2.55H1040.33z"/>
	<path class="st1" d="M1046.68,136.51l-1.36-2.37c3.32-0.59,6.15-2.33,7.56-4.88h-6.64v-2.66h16.32v2.66h-6.39
		c-0.18,0.4-0.35,0.79-0.57,1.19c2,1.6,5.01,2.75,7.89,3.16l-1.27,2.46c-2.92-0.46-6.06-1.76-8.2-3.52
		C1052.11,134.57,1049.43,135.98,1046.68,136.51z M1063.49,138.04v2.68h-7.54v4.75h-3.1v-4.75h-7.54v-2.68H1063.49z"/>
	<path class="st1" d="M1066.92,144.7l-2.68-1.27c2.81-5.05,3.69-10.94,3.69-16.94h2.92c0,2.09-0.11,4.24-0.37,6.39
		c0.97,3.56,2.99,7.29,5.6,9.8l-2.2,1.87c-1.78-1.76-3.27-4.13-4.35-6.57C1068.92,140.35,1068.06,142.64,1066.92,144.7z
		 M1081.69,126.29v18.98h-2.9v-18.98H1081.69z"/>
</g>
<g>
	<path class="st1" d="M1138.28,129.08v-2.48h10.19v2.48h-3.82c-0.04,0.73-0.15,1.45-0.33,2.13c1.23,1.82,3.25,3.54,5.25,4.68
		c-0.62,0.68-1.19,1.38-1.82,2.06c-1.58-0.97-3.23-2.35-4.48-3.84c-0.88,1.76-2.13,3.23-3.58,4.28l-2.24-1.78
		c2.48-1.63,4.04-4.22,4.35-7.54H1138.28z M1138.9,145.16v-6.04h2.92v3.38h13.29v2.66H1138.9z M1151.8,130.66v-4.37h2.9v14.17h-2.9
		v-7.25h-3.69v-2.55H1151.8z"/>
	<path class="st1" d="M1158.15,136.51l-1.36-2.37c3.32-0.59,6.15-2.33,7.56-4.88h-6.64v-2.66h16.32v2.66h-6.39
		c-0.18,0.4-0.35,0.79-0.57,1.19c2,1.6,5.01,2.75,7.89,3.16l-1.27,2.46c-2.92-0.46-6.06-1.76-8.2-3.52
		C1163.58,134.57,1160.9,135.98,1158.15,136.51z M1174.96,138.04v2.68h-7.54v4.75h-3.1v-4.75h-7.54v-2.68H1174.96z"/>
	<path class="st1" d="M1178.39,144.7l-2.68-1.27c2.81-5.05,3.69-10.94,3.69-16.94h2.92c0,2.09-0.11,4.24-0.37,6.39
		c0.97,3.56,2.99,7.29,5.6,9.8l-2.2,1.87c-1.78-1.76-3.27-4.13-4.35-6.57C1180.39,140.35,1179.53,142.64,1178.39,144.7z
		 M1193.16,126.29v18.98h-2.9v-18.98H1193.16z"/>
</g>
<path class="st0" d="M1088.94,136.51l-1.36-2.37c3.32-0.59,6.15-2.33,7.56-4.88h-6.64v-2.66h16.33v2.66h-6.39
	c-0.18,0.4-0.35,0.79-0.57,1.19c2,1.6,5.01,2.75,7.89,3.16l-1.27,2.46c-2.92-0.46-6.06-1.76-8.2-3.52
	C1094.36,134.57,1091.68,135.98,1088.94,136.51z M1105.74,138.04v2.68h-7.54v4.75h-3.1v-4.75h-7.54v-2.68H1105.74z"/>
<path class="st0" d="M1119.55,135.38v2.57h-12.74v-2.57h3.03v-4h2.88v4H1119.55z M1117.99,133.98h-2.92v-4.86h-7.54v-2.53h10.46
	V133.98z M1123.94,142.53v2.64h-16v-5.87h2.9v3.23H1123.94z M1126.01,131.52v2.77h-2.46v6.17h-2.92v-14.17h2.92v5.23H1126.01z"/>
<path class="st0" d="M1131.53,134.3h1.51l-2.29,9.06h-1.51L1131.53,134.3z"/>
<path class="st1" d="M1198.39,144.7l-2.68-1.27c2.81-5.05,3.69-10.94,3.69-16.94h2.92c0,2.09-0.11,4.24-0.37,6.39
	c0.97,3.56,2.99,7.29,5.6,9.8l-2.2,1.87c-1.78-1.76-3.27-4.13-4.35-6.57C1200.39,140.35,1199.53,142.64,1198.39,144.7z
	 M1212.76,136.22v9.05h-2.92v-18.98h2.92v7.14h2.46v2.79H1212.76z"/>
<path class="st1" d="M1228.34,141.89v2.66h-13.1v-2.66h4.9v-2.48h2.9v2.48H1228.34z M1227.47,127.39v2.39h-11.91v-2.39h4.44v-1.82
	h3.01v1.82H1227.47z M1226.83,134.64c0,2.55-2.06,4.24-5.14,4.24h-0.31c-3.03,0-5.1-1.69-5.1-4.24c0-2.5,2.07-4.22,5.1-4.22h0.31
	C1224.76,130.42,1226.83,132.13,1226.83,134.64z M1223.97,134.64c0-1.14-0.94-1.96-2.29-1.96h-0.31c-1.34,0-2.26,0.81-2.26,1.96
	c0,1.16,0.92,1.96,2.26,1.96h0.31C1223.03,136.59,1223.97,135.8,1223.97,134.64z M1232.39,126.29v18.98h-2.9v-18.98H1232.39z"/>
<path class="st1" d="M1246.06,127.21v2.37h-11.47v-2.37h4.17v-1.65h2.92v1.65H1246.06z M1240.48,138.39h-0.42
	c-2.68,0-4.75-1.63-4.75-4.11c0-2.46,2.06-4.07,4.75-4.07h0.42c2.68,0,4.75,1.6,4.75,4.07
	C1245.22,136.77,1243.16,138.39,1240.48,138.39z M1251.62,139.25v6.22h-2.9v-3.63h-13.1v-2.59H1251.62z M1240.06,136.09h0.42
	c1.14,0,1.95-0.75,1.95-1.8c0-1.03-0.81-1.8-1.95-1.8h-0.42c-1.19,0-1.96,0.77-1.96,1.8
	C1238.1,135.34,1238.87,136.09,1240.06,136.09z M1251.62,126.29v12.11h-2.9v-1.8h-2.81v-2.4h2.81v-1.69h-2.81v-2.4h2.81v-3.82
	H1251.62z"/>
<path class="st1" d="M1257.84,126.29h2.92c0,1.43-0.15,2.81-0.48,4.13c1.27,1.98,3.34,3.89,5.38,5.03l-1.74,2.18
	c-1.67-0.97-3.41-2.53-4.7-4.13c-0.88,1.85-2.13,3.43-3.67,4.55l-2.17-1.87C1256.21,134.09,1257.84,130.64,1257.84,126.29z
	 M1271.27,142.5v2.66h-16.21v-6.24h2.92v3.58H1271.27z M1270.85,126.29v14.06h-2.9v-14.06H1270.85z"/>
<path class="st1" d="M1275.86,126.29h2.79c0,1.41-0.09,2.79-0.29,4.11c0.97,2.04,2.53,3.93,4.35,5.16l-1.85,1.85
	c-1.21-0.86-2.4-2.11-3.36-3.49c-0.59,1.63-1.43,3.05-2.57,4.18l-2.33-1.41C1275.11,134.26,1275.86,130.44,1275.86,126.29z
	 M1290.39,142.5v2.66h-16.11v-6.24h2.92v3.58H1290.39z M1285.79,126.38v13.12h-2.7v-7.29h-2.81v-2.64h2.81v-3.19H1285.79z
	 M1287.29,139.8v-13.51h2.79v13.51H1287.29z"/>
<path class="st1" d="M1303.02,144.44h-10.13V126.6h9.25v2.66h-6.33v4.55h6.13v2.66h-6.13v5.34h7.21V144.44z M1306.41,136.44h-3.6
	v-2.79h3.6v-7.36h2.9v18.98h-2.9V136.44z"/>
<g>
	<path class="st0" d="M429.01,146.08c5.79,0,11.55,0.5,17.23,1.5c12.21,2.14,23.95,1.69,34.9-1.35v-12.53
		c-8.74,2.84-17.94,3.67-27.37,2.45c-9.63-1.24-18.3-1.41-25.79-0.5l-0.9,0.11v-4.78h51.68v-26.91h-70.38v11.66h51.78v4.18h-51.59
		v28.21C415.41,146.77,422.24,146.08,429.01,146.08z M460.27,100.19h18.49V57.54h-18.49V100.19z M437.41,99.8h20
		c-4.26-5.92-8.58-12.38-12.87-19.22c-4.68-7.45-7.05-14.21-7.05-20.08v-2.76h-18.99v2.76c0,5.87-2.37,12.63-7.05,20.08
		c-4.3,6.85-8.63,13.31-12.87,19.22h20.01l4.91-6.61c1.69-2.27,3.03-4.3,4-6.05l0.7-1.26l0.7,1.26c0.98,1.76,2.28,3.8,3.87,6.07
		C434.29,95.4,435.84,97.6,437.41,99.8z"/>
</g>
<g>
	<path class="st0" d="M554.04,146.83h16.32V57.54h-16.32v29.95l-4.28,1.58V57.54h-16.32v73.29l-0.36,0.24
		c-0.68,0.45-1.49,0.78-2.42,0.96c-0.86,0.17-1.88,0.29-3.03,0.36l-0.86,0.05l0.5-56.49h-15.62l-0.5,56.63h-4.17l-0.5-56.63h-14.73
		l0.5,56.63h-4.26v13.74h32.56c2.27,0,4.45-0.08,6.47-0.24c1.91-0.16,3.66-0.7,5.2-1.62l1.22-0.73v3.09h16.32V103.9l4.28-1.58
		V146.83z M488.39,71.78h41.46V57.84h-41.46V71.78z"/>
</g>
<g>
	<path class="st0" d="M630.57,147.02h18.49v-37.31h-70.18v13.74h51.68V147.02z M630.47,105.93h18.49v-16l0.53-0.19
		c2.6-0.96,5.29-1.35,8-1.19c2.29,0.14,4.19-0.53,5.83-2.06V71.7c-2.12,1.12-4.33,1.68-6.57,1.68c-2.44,0-4.7,0.35-6.72,1.05
		l-1.06,0.37V57.54h-18.49V105.93z M577.3,105.04h47.41V57.64h-18.49v9.5H595.8v-9.5H577.3V105.04z M606.21,91.4H595.8V80.79h10.42
		V91.4z"/>
</g>
<g>
	<path class="st0" d="M688.87,146.42c6.13,0,12.28,0.49,18.4,1.46c12.65,2.01,23.48,1.08,32.19-2.75l-0.09-32.94h-70.48v35.96
		C675.5,147,682.17,146.42,688.87,146.42z M711.82,134.78c-2.75,0-5.53-0.22-8.32-0.66c-5.5-0.87-10.57-0.92-15.09-0.15l-0.94,0.16
		v-8.59h33.6l-0.12,8.41l-0.66,0.11C717.51,134.54,714.68,134.78,711.82,134.78z M720.67,108.41h18.49V90.04l0.53-0.19
		c2.6-0.96,5.29-1.35,8-1.19c2.29,0.14,4.19-0.53,5.83-2.06V71.8c-2.12,1.12-4.33,1.68-6.57,1.68c-2.44,0-4.7,0.35-6.72,1.05
		l-1.06,0.37V57.54h-18.49v34.35l-0.57,0.17c-2.02,0.61-4.48,1.08-7.32,1.41c-2.81,0.33-5.19,0.5-7.07,0.5h-19.71V89.5h28.91V57.84
		h-47.7v13.84h29.21v4.28H667.5v31.76h36.92c3.05,0,5.82-0.15,8.22-0.44c2.4-0.29,4.75-0.77,7-1.41l1.02-0.29V108.41z"/>
</g>
<g>
	<path class="st0" d="M816.12,146.92h18.4V57.54h-18.4v73.26l-0.44,0.22c-0.74,0.37-2.18,0.72-4.39,1.07
		c-2.15,0.33-4.32,0.5-6.46,0.5h-11.2v-10.71l0.57-0.17c4.19-1.27,7.72-3.49,10.47-6.6c2.72-3.07,4.1-7.39,4.1-12.83V90.99
		c0-2.99-0.43-5.64-1.28-7.88c-0.85-2.22-2.06-4.1-3.62-5.6l-1.44-1.38h8.42V62.79h-17.23v-10.2h-18.39v10.2h-18.52v13.35h10.01
		l-1.44,1.38c-1.56,1.49-2.79,3.38-3.67,5.61c-0.88,2.24-1.33,4.89-1.33,7.87v11.29c0,5.38,1.4,9.67,4.15,12.73
		c2.79,3.11,6.3,5.33,10.43,6.6l0.57,0.17v10.8H758v13.74h46.23c2.72,0,5.01-0.15,6.8-0.44c1.79-0.29,3.14-0.59,4.02-0.9l1.07-0.38
		V146.92z M784.72,108.83c-1.5,0-2.87-0.49-4.07-1.47c-1.27-1.03-1.88-2.88-1.88-5.67v-8.71c0-2.79,0.62-4.64,1.88-5.67
		c1.2-0.97,2.57-1.47,4.07-1.47c1.43,0,2.72,0.44,3.82,1.31c1.17,0.93,1.74,2.84,1.74,5.83v8.71c0,2.92-0.57,4.8-1.73,5.77
		C787.45,108.36,786.16,108.83,784.72,108.83z"/>
</g>
<g>
	<path class="st1" d="M118.39,127.22h17.69c1.75-3.82,2.87-7.22,3.33-10.12c0.49-3.05,0.73-8.1,0.73-15.02V57.64H66.11v13.84h55.45
		v31.4c0,5.41-0.23,10.2-0.7,14.25C120.44,120.76,119.61,124.15,118.39,127.22z"/>
	<g>
		<path class="st1" d="M213.54,146.92h16.71V57.64h-16.71v29.95l-4.28,1.58V57.64h-16.71v71.96l-0.55,0.18c-3,1-6.23,1.78-9.58,2.31
			c-3.36,0.53-6.15,0.8-8.29,0.8h-5.85v-25.27h19.51V57.84h-37.41v13.84h19.6v22.4h-19.31v52.55h22.17c3.44,0,6.8-0.23,9.99-0.69
			l0,0c3.15-0.45,6.06-1.2,8.63-2.23l1.1-0.44v3.65h16.71V104l4.28-1.58V146.92z"/>
	</g>
	<g>
		<path class="st1" d="M296.11,146.92h18.39V57.54h-18.39v25.09l-0.51,0.2c-2.78,1.09-5.88,1.67-9.19,1.74
			c-2.89,0.06-5.39,0.59-7.43,1.57v15.16c2.25-1.13,4.86-1.7,7.82-1.65c3.24,0.03,5.98-0.46,8.17-1.46l1.14-0.52V146.92z
			 M273.11,146.92h19.19c-3.88-6.51-7.97-14.9-12.19-24.98c-4.51-10.77-6.8-19.42-6.8-25.71v-38.6h-19.09v38.6
			c0,6.29-2.46,14.94-7.3,25.73c-4.52,10.06-8.78,18.45-12.67,24.96h19.59c1.32-2.35,2.9-5.36,4.7-8.96
			c1.89-3.78,3.41-7.22,4.52-10.22l0.79-2.12l0.73,2.14c1.04,3.06,2.43,6.5,4.13,10.22C270.31,141.5,271.79,144.5,273.11,146.92z"/>
	</g>
	<path class="st1" d="M374.37,71.65c-0.96-3-2.46-5.55-4.51-7.62c-2.05-2.08-4.69-3.68-7.92-4.8c-3.24-1.12-7.13-1.68-11.68-1.68
		c-4.03,0-7.61,0.69-10.74,2.08c-3.14,1.39-5.79,3.28-7.97,5.69c-2.18,2.41-3.85,5.23-5,8.47c-1.16,3.23-1.73,6.67-1.73,10.3h19.21
		c0-3.37,0.56-6.01,1.68-7.92c1.12-1.91,2.64-2.87,4.55-2.87c2.64,0,4.37,0.83,5.2,2.47c0.82,1.65,1.24,3.93,1.24,6.83
		c0,1.19-0.2,2.59-0.59,4.21c-0.4,1.62-1.12,3.35-2.18,5.2l-7.53,12.87c-1.52,2.77-2.69,5.41-3.51,7.92
		c-0.83,2.51-1.24,4.69-1.24,6.53v2.97h18.22v-2.97c0-1.25,0.2-2.56,0.59-3.91c0.4-1.35,0.96-2.49,1.68-3.42l7.62-12.87
		c0.66-1.06,1.34-2.24,2.03-3.56c0.69-1.32,1.34-2.72,1.93-4.21c0.59-1.49,1.09-3.04,1.48-4.65c0.4-1.62,0.59-3.28,0.59-5
		C375.81,78,375.33,74.65,374.37,71.65z"/>
	<rect x="341.65" y="128.63" class="st1" width="18.22" height="18.3"/>
	<rect x="61.95" y="133.18" class="st1" width="82.75" height="13.74"/>
</g>
</svg>
