<?xml version="1.0" encoding="utf-8"?>
<!-- Generator: Adobe Illustrator 23.0.3, SVG Export Plug-In . SVG Version: 6.00 Build 0)  -->
<svg version="1.1" id="레이어_1" xmlns="http://www.w3.org/2000/svg" xmlns:xlink="http://www.w3.org/1999/xlink" x="0px"
	 y="0px" viewBox="0 0 1366 201.5" style="enable-background:new 0 0 1366 201.5;" xml:space="preserve">
<style type="text/css">
	.st0{fill:#38D430;}
	.st1{fill:#453C7B;}
</style>
<path class="st0" d="M871.2,73.4v-4.2c0-1.9,0.5-3,1.9-4l3.7-2.7c0.8-0.6,1.2-1.3,1.2-2.3c0-1.4-0.6-2.1-1.9-2.1s-1.9,0.8-1.9,2.2
	h-3.1c0-3.5,2-5.1,5-5.1c3,0,5,1.5,5,5c0,2.2-0.8,3.7-2.3,4.7l-3.6,2.5c-0.7,0.5-1,1-1,1.9v1.2h6.9v2.8L871.2,73.4L871.2,73.4z"/>
<path class="st0" d="M892.9,59.8v9.3c0,2.7-1.8,4.5-5,4.5c-3.2,0-5-1.8-5-4.5v-9.3c0-2.8,1.8-4.5,5-4.5
	C891.2,55.3,892.9,57.1,892.9,59.8z M889.8,68.9v-8.8c0-1.2-0.7-1.9-1.9-1.9c-1.2,0-1.9,0.7-1.9,1.9v8.8c0,1.2,0.7,1.9,1.9,1.9
	C889.1,70.8,889.8,70.1,889.8,68.9z"/>
<path class="st0" d="M899.4,73.4h-3.1v-15h-1.8v-2.9h4.9L899.4,73.4L899.4,73.4z"/>
<path class="st0" d="M907.4,67.3c-3,0-4.7-1.7-4.7-4.5v-3c0-2.9,1.8-4.5,5-4.5c3.2,0,5,1.7,5,4.5V69c0,3-1.9,4.6-5,4.6
	c-3,0-4.8-1.6-4.9-4.5h3.1c0.1,1.2,0.6,1.7,1.8,1.7c1.2,0,1.9-0.7,1.9-2v-2.3C909.1,67,908.3,67.3,907.4,67.3z M907.8,64.5
	c1.1,0,1.9-0.7,1.9-1.8v-2.7c0-1.2-0.7-1.9-1.9-1.9c-1.2,0-1.9,0.7-1.9,1.9v2.4C905.9,63.8,906.5,64.5,907.8,64.5z"/>
<path class="st0" d="M923.5,55.9h2.9c0,1-0.1,2-0.3,3c1.3,1.7,3.3,3,5.4,3.9l-1.6,2.3c-1.8-0.8-3.5-2-4.9-3.4
	c-0.9,1.6-2.1,2.9-3.5,3.8l-2.2-1.8C922,62.1,923.5,59.4,923.5,55.9z M937.4,72.7v2.2h-16.2v-5.5h12.9v-1.1h-12.9V66H937v5.5h-12.9
	v1.2H937.4z M937,55.9v9.4h-2.9v-9.4H937z"/>
<path class="st0" d="M949.1,71.4v2.6h-9v-2.6h1.3V60.2h2.6v11.2h0.8l0.8-11.2h2.7c-0.3,3.7-0.5,7.4-0.8,11.2
	C947.6,71.5,949.1,71.5,949.1,71.4z M949,56.2v2.7h-8.7v-2.7H949z M956.8,55.9v19H954v-9.1h-1.5v8.9h-2.7V56h2.7v7.2h1.5v-7.2
	L956.8,55.9L956.8,55.9z"/>
<path class="st0" d="M970.8,56.2v10.4h-10.2V56.2h2.8v2.9h4.6v-2.9H970.8z M976.7,68.4v6.7h-2.9V71h-12.9v-2.6L976.7,68.4
	L976.7,68.4z M963.5,64.2h4.6v-2.8h-4.6V64.2z M979.1,60.2V63h-2.5v4.4h-2.9V55.9h2.9v4.3L979.1,60.2L979.1,60.2z"/>
<path class="st0" d="M992.5,64.4v2.3H981v-6.4h7.2v-1.8H981v-2.3h10.1v6.4h-7.2v1.8L992.5,64.4L992.5,64.4z M997,68.2v6.6h-15.6
	v-6.6H997z M984.3,72.4h9.8v-1.9h-9.8V72.4z M999.5,60.2v2.8H997v4.5h-2.9V55.9h2.9v4.2C997,60.2,999.5,60.2,999.5,60.2z"/>
<path class="st0" d="M1013.7,71.5v2.7h-13.1v-2.7h4.9V69h2.9v2.5H1013.7z M1012.8,57v2.4h-11.9V57h4.4v-1.8h3V57H1012.8z
	 M1012.2,64.3c0,2.6-2.1,4.2-5.1,4.2h-0.3c-3,0-5.1-1.7-5.1-4.2c0-2.5,2.1-4.2,5.1-4.2h0.3C1010.1,60,1012.2,61.8,1012.2,64.3z
	 M1009.3,64.3c0-1.1-1-2-2.3-2h-0.3c-1.3,0-2.3,0.8-2.3,2c0,1.2,0.9,2,2.3,2h0.3C1008.4,66.2,1009.3,65.4,1009.3,64.3z M1017.7,55.9
	v19h-2.9v-19H1017.7z"/>
<path class="st0" d="M1024.7,59.3h-3.4v-3.1h3.4V59.3z M1024.6,74.8h-3.2V61h3.2V74.8z"/>
<path class="st0" d="M1037.9,64.9v9.9h-3.2v-9.2c0-1.1-0.6-1.9-1.8-1.9c-1.3,0-2,1-2,2.4v8.7h-3.2V61h2.9l0.2,1.2
	c0.6-0.8,1.8-1.4,3.1-1.4C1036.4,60.8,1037.9,62.5,1037.9,64.9z"/>
<path class="st0" d="M1041,58.7v-2.5h10.2v2.5h-3.8c0,0.7-0.2,1.5-0.3,2.1c1.2,1.8,3.2,3.5,5.2,4.7c-0.6,0.7-1.2,1.4-1.8,2.1
	c-1.6-1-3.2-2.3-4.5-3.8c-0.9,1.8-2.1,3.2-3.6,4.3l-2.2-1.8c2.5-1.6,4-4.2,4.3-7.5L1041,58.7L1041,58.7z M1041.7,74.8v-6h2.9v3.4
	h13.3v2.7H1041.7z M1054.6,60.3v-4.4h2.9v14.2h-2.9v-7.2h-3.7v-2.5C1050.9,60.3,1054.6,60.3,1054.6,60.3z"/>
<path class="st0" d="M1062,66.1l-1.4-2.4c3.3-0.6,6.2-2.3,7.6-4.9h-6.6v-2.7h16.3v2.7h-6.4c-0.2,0.4-0.3,0.8-0.6,1.2
	c2,1.6,5,2.8,7.9,3.2l-1.3,2.5c-2.9-0.5-6.1-1.8-8.2-3.5C1067.4,64.2,1064.8,65.6,1062,66.1z M1078.8,67.7v2.7h-7.5v4.8h-3.1v-4.8
	h-7.5v-2.7H1078.8z"/>
<path class="st0" d="M1087.9,63.9h1.5l-2.3,9.1h-1.5L1087.9,63.9z"/>
<path class="st1" d="M1095.8,74.7v-4.3c0-2,0.5-3.1,2-4.1l3.9-2.8c0.8-0.6,1.2-1.4,1.2-2.3c0-1.4-0.6-2.2-1.9-2.2s-1.9,0.8-1.9,2.3
	h-3.2c0-3.7,2-5.2,5.1-5.2s5.2,1.6,5.2,5.2c0,2.2-0.8,3.8-2.4,4.8l-3.7,2.6c-0.7,0.5-1.1,1.1-1.1,2v1.3h7.1v2.9L1095.8,74.7
	L1095.8,74.7z"/>
<path class="st1" d="M1118.1,60.7v9.6c0,2.8-1.8,4.7-5.1,4.7c-3.3,0-5.2-1.8-5.2-4.7v-9.6c0-2.9,1.8-4.7,5.2-4.7
	C1116.3,56,1118.1,57.8,1118.1,60.7z M1114.9,70v-9.2c0-1.2-0.8-2-1.9-2c-1.2,0-1.9,0.7-1.9,2V70c0,1.3,0.7,1.9,1.9,1.9
	C1114.2,72,1114.9,71.3,1114.9,70z"/>
<path class="st1" d="M1124.6,74.7h-3.2V59.2h-1.8v-3h5L1124.6,74.7L1124.6,74.7z"/>
<path class="st1" d="M1132.6,68.4c-3.1,0-4.8-1.8-4.8-4.7v-3.1c0-3,1.8-4.7,5.2-4.7c3.3,0,5.1,1.7,5.1,4.7v9.5
	c0,3.1-1.9,4.8-5.1,4.8c-3.1,0-4.9-1.7-5-4.7h3.2c0.1,1.2,0.6,1.7,1.8,1.7c1.2,0,1.9-0.7,1.9-2v-2.4
	C1134.4,68.1,1133.5,68.4,1132.6,68.4z M1132.9,65.4c1.2,0,1.9-0.7,1.9-1.8v-2.8c0-1.2-0.7-2-1.9-2c-1.3,0-1.9,0.7-1.9,2v2.5
	C1131,64.7,1131.7,65.4,1132.9,65.4z"/>
<path class="st1" d="M1143.9,75.4h-3.7v-3.5h3.7V75.4z"/>
<path class="st1" d="M1152.5,65.9h-3v-9.7h9.3v3h-6.1v3.7c0.6-0.5,1.5-0.8,2.4-0.8c2.7,0,4.1,1.5,4.1,4v4c0,3-1.7,4.9-5,4.9
	c-3.4,0-5.3-1.8-5.3-5.2h3.2c0,1.7,0.8,2.3,2,2.3c1.2,0,1.8-0.6,1.8-1.9v-3.4c0-1.1-0.5-1.6-1.5-1.6
	C1153.7,65,1153,65.4,1152.5,65.9z"/>
<path class="st1" d="M1164.8,75.4h-3.7v-3.5h3.7V75.4z"/>
<path class="st1" d="M1180.7,68v2.6c0,2.7-1.8,4.3-5.4,4.3s-5.4-1.6-5.4-4.3v-1.4h3.2v1.1c0,1.2,0.8,1.7,2.1,1.7s2.1-0.5,2.1-1.7
	v-2.1c0-1.1-0.7-1.7-1.9-1.7h-2v-3h1.9c1.1,0,1.7-0.6,1.7-1.6v-1.4c0-1-0.7-1.6-1.9-1.6c-1.2,0-1.8,0.6-1.8,1.6v0.7h-3.2v-1.1
	c0-2.7,2.1-4.1,5.1-4.1c3,0,5.1,1.4,5.1,4.1v2c0,1.4-0.7,2.4-1.8,2.9C1180,65.3,1180.7,66.5,1180.7,68z"/>
<path class="st1" d="M1187.1,74.7h-3.2V59.2h-1.8v-3h5L1187.1,74.7L1187.1,74.7z"/>
<path class="st1" d="M1194.4,75.4h-3.7v-3.5h3.7V75.4z"/>
<path class="st1" d="M1196.1,63.3h18.2v2.6h-18.2V63.3z M1213.3,62.4h-2.9v-3.5H1197v-2.7h16.3L1213.3,62.4L1213.3,62.4z
	 M1213.3,67.4v7.4H1197v-7.4H1213.3z M1199.9,72.3h10.5v-2.4h-10.5V72.3z"/>
<path class="st1" d="M1225.9,64l2.7,0.9c-0.8,2.8-3.2,3.8-5.7,2.7l-2.2-1c-1.1-0.6-2-0.2-2.5,1.1l-2.7-0.9c0.9-2.9,3.2-4,5.9-2.8
	l2.2,1C1224.6,65.4,1225.5,65.2,1225.9,64z"/>
<path class="st1" d="M1235.2,58.9c-1.3,0-1.9,0.7-1.9,2v2.4c0.7-0.5,1.8-0.9,2.8-0.9c2.8,0,4.2,1.5,4.2,4.1v3.8
	c0,2.8-1.8,4.7-5.1,4.7c-3.3,0-5.2-1.8-5.2-4.7v-9.6c0-3.1,1.8-4.7,5.2-4.7c3.2,0,4.9,1.7,4.9,4.7h-3.2
	C1236.8,59.5,1236.3,58.9,1235.2,58.9z M1237.1,70v-3c0-1.2-0.5-1.7-1.6-1.7c-1.4,0-2.3,0.8-2.3,1.9V70c0,1.3,0.6,1.9,1.9,1.9
	C1236.4,72,1237.1,71.3,1237.1,70z"/>
<path class="st1" d="M1245.9,75.4h-3.7v-3.5h3.7V75.4z"/>
<path class="st1" d="M1251.2,74.7v-4.3c0-2,0.5-3.1,2-4.1l3.9-2.8c0.8-0.6,1.2-1.4,1.2-2.3c0-1.4-0.6-2.2-1.9-2.2s-1.9,0.8-1.9,2.3
	h-3.2c0-3.7,2-5.2,5.1-5.2s5.2,1.6,5.2,5.2c0,2.2-0.8,3.8-2.4,4.8l-3.7,2.6c-0.7,0.5-1.1,1.1-1.1,2v1.3h7.1v2.9L1251.2,74.7
	L1251.2,74.7z"/>
<path class="st1" d="M1267.1,75.4h-3.7v-3.5h3.7V75.4z"/>
<path class="st0" d="M878.3,93.9c-0.1,0.6-0.2,1.1-0.3,1.6c1.2,1.7,3,3.2,5,4.3l-1.7,2.1c-1.6-0.9-3.2-2.2-4.3-3.6
	c-0.9,1.7-2.3,3-3.9,4c-0.7-0.6-1.4-1.2-2.1-1.8c2.5-1.5,4.1-3.7,4.5-6.6h-3.7v-2.5H882v2.5H878.3z M883.3,110.3h-6.6
	c-3,0-4.8-1.4-4.8-3.7c0-2.2,1.8-3.8,4.8-3.8h6.6c3,0,4.8,1.6,4.8,3.8C888.1,108.9,886.4,110.3,883.3,110.3z M876.7,107.8h6.2
	c1.4,0,2.3-0.3,2.3-1.3c0-1-0.9-1.3-2.3-1.3h-5.7c-1.5,0-2.3,0.3-2.3,1.3C874.9,107.3,875.6,107.8,876.7,107.8z M890.2,95.3V98h-2.5
	v4.3h-2.9V91.1h2.9v4.2L890.2,95.3L890.2,95.3z"/>
<path class="st0" d="M891.9,102.4l-1.8-2.3c4.3-1.5,7.3-4.9,8-9.2l3,0.5c-0.2,1-0.5,2-0.9,2.9c2,2.3,4.9,4.1,8.2,5l-1.6,2.3
	c-3.1-0.8-6-2.6-8-4.8C897.1,99.4,894.6,101.4,891.9,102.4z M908.4,106.7v2.7h-18.2v-2.7h7.5v-5.2h3.1v5.2H908.4z"/>
<path class="st0" d="M915.2,99.1h1.5l-2.3,9.1h-1.5L915.2,99.1z"/>
<path class="st1" d="M922.1,93.9v-2.5h10.2v2.5h-3.8c0,0.7-0.2,1.4-0.3,2.1c1.2,1.8,3.2,3.5,5.2,4.7c-0.6,0.7-1.2,1.4-1.8,2.1
	c-1.6-1-3.2-2.3-4.5-3.8c-0.9,1.8-2.1,3.2-3.6,4.3l-2.2-1.8c2.5-1.6,4-4.2,4.3-7.5L922.1,93.9L922.1,93.9z M922.7,110v-6h2.9v3.4
	h13.3v2.7H922.7z M935.6,95.5v-4.4h2.9v14.2h-2.9V98h-3.7v-2.6C931.9,95.5,935.6,95.5,935.6,95.5z"/>
<path class="st1" d="M942,101.3l-1.4-2.4c3.3-0.6,6.2-2.3,7.6-4.9h-6.6v-2.7h16.3v2.7h-6.4c-0.2,0.4-0.3,0.8-0.6,1.2
	c2,1.6,5,2.8,7.9,3.2l-1.3,2.5c-2.9-0.5-6.1-1.8-8.2-3.5C947.4,99.4,944.7,100.8,942,101.3z M958.8,102.9v2.7h-7.5v4.8h-3.1v-4.8
	h-7.5v-2.7H958.8z"/>
<path class="st1" d="M971.4,92.1v2.4h-11.5v-2.4h4.2v-1.7h2.9v1.7H971.4z M970.6,99.4c0,2.5-2.1,4.2-5,4.2c-2.9,0-4.9-1.8-4.9-4.2
	c0-2.5,2.1-4.2,4.9-4.2C968.5,95.2,970.6,96.9,970.6,99.4z M977,107.3v2.7h-16v-5.7h2.9v3C963.9,107.3,977,107.3,977,107.3z
	 M967.8,99.4c0-1.1-0.8-2-2.2-2c-1.4,0-2.2,0.9-2.2,2c0,1.1,0.8,1.9,2.2,1.9C967,101.3,967.8,100.5,967.8,99.4z M979,96.5v2.8h-2.5
	v6.1h-2.9V91.1h2.9v5.4C976.6,96.5,979,96.5,979,96.5z"/>
<path class="st1" d="M979,102.5v-2.4h7.6v-1.5h-1.9c-3.2,0-5-1.3-5-3.7c0-2.2,1.8-3.8,5-3.8h6.8c3.2,0,4.9,1.5,4.9,3.8
	c0,2.4-1.7,3.7-4.9,3.7h-2v1.5h7.7v2.4L979,102.5L979,102.5z M980,106.3v-2.4h16.3v6.3h-2.9v-3.9H980z M991.5,93.5h-6.8
	c-1.3,0-2,0.6-2,1.4c0,0.8,0.6,1.4,2,1.4h6.8c1.4,0,2-0.6,2-1.4C993.5,94.1,992.9,93.5,991.5,93.5z"/>
<path class="st1" d="M1008.8,91.4v17.8H999V91.4H1008.8z M1001.8,106.6h4.2V94.1h-4.2V106.6z M1015,101v9.1h-2.9v-19h2.9v7.1h2.5
	v2.8H1015z"/>
<path class="st1" d="M1017.5,98.3h18.2v2.2h-18.2L1017.5,98.3L1017.5,98.3z M1022.4,91.1h8.3c2.6,0,4.3,1.1,4.3,3.2
	s-1.7,3.2-4.3,3.2h-8.3c-2.6,0-4.1-1.1-4.1-3.2S1019.8,91.1,1022.4,91.1z M1035,107.8v2.2h-16.5v-5.4h13.4v-1h-13.4v-2.2h16.3v5.3
	h-13.4v1H1035z M1022.4,95.2h8.3c0.8,0,1.3-0.3,1.3-1c0-0.6-0.6-0.9-1.3-0.9h-8.3c-0.8,0-1.2,0.3-1.2,0.9
	C1021.2,94.9,1021.6,95.2,1022.4,95.2z"/>
<path class="st1" d="M1041.4,91.4h9.2v1.5c0,4.8-3.8,8.1-9,8.7l-1.1-2.4c3.8-0.4,6.6-2.2,7.2-5.2h-6.2L1041.4,91.4L1041.4,91.4z
	 M1053.2,110.3h-6.4c-3.1,0-5-1.6-5-3.9c0-2.4,2-4,5-4h6.4c3.1,0,5,1.6,5,4C1058.2,108.7,1056.2,110.3,1053.2,110.3z M1046.8,107.8
	h6.4c1.2,0,2-0.6,2-1.5s-0.8-1.5-2-1.5h-6.4c-1.2,0-2,0.6-2,1.5S1045.5,107.8,1046.8,107.8z M1057.9,91.1v10.7h-2.9v-2h-4v-2.5h4
	v-1.7h-3.8v-2.4h3.8v-2.1H1057.9z"/>
<path class="st1" d="M1060.8,91.4h9.3v4.5c0,5.7-3,10.6-8.2,13.4l-2-2.1c4.6-2.3,7.3-6.3,7.3-11v-2.1h-6.4V91.4z M1077.1,91.1v19
	h-2.9v-19H1077.1z"/>
<path class="st1" d="M1079.9,93.9v-2.5h10.2v2.5h-3.8c0,0.7-0.2,1.4-0.3,2.1c1.2,1.8,3.2,3.5,5.2,4.7c-0.6,0.7-1.2,1.4-1.8,2.1
	c-1.6-1-3.2-2.3-4.5-3.8c-0.9,1.8-2.1,3.2-3.6,4.3l-2.2-1.8c2.5-1.6,4-4.2,4.3-7.5L1079.9,93.9L1079.9,93.9z M1080.5,110v-6h2.9v3.4
	h13.3v2.7H1080.5z M1093.4,95.5v-4.4h2.9v14.2h-2.9V98h-3.7v-2.6C1089.7,95.5,1093.4,95.5,1093.4,95.5z"/>
<path class="st1" d="M1102.6,96.2c0-2.9,2.2-5.1,5.4-5.1s5.4,2.2,5.4,5.1s-2.2,5.1-5.4,5.1C1104.9,101.2,1102.6,99.1,1102.6,96.2z
	 M1109.1,107.6h3.9l0.8-2.3h2.9l-0.8,2.3h3.3v2.3h-16.1v-2.3h3v-2.3h2.9L1109.1,107.6L1109.1,107.6z M1119.2,102.2v2.4h-15.7v-2.4
	H1119.2z M1105.5,96.2c0,1.4,1,2.6,2.5,2.6c1.5,0,2.5-1.1,2.5-2.6s-1-2.6-2.5-2.6C1106.5,93.6,1105.5,94.7,1105.5,96.2z
	 M1121.6,94.7v2.8h-2.5v4h-2.9V91.1h2.9v3.6C1119.1,94.7,1121.6,94.7,1121.6,94.7z"/>
<path class="st1" d="M1138.3,99.2v2.4h-12.7v-2.4h3v-3.4h2.9v3.4H1138.3z M1136.8,98h-2.9v-4.2h-7.5v-2.4h10.5L1136.8,98L1136.8,98z
	 M1137.8,110.3h-6.4c-3,0-4.9-1.2-4.9-3.6c0-2.2,1.9-3.7,4.9-3.7h6.4c3,0,4.9,1.4,4.9,3.7C1142.8,109.1,1140.8,110.3,1137.8,110.3z
	 M1131.4,107.9h6.4c1.1,0,1.9-0.5,1.9-1.2c0-0.8-0.8-1.3-1.9-1.3h-6.4c-1.1,0-1.9,0.5-1.9,1.3
	C1129.5,107.4,1130.3,107.9,1131.4,107.9z M1144.8,95.3v2.8h-2.5v4.2h-2.9V91.1h2.9v4.2H1144.8z"/>
<path class="st1" d="M1152.1,93.9c-0.1,0.6-0.2,1.1-0.3,1.6c1.2,1.7,3,3.2,5,4.3l-1.7,2.1c-1.6-0.9-3.2-2.2-4.3-3.6
	c-0.9,1.7-2.3,3-3.9,4c-0.7-0.6-1.4-1.2-2.1-1.8c2.5-1.5,4.1-3.7,4.5-6.6h-3.7v-2.5h10.3v2.5H1152.1z M1157.2,110.3h-6.6
	c-3,0-4.8-1.4-4.8-3.7c0-2.2,1.8-3.8,4.8-3.8h6.6c3.1,0,4.8,1.6,4.8,3.8C1162,108.9,1160.2,110.3,1157.2,110.3z M1150.6,107.8h6.2
	c1.4,0,2.3-0.3,2.3-1.3c0-1-0.9-1.3-2.3-1.3h-5.7c-1.5,0-2.3,0.3-2.3,1.3C1148.8,107.3,1149.4,107.8,1150.6,107.8z M1164,95.3V98
	h-2.5v4.3h-2.9V91.1h2.9v4.2L1164,95.3L1164,95.3z"/>
<path class="st1" d="M1178.5,105.7c2,1.2,4.9,1.8,7.4,2l-0.8,2.3c-2.8-0.2-6-1.1-8.3-2.6c-2,1.6-4.7,2.4-7.2,2.6l-1.1-2.3
	c2.9-0.2,5.5-1,7.2-2.7h-6.4v-2.4h6.3V101h3v1.7h6.4v2.4h-6.2C1178.8,105.3,1178.6,105.5,1178.5,105.7z M1178.7,91.4v8.8h-9.9v-8.8
	H1178.7z M1171.6,97.8h4.3v-3.9h-4.3V97.8z M1185.2,91.1v10.2h-2.9V91.1H1185.2z"/>
<path class="st1" d="M1192,93.9v-2.5h10.2v2.5h-3.8c0,0.7-0.2,1.4-0.3,2.1c1.2,1.8,3.2,3.5,5.2,4.7c-0.6,0.7-1.2,1.4-1.8,2.1
	c-1.6-1-3.2-2.3-4.5-3.8c-0.9,1.8-2.1,3.2-3.6,4.3l-2.2-1.8c2.5-1.6,4-4.2,4.3-7.5L1192,93.9L1192,93.9z M1192.6,110v-6h2.9v3.4
	h13.3v2.7H1192.6z M1205.5,95.5v-4.4h2.9v14.2h-2.9V98h-3.7v-2.6C1201.8,95.5,1205.5,95.5,1205.5,95.5z"/>
<path class="st1" d="M1211.9,101.3l-1.4-2.4c3.3-0.6,6.2-2.3,7.6-4.9h-6.6v-2.7h16.3v2.7h-6.4c-0.2,0.4-0.3,0.8-0.6,1.2
	c2,1.6,5,2.8,7.9,3.2l-1.3,2.5c-2.9-0.5-6.1-1.8-8.2-3.5C1217.3,99.4,1214.6,100.8,1211.9,101.3z M1228.7,102.9v2.7h-7.5v4.8h-3.1
	v-4.8h-7.5v-2.7H1228.7z"/>
<path class="st1" d="M1232.1,109.5l-2.7-1.3c2.8-5.1,3.7-10.9,3.7-16.9h2.9c0,2.1-0.1,4.2-0.4,6.4c1,3.6,3,7.3,5.6,9.8l-2.2,1.9
	c-1.8-1.8-3.3-4.1-4.3-6.6C1234.1,105.2,1233.2,107.4,1232.1,109.5z M1246.9,91.1v19h-2.9v-19H1246.9z"/>
<path class="st1" d="M1253.2,95.8c0-2.8,2.2-4.7,5.2-4.7c3,0,5.2,2,5.2,4.7c0,2.7-2.2,4.7-5.2,4.7
	C1255.3,100.5,1253.2,98.5,1253.2,95.8z M1270.5,107.9v2.2h-16.2v-5.5h12.9v-1.1h-12.9v-2.2h15.8v5.5h-12.9v1.2H1270.5z M1256,95.8
	c0,1.3,1,2.2,2.3,2.2c1.3,0,2.3-0.9,2.3-2.2s-1-2.2-2.3-2.2C1257,93.6,1256,94.5,1256,95.8z M1270.1,91.1v9.4h-2.9v-9.4H1270.1z"/>
<path class="st1" d="M1272.6,60.5c0-2.8,2.2-4.7,5.2-4.7c3,0,5.2,2,5.2,4.7c0,2.7-2.2,4.7-5.2,4.7
	C1274.8,65.2,1272.6,63.2,1272.6,60.5z M1289.9,72.6v2.2h-16.2v-5.5h12.9v-1.1h-12.9v-2.2h15.8v5.5h-12.9v1.2H1289.9z M1275.5,60.5
	c0,1.3,1,2.2,2.3,2.2c1.3,0,2.3-0.9,2.3-2.2s-1-2.2-2.3-2.2C1276.4,58.2,1275.5,59.1,1275.5,60.5z M1289.5,55.8v9.4h-2.9v-9.4
	H1289.5z"/>
<path class="st1" d="M1284.7,99.3v2.3h-5.9v2.8h-2.9v-2.8h-3.7v-2.3H1284.7z M1279.4,98.4h-2.3c-2.8,0-4.4-1.4-4.4-3.7
	c0-2.2,1.7-3.7,4.4-3.7h2.3c2.8,0,4.4,1.4,4.4,3.7C1283.8,97,1282.2,98.4,1279.4,98.4z M1289.7,107.4v2.6h-16.2v-5.2h2.9v2.6H1289.7
	z M1277.1,96.1h2.3c1,0,1.7-0.5,1.7-1.4s-0.7-1.3-1.7-1.3h-2.3c-1,0-1.7,0.5-1.7,1.3C1275.5,95.7,1276.2,96.1,1277.1,96.1z
	 M1286.4,104.7h-4.3v-2.2h4.3V91.1h2.9v14.7h-2.9V104.7z"/>
<path class="st0" d="M872.4,136.5l-1.4-2.4c3.3-0.6,6.2-2.3,7.6-4.9h-6.6v-2.7h16.3v2.7h-6.4c-0.2,0.4-0.3,0.8-0.6,1.2
	c2,1.6,5,2.8,7.9,3.2l-1.3,2.5c-2.9-0.5-6.1-1.8-8.2-3.5C877.8,134.6,875.1,136,872.4,136.5z M889.2,138v2.7h-7.5v4.8h-3.1v-4.8H871
	V138H889.2z"/>
<path class="st0" d="M897.9,130.3c-0.1,0.3-0.2,0.7-0.3,1c1.2,1.7,3.2,3.4,5.2,4.4c-0.5,0.8-1.1,1.5-1.7,2.2
	c-1.8-0.9-3.5-2.4-4.8-3.9c-1,1.7-2.5,3.1-4.1,4.1l-2.2-2c2.4-1.3,4.1-3.4,4.8-5.8H891v-2.6h4v-2.2h2.9v2.2h4.1v2.6L897.9,130.3
	L897.9,130.3z M903.2,141.9v2.7h-13v-2.7h4.7v-4.2h2.9v4.2H903.2z M907.4,126.3v19h-2.9v-19C904.5,126.3,907.4,126.3,907.4,126.3z"
	/>
<path class="st0" d="M915,134.3h1.5l-2.3,9.1h-1.5L915,134.3z"/>
<path class="st1" d="M930.4,127.1v2.4h-9.2v-2.4h3.1v-1.5h2.9v1.5H930.4z M930.1,133.9c0,2.3-1.8,3.8-4.2,3.8
	c-2.4,0-4.2-1.5-4.2-3.8c0-2.3,1.8-3.8,4.2-3.8C928.2,130.1,930.1,131.6,930.1,133.9z M933.9,145.5h-7.2c-2.9,0-4.6-1.2-4.6-3.5
	c0-2.1,1.7-3.5,4.6-3.5h7.2c2.8,0,4.6,1.4,4.6,3.5C938.4,144.3,936.7,145.5,933.9,145.5z M927.4,133.9c0-0.9-0.6-1.6-1.6-1.6
	c-1,0-1.6,0.7-1.6,1.6c0,0.9,0.6,1.5,1.6,1.5C926.8,135.4,927.4,134.8,927.4,133.9z M926.6,143.1h6.7c1.3,0,2.1-0.2,2.1-1.1
	s-0.8-1.1-2.1-1.1h-6.2c-1.4,0-2.1,0.3-2.1,1.1C925,142.6,925.6,143.1,926.6,143.1z M938.1,126.3v11.5h-2.8v-4.6h-1.7v4.6H931v-11.4
	h2.7v4.2h1.7v-4.3C935.4,126.3,938.1,126.3,938.1,126.3z"/>
<path class="st1" d="M947.4,129.1c-0.1,0.6-0.2,1.1-0.3,1.6c1.2,1.7,3,3.2,5,4.3l-1.7,2.1c-1.6-0.9-3.2-2.2-4.3-3.6
	c-0.9,1.6-2.2,3-3.8,4l-2.1-1.8c2.5-1.5,4-3.7,4.4-6.6h-3.6v-2.5h10.2v2.5H947.4z M952.8,145.5H946c-3,0-4.8-1.4-4.8-3.7
	c0-2.2,1.8-3.8,4.8-3.8h6.8c3.1,0,4.8,1.6,4.8,3.8C957.7,144.1,955.9,145.5,952.8,145.5z M946,143h6.3c1.5,0,2.3-0.4,2.3-1.3
	c0-1-0.9-1.3-2.3-1.3h-5.8c-1.5,0-2.3,0.3-2.3,1.3C944.2,142.5,944.9,143,946,143z M957.3,126.3v11.1h-2.9v-4.6h-3.7v-2.5h3.7v-4
	L957.3,126.3L957.3,126.3z"/>
<path class="st1" d="M959.7,132.2v-0.8c0-3,2.2-5.1,5.4-5.1s5.4,2.2,5.4,5.1v0.8c0,2.9-2.2,5.1-5.4,5.1
	C961.9,137.3,959.7,135.2,959.7,132.2z M976.6,142.5v2.7h-16v-6.2h2.9v3.6H976.6z M962.5,131.4v0.8c0,1.5,1,2.7,2.5,2.7
	c1.5,0,2.5-1.2,2.5-2.7v-0.8c0-1.5-1-2.7-2.5-2.7C963.5,128.8,962.5,129.9,962.5,131.4z M978.6,131.5v2.8h-2.5v6.1h-2.9v-14.1h2.9
	v5.2L978.6,131.5L978.6,131.5z"/>
<path class="st1" d="M979.4,129.1v-2.5h10.2v2.5h-3.8c0,0.7-0.2,1.4-0.3,2.1c1.2,1.8,3.2,3.5,5.2,4.7c-0.6,0.7-1.2,1.4-1.8,2.1
	c-1.6-1-3.2-2.4-4.5-3.8c-0.9,1.8-2.1,3.2-3.6,4.3l-2.2-1.8c2.5-1.6,4-4.2,4.3-7.5L979.4,129.1L979.4,129.1z M980,145.2v-6h2.9v3.4
	h13.3v2.7L980,145.2L980,145.2z M992.9,130.7v-4.4h2.9v14.2h-2.9v-7.2h-3.7v-2.6H992.9z"/>
<path class="st1" d="M1016.1,138.3v2.7h-7.5v4.6h-3.1v-4.6h-7.5v-2.7H1016.1z M1015.2,126.6v10.1h-16.3v-10.1h2.9v2.4h10.5v-2.4
	C1012.2,126.6,1015.2,126.6,1015.2,126.6z M1001.8,134h10.5v-2.4h-10.5V134z"/>
<path class="st1" d="M1017.1,146.3l-0.7-1.4c1.1-0.5,1.3-1.2,1.3-2.8v-1.1h3.2v1.3C1020.9,144.7,1019.7,146,1017.1,146.3z"/>
<g>
	<path class="st1" d="M1026.8,129.1v-2.5h10.2v2.5h-3.8c0,0.7-0.2,1.4-0.3,2.1c1.2,1.8,3.2,3.5,5.2,4.7c-0.6,0.7-1.2,1.4-1.8,2.1
		c-1.6-1-3.2-2.4-4.5-3.8c-0.9,1.8-2.1,3.2-3.6,4.3l-2.2-1.8c2.5-1.6,4-4.2,4.3-7.5L1026.8,129.1L1026.8,129.1z M1027.4,145.2v-6
		h2.9v3.4h13.3v2.7L1027.4,145.2L1027.4,145.2z M1040.3,130.7v-4.4h2.9v14.2h-2.9v-7.2h-3.7v-2.6H1040.3z"/>
	<path class="st1" d="M1046.7,136.5l-1.4-2.4c3.3-0.6,6.2-2.3,7.6-4.9h-6.6v-2.7h16.3v2.7h-6.4c-0.2,0.4-0.3,0.8-0.6,1.2
		c2,1.6,5,2.8,7.9,3.2l-1.3,2.5c-2.9-0.5-6.1-1.8-8.2-3.5C1052.1,134.6,1049.4,136,1046.7,136.5z M1063.5,138v2.7h-7.5v4.8h-3.1
		v-4.8h-7.5V138H1063.5z"/>
	<path class="st1" d="M1066.9,144.7l-2.7-1.3c2.8-5.1,3.7-10.9,3.7-16.9h2.9c0,2.1-0.1,4.2-0.4,6.4c1,3.6,3,7.3,5.6,9.8l-2.2,1.9
		c-1.8-1.8-3.3-4.1-4.3-6.6C1068.9,140.4,1068.1,142.6,1066.9,144.7z M1081.7,126.3v19h-2.9v-19
		C1078.8,126.3,1081.7,126.3,1081.7,126.3z"/>
</g>
<g>
	<path class="st1" d="M1138.3,129.1v-2.5h10.2v2.5h-3.8c0,0.7-0.2,1.4-0.3,2.1c1.2,1.8,3.2,3.5,5.2,4.7c-0.6,0.7-1.2,1.4-1.8,2.1
		c-1.6-1-3.2-2.4-4.5-3.8c-0.9,1.8-2.1,3.2-3.6,4.3l-2.2-1.8c2.5-1.6,4-4.2,4.3-7.5L1138.3,129.1L1138.3,129.1z M1138.9,145.2v-6
		h2.9v3.4h13.3v2.7L1138.9,145.2L1138.9,145.2z M1151.8,130.7v-4.4h2.9v14.2h-2.9v-7.2h-3.7v-2.6H1151.8z"/>
	<path class="st1" d="M1158.2,136.5l-1.4-2.4c3.3-0.6,6.2-2.3,7.6-4.9h-6.6v-2.7h16.3v2.7h-6.4c-0.2,0.4-0.3,0.8-0.6,1.2
		c2,1.6,5,2.8,7.9,3.2l-1.3,2.5c-2.9-0.5-6.1-1.8-8.2-3.5C1163.6,134.6,1160.9,136,1158.2,136.5z M1175,138v2.7h-7.5v4.8h-3.1v-4.8
		h-7.5V138H1175z"/>
	<path class="st1" d="M1178.4,144.7l-2.7-1.3c2.8-5.1,3.7-10.9,3.7-16.9h2.9c0,2.1-0.1,4.2-0.4,6.4c1,3.6,3,7.3,5.6,9.8l-2.2,1.9
		c-1.8-1.8-3.3-4.1-4.3-6.6C1180.4,140.4,1179.5,142.6,1178.4,144.7z M1193.2,126.3v19h-2.9v-19
		C1190.3,126.3,1193.2,126.3,1193.2,126.3z"/>
</g>
<path class="st0" d="M1088.9,136.5l-1.4-2.4c3.3-0.6,6.2-2.3,7.6-4.9h-6.6v-2.7h16.3v2.7h-6.4c-0.2,0.4-0.3,0.8-0.6,1.2
	c2,1.6,5,2.8,7.9,3.2l-1.3,2.5c-2.9-0.5-6.1-1.8-8.2-3.5C1094.4,134.6,1091.7,136,1088.9,136.5z M1105.7,138v2.7h-7.5v4.8h-3.1v-4.8
	h-7.5V138H1105.7z"/>
<path class="st0" d="M1119.6,135.4v2.6h-12.7v-2.6h3v-4h2.9v4H1119.6z M1118,134h-2.9v-4.9h-7.5v-2.5h10.5L1118,134L1118,134z
	 M1123.9,142.5v2.6h-16v-5.9h2.9v3.2H1123.9z M1126,131.5v2.8h-2.5v6.2h-2.9v-14.2h2.9v5.2H1126z"/>
<path class="st0" d="M1131.5,134.3h1.5l-2.3,9.1h-1.5L1131.5,134.3z"/>
<path class="st1" d="M1198.4,144.7l-2.7-1.3c2.8-5.1,3.7-10.9,3.7-16.9h2.9c0,2.1-0.1,4.2-0.4,6.4c1,3.6,3,7.3,5.6,9.8l-2.2,1.9
	c-1.8-1.8-3.3-4.1-4.3-6.6C1200.4,140.4,1199.5,142.6,1198.4,144.7z M1212.8,136.2v9.1h-2.9v-19h2.9v7.1h2.5v2.8H1212.8z"/>
<path class="st1" d="M1228.3,141.9v2.7h-13.1v-2.7h4.9v-2.5h2.9v2.5H1228.3z M1227.5,127.4v2.4h-11.9v-2.4h4.4v-1.8h3v1.8H1227.5z
	 M1226.8,134.6c0,2.6-2.1,4.2-5.1,4.2h-0.3c-3,0-5.1-1.7-5.1-4.2c0-2.5,2.1-4.2,5.1-4.2h0.3C1224.8,130.4,1226.8,132.1,1226.8,134.6
	z M1224,134.6c0-1.1-0.9-2-2.3-2h-0.3c-1.3,0-2.3,0.8-2.3,2c0,1.2,0.9,2,2.3,2h0.3C1223,136.6,1224,135.8,1224,134.6z M1232.4,126.3
	v19h-2.9v-19C1229.5,126.3,1232.4,126.3,1232.4,126.3z"/>
<path class="st1" d="M1246.1,127.2v2.4h-11.5v-2.4h4.2v-1.7h2.9v1.7H1246.1z M1240.5,138.4h-0.4c-2.7,0-4.8-1.6-4.8-4.1
	c0-2.5,2.1-4.1,4.8-4.1h0.4c2.7,0,4.8,1.6,4.8,4.1C1245.2,136.8,1243.2,138.4,1240.5,138.4z M1251.6,139.2v6.2h-2.9v-3.6h-13.1v-2.6
	H1251.6z M1240.1,136.1h0.4c1.1,0,1.9-0.8,1.9-1.8c0-1-0.8-1.8-1.9-1.8h-0.4c-1.2,0-2,0.8-2,1.8
	C1238.1,135.3,1238.9,136.1,1240.1,136.1z M1251.6,126.3v12.1h-2.9v-1.8h-2.8v-2.4h2.8v-1.7h-2.8v-2.4h2.8v-3.8H1251.6z"/>
<path class="st1" d="M1257.8,126.3h2.9c0,1.4-0.2,2.8-0.5,4.1c1.3,2,3.3,3.9,5.4,5l-1.7,2.2c-1.7-1-3.4-2.5-4.7-4.1
	c-0.9,1.9-2.1,3.4-3.7,4.6l-2.2-1.9C1256.2,134.1,1257.8,130.6,1257.8,126.3z M1271.3,142.5v2.7h-16.2v-6.2h2.9v3.6H1271.3z
	 M1270.8,126.3v14.1h-2.9v-14.1C1267.9,126.3,1270.8,126.3,1270.8,126.3z"/>
<path class="st1" d="M1275.9,126.3h2.8c0,1.4-0.1,2.8-0.3,4.1c1,2,2.5,3.9,4.3,5.2l-1.8,1.9c-1.2-0.9-2.4-2.1-3.4-3.5
	c-0.6,1.6-1.4,3.1-2.6,4.2l-2.3-1.4C1275.1,134.3,1275.9,130.4,1275.9,126.3z M1290.4,142.5v2.7h-16.1v-6.2h2.9v3.6H1290.4z
	 M1285.8,126.4v13.1h-2.7v-7.3h-2.8v-2.6h2.8v-3.2C1283.1,126.4,1285.8,126.4,1285.8,126.4z M1287.3,139.8v-13.5h2.8v13.5H1287.3z"
	/>
<path class="st1" d="M1303,144.4h-10.1v-17.8h9.2v2.7h-6.3v4.6h6.1v2.7h-6.1v5.3h7.2V144.4z M1306.4,136.4h-3.6v-2.8h3.6v-7.4h2.9
	v19h-2.9V136.4z"/>
<g>
	<path class="st0" d="M429,146.1c5.8,0,11.5,0.5,17.2,1.5c12.2,2.1,24,1.7,34.9-1.4v-12.5c-8.7,2.8-17.9,3.7-27.4,2.4
		c-9.6-1.2-18.3-1.4-25.8-0.5l-0.9,0.1V131h51.7v-26.9h-70.4v11.7h51.8v4.2h-51.6v28.2C415.4,146.8,422.2,146.1,429,146.1z
		 M460.3,100.2h18.5V57.5h-18.5V100.2z M437.4,99.8h20c-4.3-5.9-8.6-12.4-12.9-19.2c-4.7-7.4-7-14.2-7-20.1v-2.8h-19v2.8
		c0,5.9-2.4,12.6-7,20.1c-4.3,6.8-8.6,13.3-12.9,19.2h20l4.9-6.6c1.7-2.3,3-4.3,4-6.1l0.7-1.3l0.7,1.3c1,1.8,2.3,3.8,3.9,6.1
		C434.3,95.4,435.8,97.6,437.4,99.8z"/>
</g>
<g>
	<path class="st0" d="M554,146.8h16.3V57.5H554v30l-4.3,1.6V57.5h-16.3v73.3l-0.4,0.2c-0.7,0.4-1.5,0.8-2.4,1
		c-0.9,0.2-1.9,0.3-3,0.4l-0.9,0.1l0.5-56.5h-15.6l-0.5,56.6H507L506.5,76h-14.7l0.5,56.6H488v13.7h32.6c2.3,0,4.5-0.1,6.5-0.2
		c1.9-0.2,3.7-0.7,5.2-1.6l1.2-0.7v3.1h16.3v-42.9l4.3-1.6L554,146.8L554,146.8z M488.4,71.8h41.5V57.8h-41.5L488.4,71.8L488.4,71.8
		z"/>
</g>
<g>
	<path class="st0" d="M630.6,147h18.5v-37.3h-70.2v13.7h51.7L630.6,147L630.6,147z M630.5,105.9H649v-16l0.5-0.2
		c2.6-1,5.3-1.3,8-1.2c2.3,0.1,4.2-0.5,5.8-2.1V71.7c-2.1,1.1-4.3,1.7-6.6,1.7c-2.4,0-4.7,0.3-6.7,1.1l-1.1,0.4V57.5h-18.5
		L630.5,105.9L630.5,105.9z M577.3,105h47.4V57.6h-18.5v9.5h-10.4v-9.5h-18.5V105z M606.2,91.4h-10.4V80.8h10.4L606.2,91.4
		L606.2,91.4z"/>
</g>
<g>
	<path class="st0" d="M688.9,146.4c6.1,0,12.3,0.5,18.4,1.5c12.7,2,23.5,1.1,32.2-2.8l-0.1-32.9h-70.5v36
		C675.5,147,682.2,146.4,688.9,146.4z M711.8,134.8c-2.8,0-5.5-0.2-8.3-0.7c-5.5-0.9-10.6-0.9-15.1-0.1l-0.9,0.2v-8.6h33.6l-0.1,8.4
		l-0.7,0.1C717.5,134.5,714.7,134.8,711.8,134.8z M720.7,108.4h18.5V90l0.5-0.2c2.6-1,5.3-1.3,8-1.2c2.3,0.1,4.2-0.5,5.8-2.1V71.8
		c-2.1,1.1-4.3,1.7-6.6,1.7c-2.4,0-4.7,0.3-6.7,1.1l-1.1,0.4V57.5h-18.5v34.3l-0.6,0.2c-2,0.6-4.5,1.1-7.3,1.4
		c-2.8,0.3-5.2,0.5-7.1,0.5H686v-4.5h28.9V57.8h-47.7v13.8h29.2V76h-28.9v31.8h36.9c3,0,5.8-0.2,8.2-0.4c2.4-0.3,4.8-0.8,7-1.4
		l1-0.3L720.7,108.4L720.7,108.4z"/>
</g>
<g>
	<path class="st0" d="M816.1,146.9h18.4V57.5h-18.4v73.3l-0.4,0.2c-0.7,0.4-2.2,0.7-4.4,1.1c-2.2,0.3-4.3,0.5-6.5,0.5h-11.2v-10.7
		l0.6-0.2c4.2-1.3,7.7-3.5,10.5-6.6c2.7-3.1,4.1-7.4,4.1-12.8V91c0-3-0.4-5.6-1.3-7.9c-0.8-2.2-2.1-4.1-3.6-5.6l-1.4-1.4h8.4V62.8
		h-17.2V52.6h-18.4v10.2h-18.5v13.3h10l-1.4,1.4c-1.6,1.5-2.8,3.4-3.7,5.6c-0.9,2.2-1.3,4.9-1.3,7.9v11.3c0,5.4,1.4,9.7,4.2,12.7
		c2.8,3.1,6.3,5.3,10.4,6.6l0.6,0.2v10.8H758v13.7h46.2c2.7,0,5-0.1,6.8-0.4c1.8-0.3,3.1-0.6,4-0.9l1.1-0.4V146.9z M784.7,108.8
		c-1.5,0-2.9-0.5-4.1-1.5c-1.3-1-1.9-2.9-1.9-5.7V93c0-2.8,0.6-4.6,1.9-5.7c1.2-1,2.6-1.5,4.1-1.5c1.4,0,2.7,0.4,3.8,1.3
		c1.2,0.9,1.7,2.8,1.7,5.8v8.7c0,2.9-0.6,4.8-1.7,5.8C787.5,108.4,786.2,108.8,784.7,108.8z"/>
</g>
<g>
	<path class="st1" d="M118.4,127.2h17.7c1.8-3.8,2.9-7.2,3.3-10.1c0.5-3.1,0.7-8.1,0.7-15V57.6h-74v13.8h55.4v31.4
		c0,5.4-0.2,10.2-0.7,14.2C120.4,120.8,119.6,124.2,118.4,127.2z"/>
	<g>
		<path class="st1" d="M213.5,146.9h16.7V57.6h-16.7v29.9l-4.3,1.6V57.6h-16.7v72l-0.6,0.2c-3,1-6.2,1.8-9.6,2.3
			c-3.4,0.5-6.1,0.8-8.3,0.8h-5.9v-25.3h19.5V57.8h-37.4v13.8H170v22.4h-19.3v52.6h22.2c3.4,0,6.8-0.2,10-0.7l0,0
			c3.1-0.4,6.1-1.2,8.6-2.2l1.1-0.4v3.6h16.7V104l4.3-1.6L213.5,146.9L213.5,146.9z"/>
	</g>
	<g>
		<path class="st1" d="M296.1,146.9h18.4V57.5h-18.4v25.1l-0.5,0.2c-2.8,1.1-5.9,1.7-9.2,1.7c-2.9,0.1-5.4,0.6-7.4,1.6v15.2
			c2.2-1.1,4.9-1.7,7.8-1.7c3.2,0,6-0.5,8.2-1.5l1.1-0.5L296.1,146.9L296.1,146.9z M273.1,146.9h19.2c-3.9-6.5-8-14.9-12.2-25
			c-4.5-10.8-6.8-19.4-6.8-25.7V57.6h-19.1v38.6c0,6.3-2.5,14.9-7.3,25.7c-4.5,10.1-8.8,18.4-12.7,25h19.6c1.3-2.4,2.9-5.4,4.7-9
			c1.9-3.8,3.4-7.2,4.5-10.2l0.8-2.1l0.7,2.1c1,3.1,2.4,6.5,4.1,10.2C270.3,141.5,271.8,144.5,273.1,146.9z"/>
	</g>
	<path class="st1" d="M374.4,71.7c-1-3-2.5-5.6-4.5-7.6c-2-2.1-4.7-3.7-7.9-4.8c-3.2-1.1-7.1-1.7-11.7-1.7c-4,0-7.6,0.7-10.7,2.1
		c-3.1,1.4-5.8,3.3-8,5.7s-3.9,5.2-5,8.5c-1.2,3.2-1.7,6.7-1.7,10.3H344c0-3.4,0.6-6,1.7-7.9c1.1-1.9,2.6-2.9,4.5-2.9
		c2.6,0,4.4,0.8,5.2,2.5c0.8,1.7,1.2,3.9,1.2,6.8c0,1.2-0.2,2.6-0.6,4.2c-0.4,1.6-1.1,3.3-2.2,5.2l-7.5,12.9
		c-1.5,2.8-2.7,5.4-3.5,7.9c-0.8,2.5-1.2,4.7-1.2,6.5v3h18.2v-3c0-1.2,0.2-2.6,0.6-3.9c0.4-1.3,1-2.5,1.7-3.4l7.6-12.9
		c0.7-1.1,1.3-2.2,2-3.6s1.3-2.7,1.9-4.2s1.1-3,1.5-4.7c0.4-1.6,0.6-3.3,0.6-5C375.8,78,375.3,74.7,374.4,71.7z"/>
	<rect x="341.6" y="128.6" class="st1" width="18.2" height="18.3"/>
	<rect x="62" y="133.2" class="st1" width="82.8" height="13.7"/>
</g>
</svg>
