<?xml version="1.0" encoding="utf-8"?>
<!-- Generator: Adobe Illustrator 23.0.3, SVG Export Plug-In . SVG Version: 6.00 Build 0)  -->
<svg version="1.1" id="레이어_1" xmlns="http://www.w3.org/2000/svg" xmlns:xlink="http://www.w3.org/1999/xlink" x="0px"
	 y="0px" viewBox="0 0 687.18 797.8" style="enable-background:new 0 0 687.18 797.8;" xml:space="preserve">
<style type="text/css">
	.st0{fill:#F79884;}
	.st1{fill:#78ADD9;}
	.st2{fill:#1F2144;}
	.st3{fill:#464A8A;}
	.st4{fill:#E05748;}
	.st5{fill:#F5E4D5;}
	.st6{fill:#DB745E;}
</style>
<g>
	<path class="st0" d="M392.3,706.63c-2.48,1.48-1.85,0.48-3.19,3.23c-0.19,0.4-0.27,0.86-0.27,1.31c-1.45,0.59-2.47,2.05-1.63,3.89
		c6.8,14.97,11.53,30.79,18.91,45.51c0.94,1.88,3,2.75,4.88,1.52c3.43-2.26,2.2-1.9,5.19-4.71c0.79-0.74,0.12-7.31-0.25-8.26
		c-2.96-7.8-13.71-33.83-17.42-41.39C397.56,705.77,394.21,705.49,392.3,706.63z"/>
	<path class="st1" d="M575.58,228.44c-9.48-2.5-19.85-4.94-29.69-4.47c-8.02,0.39-16.03,3.97-18.02,12.43
		c-1.8,7.68,1.96,15.57,5.45,22.18c10.56,19.99,23.36,38.83,37.93,56.11c16.44,19.49,35.25,36.91,55.83,51.96
		c2.25,1.65,4.61-1.48,3.18-3.43c0.54-1.12,0.64-1.9,0.04-3.12c-0.39-0.78-1.11-1.2-1.91-1.29c0.26-3.54,1.33-16.31,1.29-17.62
		c-0.18-5.94-1.14-11.84-2.9-17.52c-3.54-11.4-10.02-21.04-18.54-29.32c-4.41-4.28-22.29-23.85-24.32-26.27
		c-1.9-2.26-5.73-5.56-5.82-8.56c-0.13-4.03,37.62,10.73,43.59,12.26c1.91,0.49,4.57-5.67,4.47-7.15c0.08-0.12,0.16-0.24,0.23-0.38
		c1.64-3.46,3.93-6.48,6.72-9.07c3.3,2.66,7.43,5.9,7.78,5.57c-2.25,2.08,0.91,5.67,3.18,3.57
		C652.25,256.75,585.44,231.04,575.58,228.44z"/>
	<path class="st1" d="M219.44,29.55c-16.99,1.52-33.98,3.03-50.98,4.55c-8.41,0.75-16.84,1.38-25.23,2.26
		c-5.79,0.61-11.82,1.96-15.28,7.09c-3.45,5.12-3.47,11.78-3.64,17.72c-0.24,8.48-0.47,16.96-0.69,25.44
		c-0.33,12.23-1.21,47.15-1.33,51.88c-0.6,24.52-2.12,93.7-2.31,103.26c-0.69,34.26-1.31,68.51-1.85,102.77
		c-0.54,34.43-1.01,68.85-1.4,103.28c-0.05,4.32-0.1,8.65-0.14,12.97c-0.01,0.64,0.99,0.64,1,0c0.37-33.6,0.8-67.19,1.31-100.79
		c0.51-33.59,1.09-67.19,1.74-100.78c0.3-15.42,0.62-30.83,0.95-46.25c32.21-2.67,64.25-7.12,95.96-13.36
		c0.63-0.12,0.36-1.09-0.27-0.96c-31.62,6.22-63.56,10.67-95.67,13.33c0.38-17.84,0.78-35.68,1.2-53.52
		c0.27-11.42,0.49-22.84,0.73-34.26c30.38-4.07,60.76-8.15,91.14-12.22c0.63-0.08,0.64-1.09,0-1c-30.37,4.07-60.75,8.14-91.12,12.21
		c0.45-21.79,0.93-43.59,1.86-65.35c0.29-6.8,1.44-14.66,8.19-18.07c3.34-1.69,7.13-2.15,10.81-2.5c4.22-0.4,8.44-0.75,12.66-1.13
		c16.66-1.49,33.32-2.97,49.99-4.46c4.12-0.37,8.25-0.74,12.37-1.1C220.07,30.49,220.08,29.49,219.44,29.55z"/>
	<path class="st2" d="M420.51,758.1c0.03-9.51-0.08-9.77-1.77-9.72c-3.94,0.1-13.42-0.82-17.69-1.11c-1.89,0-2.62,1.19-2.58,1.82
		c0.34,4.93-4.16,4.56-10.33,7.16c-5.26,2.22-10.31,4.07-18.6,5.95c-7.38,1.67-6.57,0.55-6.93,5.19c-0.26,3.32,7.23,3.27,13.29,3.32
		c0.96,0.01,1.91,0.03,2.86,0.05c2.86,0.06,5.71-0.33,8.45-1.14c0.5-0.15,1-0.3,1.5-0.45c4.57-1.38,8.65-1.57,13.4-1.17
		c0.23,0.02,0.5,0.19,0.53,0.45c0.05,0.5,0.05,0.78,0.08,1.28c0.06,0.89,0.8,1.58,1.69,1.6c1.95,0.05,3.92,0.09,5.9,0.11
		c3.73,0.03,8.71,0.23,9.33-0.67c0.69-1,0.42-1.21,0.47-2.27C420.23,765.66,420.5,761.3,420.51,758.1z"/>
	<path class="st3" d="M387.81,756.46c-0.24-0.59-1.13-0.13-0.89,0.46c0.56,1.37,1.15,2.73,1.76,4.07c0.27,0.59,1.15,0.12,0.89-0.46
		C388.95,759.19,388.37,757.83,387.81,756.46z M392.17,754.59c-0.35-0.53-1.25-0.07-0.89,0.46c0.86,1.29,1.62,2.62,2.29,4.02
		c0.28,0.58,1.17,0.12,0.89-0.46C393.79,757.21,393.03,755.88,392.17,754.59z M400.05,755.41c-1.15-1.03-2.37-1.97-3.66-2.82
		c-0.53-0.35-1.18,0.41-0.64,0.77c1.29,0.85,2.51,1.79,3.66,2.82C399.89,756.61,400.53,755.84,400.05,755.41z"/>
	<path class="st3" d="M420.32,769.02c0.04-0.84,0.03-1.8,0-2.8c-4.61,0.62-10.66,0.09-15.28-0.32c-4.56-0.4-8.98-0.39-13.52,0.16
		c-9.62,1.16-18.98,1.55-28.59,0.29c-0.03,0.43-0.06,0.94-0.1,1.55c-0.26,3.32,7.23,3.27,13.29,3.32c0.96,0.01,1.91,0.03,2.86,0.05
		c2.86,0.06,5.71-0.33,8.45-1.14c0.5-0.15,1-0.3,1.5-0.45c4.57-1.38,8.65-1.57,13.4-1.17c0.23,0.02,0.5,0.19,0.53,0.45
		c0.05,0.5,0.05,0.78,0.08,1.28c0.06,0.89,0.8,1.58,1.69,1.6c1.95,0.05,3.92,0.09,5.9,0.11c3.73,0.03,8.71,0.23,9.33-0.67
		C420.54,770.28,420.28,770.07,420.32,769.02z"/>
	<path class="st2" d="M586.81,511.15c-3.8-2.6-10.09-2.53-14.53-3.07c-13.02-1.57-26.17-1.96-39.26-1.19
		c-24.91,1.47-57.31,15.78-57.37,16.44c-21.49,2.06-59.34,5.88-80.81,8.13c-11.21,1.17-22.43,2.35-33.62,3.69
		c-8.01,0.96-29.32,5.52-39.83,21.21c-5.11,7.63-7.29,16.78-8.73,25.75c-1.65,10.32-1.84,20.99-0.74,31.38
		c0.55,5.18,1.48,10.31,2.38,15.44c5.07-1.81,10.14-3.62,15.21-5.43c1.03,1.1,2.52,1.66,4.19,0.97c5.95-2.47,11.9-4.94,17.84-7.42
		c2.92-1.09,5.87-2.12,8.83-3.1c0.02,0.01,0.04,0.01,0.05,0.02c2.18,0.65,4.21,0.68,6.14,0c0.18,0.84,0.35,1.69,0.5,2.54
		c0.5-0.04,1.01-0.09,1.51-0.13c50.52-4.06,101.08-7.74,151.61-11.71c10.33-0.81,20.87-1.73,30.57-5.63
		c8.68-3.49,15.93-9.39,21.6-16.79c12.97-16.91,15.96-38.67,17.75-59.3C590.46,518.65,590.82,513.89,586.81,511.15z"/>
	<path class="st0" d="M267.81,711.61c-2.63-1.2-1.45-1.25-4.47-0.78c-0.44,0.07-0.86,0.26-1.23,0.53c-1.31-0.86-3.09-0.86-4.13,0.88
		c-8.43,14.11-18.74,27.01-26.64,41.45c-1.01,1.84-0.56,4.03,1.53,4.87c3.81,1.53,2.81,0.73,6.82,1.58
		c1.06,0.23,6.07-4.06,6.65-4.91c4.73-6.87,20.01-30.53,24.11-37.89C271.51,715.44,269.84,712.53,267.81,711.61z"/>
	<path class="st2" d="M251.97,758.55c0.07-9.51-0.04-9.77-1.73-9.73c-3.94,0.08-13.42-0.88-17.69-1.18
		c-1.89-0.01-2.63,1.18-2.58,1.81c0.32,4.93-4.18,4.54-10.36,7.12c-5.27,2.2-10.32,4.03-18.62,5.87c-7.39,1.64-6.57,0.52-6.95,5.16
		c-0.27,3.32,7.21,3.3,13.28,3.38c0.96,0.01,1.91,0.03,2.86,0.06c2.86,0.07,5.71-0.3,8.46-1.1c0.5-0.15,1-0.3,1.5-0.44
		c4.58-1.36,8.65-1.54,13.4-1.11c0.23,0.02,0.5,0.2,0.53,0.45c0.05,0.5,0.05,0.78,0.08,1.28c0.05,0.89,0.79,1.58,1.68,1.61
		c1.95,0.06,3.92,0.11,5.9,0.13c3.73,0.05,8.71,0.27,9.33-0.63c0.7-1,0.43-1.21,0.48-2.26
		C251.66,766.11,251.95,761.75,251.97,758.55z"/>
	<path class="st3" d="M196.27,763.28c-0.24-0.6-1.13-0.14-0.89,0.46c0.56,1.37,1.14,2.73,1.74,4.08c0.26,0.59,1.15,0.13,0.89-0.46
		C197.41,766.01,196.83,764.65,196.27,763.28z M200.65,761.42c-0.35-0.53-1.25-0.08-0.89,0.46c0.85,1.29,1.61,2.63,2.27,4.02
		c0.28,0.58,1.17,0.12,0.89-0.46C202.26,764.05,201.5,762.71,200.65,761.42z M208.52,762.28c-1.15-1.03-2.37-1.98-3.65-2.84
		c-0.53-0.35-1.18,0.41-0.64,0.77c1.28,0.86,2.5,1.8,3.65,2.84C208.36,763.47,209,762.71,208.52,762.28z"/>
	<path class="st3" d="M251.54,768.98c0.04-0.84,0.04-1.8,0.01-2.8c-4.61,0.6-10.66,0.04-15.28-0.38c-4.55-0.42-8.98-0.43-13.52,0.1
		c-9.62,1.12-18.99,1.48-28.59,0.17c-0.03,0.43-0.06,0.94-0.11,1.55c-0.27,3.32,7.21,3.3,13.28,3.38c0.96,0.01,1.91,0.03,2.86,0.06
		c2.86,0.07,5.71-0.3,8.45-1.1c0.5-0.15,1-0.3,1.5-0.44c4.58-1.36,8.65-1.54,13.4-1.11c0.23,0.02,0.5,0.2,0.53,0.45
		c0.05,0.5,0.05,0.78,0.08,1.28c0.05,0.89,0.79,1.58,1.68,1.61c1.95,0.06,3.92,0.11,5.9,0.13c3.73,0.05,8.71,0.27,9.33-0.63
		C251.76,770.24,251.49,770.03,251.54,768.98z"/>
	<polygon class="st2" points="23,778 13.02,777.34 66.94,499.05 76.91,499.71 	"/>
	<polygon class="st2" points="341.69,775.32 351.67,774.67 298.88,499.55 288.9,500.21 	"/>
	<rect y="486.21" class="st2" width="349.67" height="37.33"/>
	<path class="st2" d="M147.21,500.08H94.46l0,0c0-6.63,5.37-12,12-12h28.75C141.83,488.08,147.21,493.46,147.21,500.08
		L147.21,500.08z"/>
	<path class="st2" d="M194.17,487.17H68.71c-3.04,0-5.5-2.46-5.5-5.5v-95.66c0-3.04,2.46-5.5,5.5-5.5h125.46
		c3.04,0,5.5,2.46,5.5,5.5v95.66C199.67,484.7,197.2,487.17,194.17,487.17z"/>
	<path class="st1" d="M188.78,474.47H74.46c-3.04,0-5.5-2.46-5.5-5.5v-77.35c0-3.04,2.46-5.5,5.5-5.5h114.32
		c3.04,0,5.5,2.46,5.5,5.5v77.35C194.28,472.01,191.81,474.47,188.78,474.47z"/>
	<path class="st0" d="M377.65,478.42c-3.51,0.2-9.51,1.3-13,1.75c-0.9,0.12-11.74-0.99-15.86-1.31c-3.62-0.28-8.18-1.42-11.76-0.64
		c-0.27,0.06-0.55,0.15-0.82,0.24c-7.14,0.44-13.24,4.09-18.85,8.29c-0.06,0.03-0.12,0.06-0.18,0.09c-0.08,0.04-0.15,0.11-0.2,0.19
		c-0.56,0.42-1.11,0.85-1.66,1.27c-0.32,0.25-0.2,0.88,0.25,0.89c2.15,0.04,4.15-0.5,6.09-1.27c-0.63,0.52-1.23,1.05-1.77,1.61
		c-1.66,1.72-2.55,4.67,0.75,4.25c1.3-0.17,2.62-0.94,3.88-1.88c-0.03,0.09-0.06,0.19-0.07,0.28c-0.25,1.46,0.74,2.34,2.12,2.32
		c2.53-0.02,5.66-2.41,7.75-3.72c1.69-1.06,3.3-2.23,4.84-3.48c3.35-0.05,7.77,1.54,9.33,1.9c8.77,2.03,14.12,0.35,15.45,0.25
		c3.38-0.26,12.18-0.04,13.17-1.24C378.49,486.52,378.09,478.39,377.65,478.42z"/>
	<path class="st1" d="M649.21,349.95c-1.06-6.6-3.22-13.11-6.74-18.82c-2.44-3.96-5.9-9.51-11.1-9.57
		c-3.46-0.04-7.39,1.89-10.66,2.86c-4.31,1.29-8.62,2.57-12.93,3.86c-6.73,2.01-62.57,26.23-71.64,31.71
		c-13.93,8.42-25.6,18.68-36.54,30.67c-11.95,13.1-48.71,64.75-114.21,79.25c-6.5,1.44-11.5,1-11.41,5.83
		c0.09,4.71-0.42,0.41-0.5,5.1c-0.09,5.56-0.18,11.11-0.28,16.67c-0.02,1.34,1.16,2.51,2.5,2.5c16.72-0.13,34-4.04,50.21-7.9
		c15.61-3.71,53.73-21.15,57.73-24.95c-4.19,16.35-9.67,28.22-13.33,44.69c-2.14,9.6-3.75,19.46-3.79,29.29
		c11.77,6.1,25.07,7.38,38.12,8.38c14.43,1.1,28.97,1.28,43.32-0.88c23.81-3.6,47.76-14.86,61.17-35.63
		c7.61-11.79,10.83-25.84,13.79-39.37c3.23-14.77,5.79-29.69,9.68-44.3C639.53,403.32,653.67,377.66,649.21,349.95z"/>
	<path class="st2" d="M405.88,600.92c-5.14-5.33-45.77,6.03-52.59,5.63c-9.34-0.55-18.7-0.09-27.98,1.17
		c-0.13-1.99-2.94-3.41-4.41-1.32c-26.09,37.31-60.01,86.6-85.68,124.21c-1.16,1.7,0.03,3.56,1.76,3.92
		c15.2,3.23,30.5,5.93,45.89,8.07c1.06,0.15,2.1-0.64,2.48-1.63c3.81-10,24.88-23.52,31.57-30.91c1.61-1.78,2.85-3.77,3.68-6.05
		c1.39-3.79,1.26-8.26,3.93-11.44c3.88-4.63,11.67-4.85,16.56-8.19c5.47-3.74,8.16-9.01,10.75-15.02c1.87-4.33,4.01-7.03,7.66-9.78
		c2.61-1.97,5.1-3.88,6.83-6.77c3.98-6.69,4.71-15.98,7.87-23.09C382.73,610.5,410.61,605.83,405.88,600.92z"/>
	<path class="st4" d="M625.94,421.13c-5.46-0.41-70.91-3.05-76.38-3.39c-3.99-0.24-8.06-0.24-11.61,1.85
		c-6.28,3.69-8.41,11.48-9.6,18.17c-2.83,15.98-5.85,49.29-4.58,72.7c0.37,6.79,1.55,14.77,7.33,19.2c3.27,2.5,7.31,3,11.3,3.24
		c5.79,0.35,71.57,2.76,77.36,3.03c0.21,0.05,0.43,0.06,0.64,0.03l0.01,0c1.43,0.07,2.1-1.36,2-3.81
		c1.1-26.71,3.15-58.49,4.41-71.66c1.16-12.16,1.82-27.6,2.7-35.94C629.63,422.06,627.31,421.31,625.94,421.13z"/>
	<polygon class="st2" points="516.24,774.1 506.26,773.44 516.81,603.33 526.79,603.99 	"/>
	<path class="st4" d="M585.06,509.67l-76.69-0.37c-18.67-0.09-34.17,14.38-35.37,33.01l-4.9,76.13l9.98,0.66l4.29-66.68
		c1.24-26.78,14.08-33.28,35.34-33.01l67.29,0.27L585.06,509.67z"/>
	<polygon class="st4" points="543.37,618.97 533.39,618.31 546.3,419.14 556.28,419.8 	"/>
	<path class="st4" d="M617.37,618.97l-9.98-0.66l13.13-197.47l5.83,0.38c2.29,0.15,4.03,2.13,3.88,4.43L617.37,618.97z"/>
	<path class="st2" d="M461.61,769.3L461.61,769.3c0-2.76,2.24-5,5-5h92.17c2.76,0,5,2.24,5,5l0,0c0,2.76-2.24,5-5,5h-92.17
		C463.85,774.3,461.61,772.06,461.61,769.3z"/>
	<circle class="st2" cx="471.82" cy="788.05" r="9.75"/>
	<circle class="st2" cx="552.65" cy="787.72" r="9.75"/>
	<path class="st2" d="M230,486.33H77.67V478h144C226.27,478,230,481.73,230,486.33L230,486.33z"/>
	<path class="st1" d="M263.7,2.53c0.01-0.9-0.56-1.59-1.2-1.62c-13.86-0.71-54.64-0.74-57.83-0.9c-2.63-0.14-2.09,3.12-2.08,3.71
		c0.13,13.02,0.11,42.81,0.48,49.12c0.16,2.81,0.48,4.21,2.62,4.91c4.04,1.33,44.71,1.12,54.72,1.26c3.17,0.05,3.01-1.13,3.17-8.34
		C264.27,20.63,263.36,24.34,263.7,2.53z"/>
	<path class="st4" d="M264.2,86.53c0.01-0.9-0.56-1.59-1.2-1.62c-13.86-0.71-54.64-0.74-57.83-0.9c-2.63-0.14-2.09,3.12-2.08,3.71
		c0.13,13.02,0.11,42.81,0.48,49.12c0.16,2.81,0.48,4.21,2.62,4.91c4.04,1.33,44.71,1.12,54.72,1.26c3.17,0.05,3.01-1.13,3.17-8.34
		C264.77,104.63,263.86,108.34,264.2,86.53z"/>
	<path class="st4" d="M265.2,169.03c0.01-0.9-0.56-1.59-1.2-1.62c-13.86-0.71-54.64-0.74-57.83-0.9c-2.63-0.14-2.09,3.12-2.08,3.71
		c0.13,13.02,0.11,42.81,0.48,49.12c0.16,2.81,0.48,4.21,2.62,4.91c4.04,1.33,44.71,1.12,54.72,1.26c3.17,0.05,3.01-1.13,3.17-8.34
		C265.77,187.13,264.86,190.84,265.2,169.03z"/>
	<path class="st5" d="M133.41,420.99c0.01-0.71-0.44-1.25-0.95-1.28c-10.92-0.56-43.06-0.58-45.58-0.71
		c-2.08-0.11-1.64,2.46-1.64,2.92c0.1,10.26,0.08,33.74,0.38,38.71c0.13,2.21,0.38,3.32,2.06,3.87c3.19,1.05,35.24,0.88,43.12,0.99
		c2.5,0.04,2.37-0.89,2.5-6.57C133.85,435.26,133.14,438.18,133.41,420.99z"/>
	<path class="st5" d="M175.82,401.54c0.02-0.91-0.72-1.6-1.54-1.63c-17.73-0.72-69.93-0.74-74.02-0.91
		c-3.37-0.14-2.67,3.14-2.66,3.73c0.17,13.1,0.14,43.05,0.61,49.39c0.21,2.82,0.62,4.23,3.35,4.94c5.18,1.34,57.22,1.13,70.03,1.27
		c4.06,0.05,3.85-1.13,4.06-8.38C176.54,419.75,175.39,423.47,175.82,401.54z"/>
	<path class="st5" d="M455.67,10.75c0.09-1.05,1.33-7.5-5.5-7.5c-36.47,0-140.63-0.78-149.05-0.97c-6.93-0.16-5.22,1.37-5.48,4.33
		c-1.44,16.55-0.81,35.43-1.94,48.93c-0.27,3.3,0.12,4.5,7.25,4.75c10.75,0.38,118.04,1.79,144.38,1.79c5,0,6.54-2.18,6.83-5
		C453.17,47.58,454,30.08,455.67,10.75z"/>
	<path class="st5" d="M456.33,93.42c0.09-1.05,1.33-7.5-5.5-7.5c-36.47,0-140.63-0.78-149.05-0.97c-6.93-0.16-5.22,1.37-5.48,4.33
		c-1.44,16.55-0.81,35.43-1.94,48.93c-0.27,3.3,0.12,4.5,7.25,4.75c10.75,0.38,118.04,1.79,144.38,1.79c5,0,6.54-2.18,6.83-5
		C453.83,130.25,454.67,112.75,456.33,93.42z"/>
	<path class="st5" d="M454.67,176.42c0.09-1.05,1.33-7.5-5.5-7.5c-36.47,0-140.63-0.78-149.05-0.97c-6.93-0.16-5.22,1.37-5.48,4.33
		c-1.44,16.55-0.81,35.43-1.94,48.93c-0.27,3.3,0.12,4.5,7.25,4.75c10.75,0.38,118.04,1.79,144.38,1.79c5,0,6.54-2.18,6.83-5
		C452.17,213.25,453,195.75,454.67,176.42z"/>
	<path class="st0" d="M632.79,315.76c-10.02,1.15-18.6-2.38-27.09-6.15c-0.26-0.12-0.52-0.17-0.77-0.2
		c-1.11-0.65-2.77-0.55-3.79,0.96c-4.72,7.01-13.04,18.4-18.89,28.19c4.48,6.34,13.16,10.21,20.24,11.86
		c3.6,0.84,7.35,1.3,11.13,1.34l29.33-37.06C644.04,313.07,634.77,315.53,632.79,315.76z"/>
	<path class="st0" d="M603.47,278.91c15.66-8.84,31.66-21.87,45.81-18.05c0.62-0.16,1.95,1.28,2.65,1.72
		c0.17,0.11,0.34,0.23,0.51,0.34c0.6,0.19,2.05,3.46,2.66,3.69c1.07,0.4,1.62,1.23,1.77,2.11c12.57,11.31,15.42,33.16,9.64,48.28
		c-0.62,1.61-1.34,3.16-2.14,4.63c-0.8-0.11-1.7,0.01-2.68,0.43c-2.48,1.07-5.02,1.92-7.59,2.68c-0.38-1.84-1.62-3.51-3.92-4.21
		c-3.74-1.13-7.55-0.03-11.27,0.62c-4.49,0.79-9,1.45-13.49,2.2c-8.53,1.42-17.12,4.34-26.94-1.24
		c-7.9-3.11-17.26-22.22-13.36-28.76C588.12,288.32,598.27,281.85,603.47,278.91z"/>
	<path class="st0" d="M603.67,281.76c-0.15-0.75,15.18-9.17,15.18-9.17c1.67-0.19,1.1-2.89-0.57-2.7c-3.31,0.37-6.63,0.74-9.94,1.11
		c-2.54,0.28-6.08,0-8.31,1.42c-3.73,2.38-0.53,7.47,1.21,10.22C602.01,283.89,603.99,283.39,603.67,281.76z"/>
	<path class="st2" d="M623.29,267.08c1.55-0.89,3.09-1.73,4.63-2.52c0.96,3.16,0.57,7.18,0.01,10.2c-0.05,0.26-0.15,0.37-0.48,0.56
		c-1.41,0.78-2.78-3.2-3.05-4.46C624.1,269.52,623.72,268.3,623.29,267.08z"/>
	<path class="st2" d="M619.35,276.34c-1.59,0.97-3.34,1-3.91,0.06c-0.57-0.94,0.25-2.48,1.84-3.45c1.59-0.97,3.34-1,3.91-0.06
		C621.76,273.83,620.94,275.37,619.35,276.34z"/>
	<path class="st6" d="M596.66,288.42c-0.99,1.02-2.27-1.15-3.51-2.84c0,0,2.87-2.09,4.38-3.04
		C597.56,284.8,597.61,287.44,596.66,288.42z"/>
	<path class="st2" d="M681.1,320.24c4.43-6.29,5.78-14.96,6.05-22.48c0.28-7.82-1.15-15.78-5.15-22.59
		c-1.84-3.13-5.51-8.67-9.44-6.83c-0.06-6.12-2.33-12.5-7.76-15.36c-3.55-1.87-5.93-1.18-7.46,0.7c-2.33-3.59-5.52-7.24-10.14-6.74
		c-3.69,0.4-5.85,3.45-5.94,6.82c-1.92-0.78-3.99-0.99-5.42,1.03c-2.08,2.95,0.14,8.03,1.42,10.79c0.47,1,1.51,3.28,1.62,3.5
		c3.44,6.97-9.57,10.14-10.66,16.54c-0.34,1.99,0.44,3.67,0.72,5.61c0.63,4.26-1.17,6.77-3.81,9.79
		c-7.67,8.78-11.07,17.78-7.64,29.29c0.78,2.64,1.69,7.61,4.69,8.34c2.14,0.52,5.68-0.83,7.84-1.15c3.52-0.51,7.06-0.92,10.6-1.21
		c6.03-0.5,12.28-0.35,18.12-2.12c4.24-1.28,7.45-3.65,10.39-6.58C673.88,327.61,678.38,324.11,681.1,320.24z"/>
	<path class="st2" d="M437,15.45c-41-0.55-82-1.09-123-1.64c-0.64-0.01-0.64,0.99,0,1c41,0.55,82,1.09,123,1.64
		C437.64,16.46,437.64,15.46,437,15.45z"/>
	<path class="st2" d="M436.54,31.66c-41-0.55-82-1.09-123-1.64c-0.64-0.01-0.64,0.99,0,1c41,0.55,82,1.09,123,1.64
		C437.19,32.67,437.19,31.67,436.54,31.66z"/>
	<path class="st2" d="M430.54,268.66c-41-0.55-82-1.09-123-1.64c-0.64-0.01-0.64,0.99,0,1c41,0.55,82,1.09,123,1.64
		C431.19,269.67,431.19,268.67,430.54,268.66z"/>
	<path class="st2" d="M349.12,45.84c-11.75-0.46-23.5-0.7-35.26-0.72c-0.64,0-0.63,1,0.02,1c11.76,0.02,23.51,0.26,35.26,0.72
		C349.78,46.87,349.76,45.87,349.12,45.84z"/>
	<path class="st2" d="M344.12,179.09c-11.75-0.46-23.5-0.7-35.26-0.72c-0.64,0-0.63,1,0.02,1c11.76,0.02,23.51,0.26,35.26,0.72
		C344.78,180.12,344.76,179.12,344.12,179.09z"/>
	<path class="st2" d="M126.12,430.09c-11.75-0.46-23.5-0.7-35.26-0.72c-0.64,0-0.63,1,0.02,1c11.76,0.02,23.51,0.26,35.26,0.72
		C126.78,431.12,126.76,430.12,126.12,430.09z"/>
	<path class="st2" d="M126,439.22c-11.75-0.46-23.5-0.7-35.26-0.72c-0.64,0-0.63,1,0.02,1c11.76,0.02,23.51,0.26,35.26,0.72
		C126.66,440.24,126.64,439.24,126,439.22z"/>
	<path class="st2" d="M126.5,448.55c-11.75-0.46-23.5-0.7-35.26-0.72c-0.64,0-0.63,1,0.02,1c11.76,0.02,23.51,0.26,35.26,0.72
		C127.16,449.58,127.14,448.58,126.5,448.55z"/>
	<path class="st2" d="M126.58,459.05c-11.75-0.46-23.5-0.7-35.26-0.72c-0.64,0-0.63,1,0.02,1c11.76,0.02,23.51,0.26,35.26,0.72
		C127.24,460.08,127.22,459.08,126.58,459.05z"/>
	<path class="st2" d="M434,99.95c-41-0.55-82-1.09-123-1.64c-0.64-0.01-0.64,0.99,0,1c41,0.55,82,1.09,123,1.64
		C434.64,100.96,434.64,99.96,434,99.95z"/>
	<path class="st2" d="M400.54,116.16c-41-0.55-49-1.09-90-1.64c-0.64-0.01-0.64,0.99,0,1c41,0.55,49,1.09,90,1.64
		C401.19,117.17,401.19,116.17,400.54,116.16z"/>
	<path class="st2" d="M432.54,132.66c-41-0.55-82-1.09-123-1.64c-0.64-0.01-0.64,0.99,0,1c41,0.55,82,1.09,123,1.64
		C433.19,133.67,433.19,132.67,432.54,132.66z"/>
	<path class="st2" d="M397.29,195.91c-41-0.55-49-1.09-90-1.64c-0.64-0.01-0.64,0.99,0,1c41,0.55,49,1.09,90,1.64
		C397.94,196.92,397.94,195.92,397.29,195.91z"/>
	<path class="st2" d="M429.29,212.41c-41-0.55-82-1.09-123-1.64c-0.64-0.01-0.64,0.99,0,1c41,0.55,82,1.09,123,1.64
		C429.94,213.42,429.94,212.42,429.29,212.41z"/>
	<path class="st5" d="M454.17,264.42c0.09-1.05,1.33-7.5-5.5-7.5c-36.47,0-140.63-0.78-149.05-0.97c-6.93-0.16-5.22,1.37-5.48,4.33
		c-1.44,16.55-0.81,35.43-1.94,48.93c-0.27,3.3,0.12,4.5,7.25,4.75c10.75,0.38,118.04,1.79,144.38,1.79c5,0,6.54-2.18,6.83-5
		C451.67,301.25,452.5,283.75,454.17,264.42z"/>
	<path class="st2" d="M396.79,283.91c-41-0.55-49-1.09-90-1.64c-0.64-0.01-0.64,0.99,0,1c41,0.55,49,1.09,90,1.64
		C397.44,284.92,397.44,283.92,396.79,283.91z"/>
	<path class="st1" d="M209.66,279.58c-40.76,4.47-48.77,4.9-89.53,9.37c-0.64,0.07-0.52,1.06,0.12,0.99
		c40.76-4.47,48.77-4.9,89.53-9.37C210.42,280.5,210.3,279.51,209.66,279.58z"/>
	<path class="st2" d="M428.79,300.41c-41-0.55-82-1.09-123-1.64c-0.64-0.01-0.64,0.99,0,1c41,0.55,82,1.09,123,1.64
		C429.44,301.42,429.44,300.42,428.79,300.41z"/>
	<path class="st2" d="M253.47,13.36c-8.76,9.94-17.19,20.16-25.3,30.63c-3.79-8.22-7.57-16.43-11.36-24.65
		c-0.27-0.58-1.13-0.08-0.86,0.5c3.89,8.45,7.79,16.9,11.68,25.34c0.18,0.38,0.66,0.26,0.86,0c8.22-10.65,16.79-21.03,25.68-31.12
		C254.6,13.58,253.9,12.87,253.47,13.36z"/>
	<path class="st2" d="M132.46,419.71c-10.92-0.56-43.06-0.58-45.58-0.71c-2.08-0.11-1.64,2.46-1.64,2.92c0,0.37,0.01,0.77,0.01,1.18
		c16.03-0.55,32.1-0.22,48.12,0.71c0.01-0.88,0.02-1.81,0.04-2.82C133.42,420.28,132.97,419.74,132.46,419.71z"/>
	<path class="st2" d="M144.76,399.7c-10.92-0.56-43.06-0.58-45.58-0.71c-2.08-0.11-1.64,2.46-1.64,2.92c0,0.37,0.01,0.77,0.01,1.18
		c16.04-0.55,32.1-0.22,48.12,0.71c0.01-0.88,0.02-1.81,0.04-2.82C145.72,400.27,145.26,399.73,144.76,399.7z"/>
	<path class="st5" d="M183.74,395.66c0.01-0.71-0.44-1.25-0.95-1.28c-10.92-0.56-43.06-0.58-45.58-0.71
		c-2.08-0.11-1.64,2.46-1.64,2.92c0.1,10.26,0.08,33.74,0.38,38.71c0.13,2.21,0.38,3.32,2.06,3.87c3.19,1.05,35.24,0.88,43.12,0.99
		c2.5,0.04,2.37-0.89,2.5-6.57C184.19,409.93,183.47,412.85,183.74,395.66z"/>
	<path class="st2" d="M178.12,401.84c-11.75-0.46-23.5-0.7-35.26-0.72c-0.64,0-0.63,1,0.02,1c11.76,0.02,23.51,0.26,35.26,0.72
		C178.78,402.87,178.76,401.87,178.12,401.84z"/>
	<path class="st2" d="M178.29,410.68c-11.75-0.46-23.5-0.7-35.26-0.72c-0.64,0-0.63,1,0.02,1c11.76,0.02,23.51,0.26,35.26,0.72
		C178.95,411.7,178.93,410.7,178.29,410.68z"/>
	<path class="st2" d="M178.62,421.34c-11.75-0.46-23.5-0.7-35.26-0.72c-0.64,0-0.63,1,0.02,1c11.76,0.02,23.51,0.26,35.26,0.72
		C179.28,422.37,179.26,421.37,178.62,421.34z"/>
	<path class="st2" d="M182.84,394.38c-10.92-0.56-43.06-0.58-45.58-0.71c-2.08-0.11-1.64,2.46-1.64,2.92c0,0.37,0.01,0.77,0.01,1.18
		c16.04-0.55,32.1-0.22,48.12,0.71c0.01-0.88,0.02-1.81,0.04-2.82C183.8,394.95,183.34,394.41,182.84,394.38z"/>
	<path class="st2" d="M269.48,486.08c-2.23-7.42-6.96-14.2-15.62-12.99c-7.07,0.99-11.09,6.66-12.82,12.99H269.48z"/>
	<path class="st4" d="M617.61,618.17c0.09-5.48,0.22-10.96,0.22-16.44c0-4-0.28-8.06-2.84-11.48c-4.53-6.04-13.33-7.71-20.85-8.48
		c-17.96-1.86-107.18-3.02-133.13-0.33c-7.52,0.78-16.32,2.44-20.85,8.48c-2.56,3.42-2.84,7.48-2.84,11.48
		c0,5.8,0.15,11.6,0.24,17.4c-0.04,0.21-0.04,0.43,0.01,0.64l0,0.01c0.02,1.44,1.66,2.02,4.37,1.77
		c29.78-0.51,117.24-0.23,131.96,0.23c13.59,0.42,30.81,0.15,40.14,0.52C616.83,621.9,618.12,618.78,617.61,618.17z"/>
	<path class="st4" d="M264.7,257.03c0.01-0.9-0.56-1.59-1.2-1.62c-13.86-0.71-54.64-0.74-57.83-0.9c-2.63-0.14-2.09,3.12-2.08,3.71
		c0.13,13.02,0.11,42.81,0.48,49.12c0.16,2.81,0.48,4.21,2.62,4.91c4.04,1.33,44.71,1.12,54.72,1.26c3.17,0.05,3.01-1.13,3.17-8.34
		C265.27,275.13,264.36,278.84,264.7,257.03z"/>
	<path class="st2" d="M420.08,708.87c-9.26-11.25-6.22-28.36-12.11-41.23c-3.25-7.1-8.89-12.45-13.38-18.71
		c-5.38-7.51-6.16-15.65-7.74-24.48c-2.39-13.44-10.89-27.97-26.75-25.02c-14.91,2.77-23.46,18.54-31.01,31.04
		c-4.82-15.24-6.91-31.28-3.08-46.6c1.4-5.62-7.27-8.02-8.68-2.39c-6.66,26.63,2.54,54.9,14.38,78.69
		c12.79,25.71,30.34,48.66,44.22,73.75c1.53,2.76,4.57,2.14,7.07,0.91c11.48-5.66,22.31-11.66,35.09-18.43
		C421.28,714.7,422.22,711.47,420.08,708.87z"/>
	<path class="st2" d="M553,375.08c-0.19-0.61-1.16-0.35-0.96,0.27c3.84,12.14,0.52,25.77-8.49,34.78c-0.46,0.46,0.25,1.16,0.71,0.71
		C553.5,401.59,556.94,387.56,553,375.08z"/>
	<path class="st2" d="M456.67,444.87c-0.06-0.63-1.06-0.64-1,0c0.35,3.66,0.71,7.33,1.06,10.99c0.06,0.63,1.06,0.64,1,0
		C457.38,452.19,457.02,448.53,456.67,444.87z"/>
	<path class="st2" d="M465.3,452.55c-1.84-3.56-3.96-6.93-6.37-10.12c-0.38-0.51-1.25-0.01-0.86,0.5c2.41,3.19,4.54,6.57,6.37,10.12
		C464.73,453.63,465.6,453.12,465.3,452.55z"/>
	<path class="st1" d="M623.91,343.84c-0.68-0.46-1.87-0.37-2.66-0.49c-1.62-0.24-3.24-0.48-4.86-0.71
		c-10.72-1.54-21.46-3.01-32.22-4.24c-4.65-0.53-10.33-1.54-14.79,0.41c-2.39,1.04-3.95,3.16-5.53,5.14c-0.58,0.72-4.31,5.7-5,6.69
		c-0.37,0.53,0.49,1.03,0.86,0.5c0.23-0.33,0.47-0.65,0.71-0.98c0.06,0.06,0.12,0.11,0.21,0.14c10.78,2.97,21.69,5.4,32.66,7.58
		c5.4,1.07,10.82,2.09,16.24,3.1c3.04,0.56,7.54,2.67,9.26-0.88c0.98-2.03,1.77-4.19,2.61-6.28c1.03-2.54,2.54-5.32,3.1-8
		C624.68,344.89,624.73,344.39,623.91,343.84z"/>
	<path class="st2" d="M568.47,254.46c-5.54-1.48-10.53-4.24-14.69-8.2c-0.46-0.44-1.24,0.19-0.77,0.63c4.29,4.08,9.37,6.97,15.1,8.5
		C568.72,255.56,569.09,254.63,568.47,254.46z"/>
	<path class="st0" d="M672.35,254.11c-8.74-1.69-17.65-1.02-25.89,1.8c6.21-4.16,13.79-5.03,21.16-5.81
		c1.06-0.11,4.17,0.14,4.59-1.44c0.25-0.93-0.48-1.48-1.23-1.78c-1.35-0.54-3.31-0.45-5.18-0.24c-0.09-0.13-0.22-0.23-0.43-0.26
		c-4.38-0.64-10.71-1.78-15.37-0.51c-5.83,1.58-13.28,8.56-15.87,7.61c-2.68-0.98-17.79,11.77-13.96,15.65
		c3.49,3.54,10.71,0.7,14.31-1.13c3.05-1.55,5.9-3.45,8.96-4.96c2.6-0.96,5.16-2.2,7.61-3.04c5.11-1.76,10.5-2.62,15.9-2.81
		c2.08-0.07,5.43,0.51,5.95-2.17C672.97,254.62,672.76,254.19,672.35,254.11z"/>
	<path class="st1" d="M630.53,251.32c-2.8-1.06-4.6-0.11-7.06,1.39c-2.59,1.57-5.3,3.51-7.13,5.95c-2.96,3.95,1.25,11.12,0.88,10.26
		c-0.26-0.59-1.12-0.08-0.86,0.5c0.81,1.87,2.87,1.72,4.31,0.66c2.9-2.14,5.3-5.5,7.77-8.13c1.32-1.4,2.64-2.81,3.96-4.21
		c0.76-0.81,2.32-2.01,2.37-3.3C634.83,252.52,631.91,251.84,630.53,251.32z"/>
	<path class="st6" d="M636.71,266.38c-4.42,2.97-9.53,4.19-14.81,3.56c-0.64-0.08-0.63,0.93,0,1c5.45,0.65,10.76-0.64,15.32-3.7
		C637.74,266.88,637.24,266.02,636.71,266.38z"/>
</g>
</svg>
